{"glyphs":{"0":{"ha":694,"x_min":0,"x_max":0,"o":"m 639 444 b 588 131 639 335 632 226 b 346 -31 526 -1 421 -31 b 117 110 278 -31 176 -3 b 54 444 60 215 54 340 b 106 760 54 556 61 664 b 347 925 163 889 264 925 b 583 769 406 925 519 903 b 639 444 632 667 639 556 m 524 461 b 510 732 524 549 524 654 b 346 894 483 869 392 894 b 181 717 311 894 207 882 b 169 461 169 642 169 550 b 185 168 169 379 169 251 b 346 0 210 35 292 0 b 508 174 408 0 488 42 b 524 461 524 263 524 357 "},"1":{"ha":694,"x_min":0,"x_max":0,"o":"m 582 0 b 357 4 533 4 413 4 b 132 0 301 4 181 4 l 132 43 l 176 43 b 306 110 301 43 306 60 l 306 829 b 124 793 233 793 151 793 l 124 836 b 376 925 168 836 290 836 b 408 889 408 925 408 922 l 408 110 b 538 43 408 58 413 43 l 582 43 l 582 0 "},"2":{"ha":694,"x_min":0,"x_max":0,"o":"m 585 0 l 69 0 b 85 51 69 33 69 36 l 351 349 b 497 656 428 435 497 544 b 311 882 497 769 438 882 b 124 740 231 882 156 831 b 142 742 128 742 131 742 b 215 669 190 742 215 706 b 143 596 215 613 167 596 b 69 674 139 596 69 596 b 329 925 69 797 172 925 b 624 656 499 925 624 814 b 324 250 624 517 540 442 l 176 107 l 426 107 b 558 118 457 107 549 107 b 589 242 572 139 582 200 l 624 242 "},"3":{"ha":694,"x_min":0,"x_max":0,"o":"m 635 238 b 339 -31 635 96 508 -31 b 58 188 188 -31 58 61 b 136 268 58 249 103 268 b 214 190 176 268 214 240 b 122 114 214 138 171 107 b 335 8 171 32 275 8 b 492 238 396 8 492 49 b 326 468 492 374 440 468 l 265 468 b 232 483 242 468 232 468 b 253 500 232 497 242 499 b 307 504 263 500 296 503 b 431 576 342 506 389 510 b 469 735 467 638 469 718 b 336 890 469 860 393 890 b 151 804 286 890 194 872 b 238 735 172 804 238 804 b 167 664 238 694 210 664 b 96 736 126 664 96 690 b 342 925 96 842 201 925 b 597 733 475 925 597 847 b 403 489 597 624 517 526 b 635 238 547 460 635 351 "},"4":{"ha":694,"x_min":0,"x_max":0,"o":"m 515 229 l 515 108 b 621 43 515 58 518 43 l 650 43 l 650 0 b 461 4 593 4 519 4 b 274 0 403 4 331 4 l 274 43 l 303 43 b 408 108 406 43 408 58 l 408 229 l 39 229 l 39 272 l 465 924 b 493 940 476 940 481 940 b 515 904 515 940 515 932 l 515 272 l 654 272 l 654 229 m 417 790 l 78 272 l 417 272 "},"5":{"ha":694,"x_min":0,"x_max":0,"o":"m 624 279 b 321 -31 624 103 482 -31 b 69 224 165 -31 69 104 b 138 297 69 288 118 297 b 207 229 183 297 207 263 b 138 161 207 196 183 161 b 114 164 122 161 118 163 b 318 8 138 82 217 8 b 467 99 382 8 433 44 b 500 289 500 157 500 240 b 475 464 500 358 497 413 b 357 553 464 489 429 553 b 178 456 244 553 193 478 b 160 443 172 447 169 443 b 140 479 140 443 140 454 l 140 890 b 154 924 140 913 140 924 b 171 919 154 924 160 924 b 356 881 236 890 300 881 b 544 921 449 881 517 908 b 556 925 551 925 556 925 b 569 910 565 925 569 918 b 301 765 569 892 472 765 b 183 783 257 765 211 775 l 183 513 b 360 583 233 561 293 583 b 624 279 510 583 624 444 "},"6":{"ha":694,"x_min":0,"x_max":0,"o":"m 635 283 b 349 -31 635 100 503 -31 b 58 439 219 -31 58 68 b 424 925 58 746 246 925 b 600 775 539 925 600 858 b 536 708 600 721 558 708 b 472 772 506 708 472 729 b 549 835 472 835 528 835 b 426 890 518 882 460 890 b 183 489 356 890 183 840 l 183 456 b 357 593 211 522 263 593 b 635 283 511 593 635 460 m 510 285 b 485 475 510 353 510 424 b 356 561 442 561 378 561 b 186 314 231 561 186 422 b 211 113 186 289 186 178 b 349 8 219 92 261 8 b 486 99 381 8 444 15 b 510 285 510 149 510 218 "},"7":{"ha":694,"x_min":0,"x_max":0,"o":"m 674 894 b 661 846 674 865 674 863 l 474 582 b 388 344 413 496 393 376 b 372 117 376 269 372 193 l 372 46 b 308 -31 372 32 372 -31 b 244 46 244 -31 244 32 b 415 568 244 188 290 381 l 571 788 l 283 788 b 147 779 265 788 157 788 b 113 653 129 763 117 675 l 78 653 l 124 939 l 158 939 b 336 894 164 913 167 894 l 674 894 "},"8":{"ha":694,"x_min":0,"x_max":0,"o":"m 635 233 b 346 -31 635 85 503 -31 b 58 210 200 -31 58 63 b 258 465 58 347 178 425 b 157 540 224 489 172 524 b 96 693 99 606 96 668 b 347 925 96 822 208 925 b 597 718 474 925 597 846 b 429 503 597 626 529 554 b 567 404 518 447 540 433 b 635 233 619 346 635 283 m 536 718 b 346 890 536 818 447 890 b 157 747 247 890 157 832 b 226 635 157 724 163 676 l 399 524 b 536 718 482 572 536 639 m 565 183 b 461 336 565 268 500 310 l 290 444 b 128 210 172 379 128 290 b 347 8 128 94 228 8 b 565 183 461 8 565 81 "},"9":{"ha":694,"x_min":0,"x_max":0,"o":"m 635 457 b 286 -31 635 158 465 -31 b 93 119 168 -31 93 26 b 157 186 93 174 135 186 b 221 122 188 186 221 165 b 149 58 221 99 210 58 b 285 8 186 11 261 8 b 510 397 365 8 510 72 l 510 442 b 336 303 478 361 421 303 b 58 613 181 303 58 439 b 147 838 58 717 90 775 b 351 925 207 900 275 925 b 635 457 475 925 635 831 m 507 585 b 485 781 507 649 501 736 b 351 890 461 843 415 890 b 213 803 303 890 250 872 b 183 611 183 751 183 686 b 208 422 183 543 183 474 b 338 335 251 335 315 335 b 507 585 460 335 507 469 "},"A":{"ha":1042,"x_min":0,"x_max":0,"o":"m 814 4 b 614 0 761 4 664 4 l 614 43 b 729 85 651 43 729 43 b 725 104 729 90 726 99 l 651 317 l 308 317 l 244 135 b 242 114 243 132 242 118 b 346 43 242 78 276 43 l 346 0 l 186 4 l 44 0 l 44 43 b 200 136 119 44 175 65 l 488 967 b 521 994 494 986 499 994 b 553 967 543 994 546 985 l 853 99 b 971 43 868 53 888 43 l 996 43 l 996 0 m 479 811 l 324 360 l 636 360 "},"a":{"ha":694,"x_min":0,"x_max":0,"o":"m 671 124 b 557 -8 671 11 586 -8 b 449 106 492 -8 454 50 b 267 -15 422 40 358 -15 b 44 132 179 -15 44 19 b 183 313 44 193 79 265 b 439 363 271 354 368 358 l 439 414 b 292 592 439 538 360 592 b 142 528 247 592 179 576 b 213 464 206 526 213 481 b 149 400 213 428 188 400 b 85 465 113 400 85 424 b 294 622 85 557 181 622 b 485 546 361 622 431 600 b 535 382 535 494 535 440 l 535 104 b 586 35 535 97 540 35 b 636 124 601 35 636 43 l 636 201 l 671 201 l 671 124 m 439 333 b 151 133 210 325 151 210 b 276 15 151 64 208 15 b 439 194 339 15 439 63 "},"&":{"ha":1081,"x_min":0,"x_max":0,"o":"m 1010 556 b 803 414 886 554 857 506 b 619 136 739 304 683 210 b 811 13 664 83 736 13 b 967 168 874 13 963 58 l 1001 168 b 806 -31 999 49 911 -31 b 561 75 739 -31 657 -8 b 310 -31 510 29 428 -31 b 58 178 172 -31 58 57 b 157 354 58 253 94 290 l 283 489 b 226 771 235 613 226 713 b 415 994 226 918 329 994 b 536 815 514 994 536 879 b 367 535 536 724 442 618 b 597 164 428 375 579 185 b 796 467 657 238 719 332 b 804 494 797 471 804 481 b 706 556 804 529 769 556 l 706 599 b 875 594 743 596 860 594 l 1010 599 l 1010 556 m 501 817 b 418 964 501 817 501 964 b 314 803 369 964 314 919 b 356 568 314 760 318 679 b 501 817 389 604 501 725 m 535 101 b 407 264 483 153 433 225 b 296 457 347 350 326 392 b 174 222 221 385 174 335 b 321 13 174 147 206 13 b 535 101 360 13 446 22 "},"^":{"ha":772,"x_min":0,"x_max":0,"o":"m 763 781 l 385 951 l 8 781 l -7 811 l 386 1033 l 779 811 "},"~":{"ha":772,"x_min":0,"x_max":0,"o":"m 696 342 b 617 293 672 322 644 307 b 515 268 586 279 550 268 b 376 315 460 268 417 292 b 232 367 328 343 288 367 b 19 268 161 367 88 325 l 0 292 l 75 353 b 154 401 99 372 126 388 b 256 426 185 415 221 426 b 394 379 311 426 354 403 b 539 328 443 351 483 328 b 751 426 610 328 683 369 l 771 403 "},"*":{"ha":694,"x_min":0,"x_max":0,"o":"m 603 613 b 565 574 603 594 588 574 b 543 582 554 574 550 578 l 363 714 l 383 478 b 346 443 383 460 368 443 b 310 478 328 443 310 457 l 331 714 l 136 574 b 90 613 90 574 90 613 b 122 651 90 629 96 639 l 315 743 l 119 835 b 90 872 96 846 90 857 b 128 911 90 890 106 911 b 158 896 136 911 139 911 l 331 771 l 310 1007 b 347 1042 310 1025 325 1042 b 383 1007 365 1042 383 1028 l 363 771 l 517 885 b 565 911 553 911 556 911 b 603 872 588 911 603 890 b 571 833 603 856 597 846 l 378 742 l 574 650 b 603 613 597 639 603 628 "},"@":{"ha":1081,"x_min":0,"x_max":0,"o":"m 1001 469 b 860 178 1001 321 982 178 b 721 276 807 178 735 204 b 538 178 679 218 613 178 b 263 482 394 178 263 307 b 538 786 263 657 394 786 b 728 679 592 786 664 767 b 760 668 736 669 738 668 l 783 668 b 817 635 815 668 817 667 l 817 300 b 865 208 817 279 817 208 b 967 461 957 208 967 333 b 539 949 967 796 729 949 b 113 482 311 949 113 747 b 546 15 113 233 293 15 b 924 104 676 15 806 49 b 956 108 931 108 933 108 l 968 108 b 1000 94 990 108 1000 108 b 797 15 1000 72 833 24 b 547 -15 708 -6 619 -15 b 78 482 269 -15 78 221 b 540 979 78 758 286 979 b 1001 469 764 979 1001 794 m 721 600 b 703 656 721 625 721 629 b 542 756 653 733 586 756 b 358 482 440 756 358 636 b 542 208 358 328 442 208 b 701 304 569 208 640 217 b 721 364 721 333 721 339 "},"B":{"ha":983,"x_min":0,"x_max":0,"o":"m 904 254 b 594 0 904 124 779 0 l 50 0 l 50 43 l 83 43 b 193 108 190 43 193 58 l 193 840 b 83 906 193 890 190 906 l 50 906 l 50 949 l 558 949 b 867 714 739 949 867 835 b 636 496 867 611 771 522 b 904 254 790 479 904 375 m 732 714 b 549 906 732 788 683 906 l 376 906 b 308 850 311 906 308 896 l 308 508 l 510 508 b 732 714 664 508 732 625 m 765 256 b 569 478 765 349 707 478 l 308 478 l 308 99 b 376 43 308 53 311 43 l 550 43 b 765 256 693 43 765 157 "},"b":{"ha":772,"x_min":0,"x_max":0,"o":"m 724 300 b 414 -15 724 121 579 -15 b 232 86 311 -15 253 54 l 182 0 l 147 0 l 147 828 b 39 906 147 896 136 906 l 39 949 l 239 964 l 239 524 b 429 614 261 549 321 614 b 724 300 588 614 724 476 m 608 301 b 568 494 608 358 604 438 b 422 583 535 547 485 583 b 258 494 389 583 313 572 b 243 444 243 472 243 471 l 243 158 b 263 100 243 133 243 129 b 408 15 296 49 346 15 b 565 104 483 15 536 61 b 608 301 606 167 608 250 "},"\\":{"ha":694,"x_min":0,"x_max":0,"o":"m 615 -319 b 588 -347 615 -335 603 -347 b 557 -317 568 -347 563 -332 l 85 989 b 78 1014 78 1007 78 1014 b 106 1042 78 1029 90 1042 b 136 1011 125 1042 131 1026 l 608 -294 b 615 -319 615 -312 615 -319 "},"|":{"ha":386,"x_min":0,"x_max":0,"o":"m 221 -301 b 193 -347 221 -321 221 -347 b 165 -301 165 -347 165 -321 l 165 996 b 193 1042 165 1015 165 1042 b 221 996 221 1042 221 1015 l 221 -301 "},"{":{"ha":694,"x_min":0,"x_max":0,"o":"m 593 -332 b 565 -347 593 -347 582 -347 b 372 -294 522 -347 432 -336 b 300 -115 300 -243 300 -196 l 300 160 b 122 332 300 299 182 328 b 100 347 108 333 100 333 b 119 363 100 361 110 363 b 264 425 207 368 244 406 b 300 617 300 464 300 486 l 300 871 b 565 1042 303 971 426 1042 b 593 1026 582 1042 593 1042 b 581 1011 593 1018 588 1013 b 426 947 483 1006 451 972 b 393 782 393 913 393 882 l 393 532 b 229 347 393 493 393 394 b 390 204 283 332 372 296 b 393 78 393 190 393 119 l 393 -131 b 397 -197 393 -179 393 -182 b 571 -317 410 -247 461 -310 b 593 -332 585 -318 593 -318 "},"}":{"ha":694,"x_min":0,"x_max":0,"o":"m 593 347 b 574 332 593 333 583 332 b 429 269 486 326 449 289 b 393 78 393 231 393 208 l 393 -176 b 128 -347 390 -276 267 -347 b 100 -332 114 -347 100 -347 b 113 -317 100 -324 106 -318 b 267 -253 210 -311 242 -278 b 300 -87 300 -218 300 -187 l 300 163 b 464 347 300 201 300 300 b 303 490 410 363 321 399 b 300 617 300 504 300 575 l 300 825 b 296 892 300 874 300 876 b 122 1011 283 942 232 1004 b 100 1026 108 1013 100 1013 b 128 1042 100 1042 114 1042 b 321 989 172 1042 261 1029 b 393 810 393 938 393 890 l 393 535 b 571 363 393 396 511 367 b 593 347 585 361 593 361 "},"[":{"ha":386,"x_min":0,"x_max":0,"o":"m 164 -347 l 164 1042 l 354 1042 l 354 986 l 219 986 l 219 -292 l 354 -292 l 354 -347 "},"]":{"ha":386,"x_min":0,"x_max":0,"o":"m 31 -347 l 31 -292 l 165 -292 l 165 986 l 31 986 l 31 1042 l 221 1042 l 221 -347 "},"C":{"ha":1003,"x_min":0,"x_max":0,"o":"m 924 324 b 561 -31 924 163 788 -31 b 78 475 303 -31 78 188 b 561 979 78 758 301 979 b 817 860 694 979 765 910 l 886 963 b 908 979 897 979 903 979 b 924 946 924 979 924 969 l 924 617 b 901 583 924 588 924 583 b 879 607 882 583 882 588 b 576 936 851 810 728 936 b 221 474 492 936 221 889 b 578 13 221 60 493 13 b 889 325 729 13 878 126 b 906 347 890 339 890 347 b 924 324 924 347 924 338 "},"c":{"ha":617,"x_min":0,"x_max":0,"o":"m 576 165 b 346 -15 576 151 532 -15 b 47 300 185 -15 47 122 b 349 622 47 472 175 622 b 561 474 456 622 561 568 b 497 408 561 432 533 408 b 433 472 458 408 433 436 b 499 536 433 490 442 532 b 350 588 450 586 363 588 b 163 303 276 588 163 529 b 358 19 163 79 285 19 b 540 165 410 19 500 36 b 558 179 543 174 546 179 b 576 165 563 179 576 179 "},":":{"ha":386,"x_min":0,"x_max":0,"o":"m 267 525 b 193 451 267 485 233 451 b 119 525 153 451 119 485 b 193 599 119 565 153 599 b 267 525 233 599 267 565 m 267 74 b 193 0 267 33 233 0 b 119 74 153 0 119 33 b 193 147 119 114 153 147 b 267 74 233 147 267 114 "},",":{"ha":386,"x_min":0,"x_max":0,"o":"m 282 1 b 156 -268 282 -158 172 -268 b 142 -253 149 -268 142 -262 b 151 -237 142 -247 143 -246 b 249 22 213 -172 251 -87 b 193 0 233 8 214 0 b 119 74 143 0 119 38 b 193 147 119 110 144 147 b 282 1 249 147 282 90 "},"D":{"ha":1061,"x_min":0,"x_max":0,"o":"m 982 467 b 557 0 982 206 790 0 l 49 0 l 49 43 l 82 43 b 192 108 189 43 192 58 l 192 840 b 82 906 192 890 189 906 l 49 906 l 49 949 l 557 949 b 982 467 794 949 982 731 m 843 467 b 771 776 843 575 831 694 b 518 906 700 875 604 906 l 379 906 b 311 850 314 906 311 896 l 311 99 b 379 43 311 53 314 43 l 519 43 b 767 161 660 43 739 124 b 843 467 817 229 843 313 "},"d":{"ha":772,"x_min":0,"x_max":0,"o":"m 528 -15 l 528 76 b 342 -15 493 32 431 -15 b 47 299 183 -15 47 122 b 357 614 47 478 193 614 b 532 528 432 614 492 578 l 532 828 b 424 906 532 896 521 906 l 424 949 l 624 964 l 624 121 b 732 43 624 53 635 43 l 732 0 m 528 449 b 513 500 528 474 528 476 b 363 583 469 563 411 583 b 206 494 288 583 235 538 b 163 297 165 432 163 349 b 203 104 163 240 167 161 b 349 15 236 51 286 15 b 513 113 408 15 471 46 b 528 164 528 136 528 139 "},"$":{"ha":694,"x_min":0,"x_max":0,"o":"m 615 271 b 368 -14 615 128 514 -1 l 368 -78 l 325 -78 l 325 -15 b 78 247 151 -4 78 124 b 142 318 78 315 133 318 b 206 254 176 318 206 293 b 142 190 206 217 179 190 b 119 193 136 190 125 192 b 325 29 138 107 203 36 l 325 443 b 154 526 254 461 207 472 b 78 713 129 550 78 617 b 325 978 78 839 171 964 l 325 1042 l 368 1042 l 368 979 b 615 735 524 971 615 869 b 551 665 615 667 556 665 b 488 729 522 665 488 686 b 551 793 488 768 515 793 b 574 790 565 793 568 792 b 368 935 553 868 486 929 l 368 560 b 540 469 435 543 485 531 b 615 271 553 457 615 386 m 544 229 b 368 432 544 263 535 397 l 368 29 b 544 229 478 43 544 136 m 325 935 b 149 754 214 924 149 838 b 325 571 149 726 154 607 "},"E":{"ha":946,"x_min":0,"x_max":0,"o":"m 847 0 l 46 0 l 46 43 l 79 43 b 189 108 186 43 189 58 l 189 836 b 79 901 189 886 186 901 l 46 901 l 46 944 l 828 944 l 867 632 l 832 632 b 560 901 810 825 772 901 l 381 901 b 313 846 315 901 313 892 l 313 513 l 438 513 b 588 675 572 513 588 556 l 622 675 l 622 307 l 588 307 b 438 469 588 425 572 469 l 313 469 l 313 99 b 381 43 313 53 315 43 l 565 43 b 871 358 804 43 836 144 l 906 358 "},"e":{"ha":617,"x_min":0,"x_max":0,"o":"m 576 165 b 344 -15 576 139 514 -15 b 39 306 185 -15 39 119 b 328 622 39 479 167 622 b 576 350 501 622 576 488 b 542 321 576 321 572 321 l 154 321 b 196 113 154 271 154 179 b 353 19 228 61 283 19 b 540 163 367 19 492 19 b 558 182 543 174 546 182 b 576 165 565 182 576 179 m 485 350 b 328 592 485 404 471 592 b 156 350 281 592 164 557 l 485 350 "},"=":{"ha":1081,"x_min":0,"x_max":0,"o":"m 1001 482 b 954 454 1001 454 975 454 l 125 454 b 78 482 104 454 78 454 b 124 510 78 510 104 510 l 956 510 b 1001 482 975 510 1001 510 m 1001 213 b 956 185 1001 185 975 185 l 124 185 b 78 213 104 185 78 185 b 125 240 78 240 104 240 l 954 240 b 1001 213 975 240 1001 240 "},"!":{"ha":386,"x_min":0,"x_max":0,"o":"m 213 290 b 193 260 211 267 207 260 b 174 292 176 260 175 271 l 119 924 b 193 994 119 969 157 994 b 267 924 229 994 267 969 m 267 74 b 193 0 267 33 233 0 b 119 74 153 0 119 33 b 193 147 119 114 153 147 b 267 74 233 147 267 114 "},"F":{"ha":907,"x_min":0,"x_max":0,"o":"m 813 632 b 547 901 790 824 756 901 l 381 901 b 313 846 315 901 313 892 l 313 494 l 432 494 b 579 657 565 494 579 540 l 614 657 l 614 289 l 579 289 b 432 451 579 407 565 451 l 313 451 l 313 110 b 444 43 313 61 313 43 l 490 43 l 490 0 b 257 4 440 4 314 4 b 46 0 203 4 94 4 l 46 43 l 79 43 b 189 108 186 43 189 58 l 189 836 b 79 901 189 886 186 901 l 46 901 l 46 944 l 808 944 l 847 632 "},"f":{"ha":425,"x_min":0,"x_max":0,"o":"m 496 882 b 435 821 496 849 475 821 b 375 881 397 821 375 849 b 417 939 375 915 400 933 b 371 949 396 949 375 949 b 243 760 310 949 243 882 l 243 599 l 406 599 l 406 556 l 247 556 l 247 108 b 353 43 247 58 250 43 l 382 43 l 382 0 b 206 4 326 4 261 4 l 47 0 l 47 43 b 156 106 140 43 156 43 l 156 556 l 46 556 l 46 599 l 156 599 l 156 758 b 371 979 156 906 274 979 b 496 882 444 979 496 933 "},"G":{"ha":1090,"x_min":0,"x_max":0,"o":"m 1021 336 b 925 275 931 336 925 329 l 925 33 b 913 1 925 13 925 1 b 824 88 897 1 842 57 b 564 -31 776 6 665 -31 b 78 475 300 -31 78 190 b 561 979 78 760 303 979 b 818 860 699 979 774 904 l 888 963 b 910 979 899 979 904 979 b 925 946 925 979 925 969 l 925 617 b 903 583 925 588 925 583 b 881 607 883 583 883 588 b 578 936 853 811 726 936 b 221 475 494 936 221 890 b 586 13 221 61 496 13 b 801 181 625 13 801 25 l 801 269 b 672 336 801 321 797 336 l 628 336 l 628 379 b 851 375 678 375 796 375 l 1021 379 l 1021 336 "},"g":{"ha":694,"x_min":0,"x_max":0,"o":"m 674 561 b 633 519 674 529 647 519 b 593 560 611 519 593 536 b 615 597 593 576 600 592 b 601 599 611 599 601 599 b 476 544 576 599 526 592 b 533 410 511 513 533 461 b 308 207 533 303 438 207 b 171 250 282 207 225 211 b 147 185 147 222 147 190 b 221 92 147 140 176 97 b 325 90 231 90 290 90 b 564 51 410 90 490 90 b 654 -107 635 13 654 -58 b 346 -286 654 -215 510 -286 b 39 -110 176 -286 39 -210 b 167 29 39 -54 83 6 b 106 153 124 57 106 110 b 149 268 106 201 131 247 b 83 411 114 297 83 350 b 308 614 83 518 179 614 b 456 564 339 614 397 610 b 603 629 514 621 575 629 b 674 561 657 629 674 585 m 429 411 b 308 582 429 443 429 582 b 210 526 253 582 221 543 b 188 410 189 492 188 447 b 308 239 188 378 188 239 b 407 294 364 239 396 278 b 429 411 428 329 429 374 m 582 -110 b 307 10 582 10 426 10 l 225 10 b 111 -110 164 6 111 -46 b 347 -254 111 -183 207 -254 b 582 -110 483 -254 582 -185 "},"`":{"ha":694,"x_min":0,"x_max":0,"o":"m 410 708 l 199 878 b 175 919 186 888 175 903 b 225 969 175 944 200 969 b 267 946 246 969 261 954 l 433 733 "},">":{"ha":1081,"x_min":0,"x_max":0,"o":"m 964 347 b 938 317 964 331 953 324 l 168 -46 b 143 -56 150 -56 147 -56 b 115 -28 128 -56 115 -43 b 142 3 115 -15 122 -7 l 871 347 l 142 692 b 115 722 122 701 115 710 b 143 750 115 738 128 750 b 168 740 147 750 150 750 l 938 378 b 964 347 953 371 964 364 "},"H":{"ha":1042,"x_min":0,"x_max":0,"o":"m 994 0 b 789 4 946 4 842 4 b 585 0 736 4 633 4 l 585 43 l 618 43 b 728 108 725 43 728 58 l 728 472 l 313 472 l 313 108 b 422 43 313 58 315 43 l 456 43 l 456 0 b 250 4 407 4 303 4 b 46 0 197 4 94 4 l 46 43 l 79 43 b 189 108 186 43 189 58 l 189 840 b 79 906 189 890 186 906 l 46 906 l 46 949 b 251 944 94 944 199 944 b 456 949 304 944 407 944 l 456 906 l 422 906 b 313 840 315 906 313 890 l 313 515 l 728 515 l 728 840 b 618 906 728 890 725 906 l 585 906 l 585 949 b 790 944 633 944 738 944 b 994 949 843 944 946 944 l 994 906 l 961 906 b 851 840 854 906 851 890 l 851 108 b 961 43 851 58 854 43 l 994 43 l 994 0 "},"h":{"ha":772,"x_min":0,"x_max":0,"o":"m 588 4 l 431 0 l 431 43 b 539 106 524 43 539 43 l 539 429 b 436 583 539 508 524 583 b 249 361 347 583 249 506 l 249 106 b 357 43 249 43 264 43 l 357 0 l 201 4 l 44 0 l 44 43 b 153 106 138 43 153 43 l 153 828 b 44 906 153 896 142 906 l 44 949 l 244 964 l 244 481 l 246 481 b 446 614 268 531 329 614 b 592 563 526 614 572 586 b 635 350 635 513 635 469 l 635 85 b 743 43 636 43 671 43 l 743 0 "},"-":{"ha":463,"x_min":0,"x_max":0,"o":"m 15 260 l 15 340 l 383 340 l 383 260 "},"I":{"ha":501,"x_min":0,"x_max":0,"o":"m 463 0 b 250 4 414 4 304 4 b 39 0 197 4 88 4 l 39 43 l 75 43 b 189 108 185 43 189 58 l 189 840 b 75 906 189 890 185 906 l 39 906 l 39 949 b 251 944 88 944 197 944 b 463 949 304 944 414 944 l 463 906 l 426 906 b 313 840 317 906 313 890 l 313 108 b 426 43 313 58 317 43 l 463 43 l 463 0 "},"i":{"ha":386,"x_min":0,"x_max":0,"o":"m 343 0 b 199 4 296 1 247 4 l 46 0 l 46 43 b 154 106 139 43 154 43 l 154 479 b 51 556 154 547 142 556 l 51 599 l 246 614 l 246 104 b 343 43 246 50 251 43 l 343 0 m 267 839 b 192 765 267 804 239 765 b 118 839 150 765 118 801 b 193 913 118 874 146 913 b 267 839 235 913 267 876 "},"J":{"ha":714,"x_min":0,"x_max":0,"o":"m 646 906 b 539 849 558 906 539 906 l 539 232 b 538 171 539 185 539 182 b 279 -31 522 67 421 -31 b 57 156 156 -31 57 53 b 135 236 57 217 104 236 b 213 158 174 236 213 208 b 124 81 213 122 196 81 b 276 0 174 0 268 0 b 419 206 350 0 419 78 l 419 839 b 283 906 419 888 419 906 l 233 906 l 233 949 b 467 944 286 944 408 944 l 646 949 l 646 906 "},"j":{"ha":425,"x_min":0,"x_max":0,"o":"m 292 -69 b 101 -285 292 -196 206 -285 b -56 -174 22 -285 -56 -246 b 8 -110 -56 -137 -31 -110 b 72 -174 47 -110 72 -137 b 24 -236 72 -211 44 -231 b 99 -254 60 -254 92 -254 b 200 -72 188 -254 200 -135 l 200 478 b 81 556 200 546 188 556 l 81 599 l 292 614 l 292 -69 m 292 839 b 217 765 292 804 264 765 b 143 839 175 765 143 801 b 218 913 143 874 171 913 b 292 839 260 913 292 876 "},"K":{"ha":1081,"x_min":0,"x_max":0,"o":"m 863 4 b 664 0 810 4 713 4 l 664 43 b 746 85 692 43 746 43 b 725 132 746 101 733 119 l 474 504 l 313 351 l 313 108 b 422 43 313 58 315 43 l 456 43 l 456 0 b 250 4 407 4 303 4 b 46 0 197 4 94 4 l 46 43 l 79 43 b 189 108 186 43 189 58 l 189 840 b 79 906 189 890 186 906 l 46 906 l 46 949 b 251 944 94 944 199 944 b 456 949 304 944 407 944 l 456 906 l 422 906 b 313 840 315 906 313 890 l 313 399 l 747 814 b 772 860 758 824 772 838 b 708 906 772 872 764 904 l 708 949 b 885 944 756 944 835 944 b 1003 949 922 944 967 944 l 1003 906 b 806 822 890 904 817 833 l 556 582 l 876 110 b 1022 43 918 49 947 43 l 1022 0 "},"k":{"ha":733,"x_min":0,"x_max":0,"o":"m 710 0 b 589 4 669 3 629 4 l 439 0 l 439 43 b 489 75 465 43 489 49 b 324 325 489 100 431 178 l 235 249 l 235 106 b 343 43 235 43 250 43 l 343 0 l 190 4 l 39 0 l 39 43 b 147 106 132 43 147 43 l 147 828 b 39 906 147 896 136 906 l 39 949 l 239 964 l 239 297 l 435 467 b 465 521 446 476 465 493 b 425 556 465 539 451 554 l 425 599 b 581 594 444 597 531 594 b 678 599 619 594 638 594 l 678 556 b 503 481 649 554 590 551 b 390 381 489 469 390 386 b 399 365 390 376 397 368 l 575 117 b 710 43 628 43 658 43 l 710 0 "},"L":{"ha":868,"x_min":0,"x_max":0,"o":"m 769 0 l 46 0 l 46 43 l 79 43 b 189 108 186 43 189 58 l 189 840 b 79 906 189 890 186 906 l 46 906 l 46 949 b 257 944 94 944 203 944 b 490 949 314 944 440 944 l 490 906 l 444 906 b 313 839 313 906 313 886 l 313 99 b 381 43 313 53 315 43 l 494 43 b 774 358 739 43 758 217 l 808 358 "},"l":{"ha":386,"x_min":0,"x_max":0,"o":"m 200 4 l 46 0 l 46 43 b 154 106 139 43 154 43 l 154 828 b 46 906 154 896 143 906 l 46 949 l 246 964 l 246 106 b 354 43 246 43 261 43 l 354 0 "},"<":{"ha":1081,"x_min":0,"x_max":0,"o":"m 964 -28 b 936 -56 964 -43 951 -56 b 911 -46 932 -56 929 -56 l 142 317 b 115 347 126 324 115 331 b 142 378 115 364 126 371 l 911 740 b 936 750 929 750 932 750 b 964 722 951 750 964 738 b 938 692 964 707 954 700 l 208 347 l 938 3 b 964 -28 954 -6 964 -12 "},"M":{"ha":1274,"x_min":0,"x_max":0,"o":"m 1221 0 b 1022 4 1169 4 1076 4 b 822 0 968 4 874 4 l 822 43 l 856 43 b 965 108 963 43 965 58 l 965 906 l 964 906 l 622 26 b 597 0 617 11 613 0 b 569 31 583 0 576 13 l 235 894 l 233 894 l 233 146 b 376 43 233 108 233 43 l 376 0 l 214 4 l 51 0 l 51 43 b 194 146 194 43 194 108 l 194 840 b 85 906 194 890 192 906 l 51 906 l 51 949 l 286 949 b 335 918 318 949 322 949 l 636 140 l 940 922 b 986 949 950 947 950 949 l 1221 949 l 1221 906 l 1188 906 b 1078 840 1081 906 1078 890 l 1078 108 b 1188 43 1078 58 1081 43 l 1221 43 l 1221 0 "},"m":{"ha":1157,"x_min":0,"x_max":0,"o":"m 974 4 l 817 0 l 817 43 b 925 106 910 43 925 43 l 925 429 b 822 583 925 508 910 583 b 635 361 733 583 635 506 l 635 106 b 743 43 635 43 650 43 l 743 0 l 588 4 l 431 0 l 431 43 b 539 106 524 43 539 43 l 539 429 b 436 583 539 508 524 583 b 249 361 347 583 249 506 l 249 106 b 357 43 249 43 264 43 l 357 0 l 201 4 l 44 0 l 44 43 b 153 106 138 43 153 43 l 153 478 b 44 556 153 546 142 556 l 44 599 l 240 614 l 240 468 b 446 614 279 554 344 614 b 631 478 508 614 611 599 b 832 614 654 531 715 614 b 978 563 913 614 958 586 b 1021 350 1021 513 1021 469 l 1021 85 b 1129 43 1022 43 1057 43 l 1129 0 "},"N":{"ha":1042,"x_min":0,"x_max":0,"o":"m 994 906 b 851 803 851 906 851 840 l 851 36 b 832 0 851 10 851 0 b 808 18 822 0 821 1 l 242 851 b 228 868 236 860 235 861 l 228 146 b 371 43 228 108 228 43 l 371 0 l 208 4 l 46 0 l 46 43 b 189 146 189 43 189 108 l 189 871 b 156 903 189 897 188 899 b 86 906 135 904 107 906 l 46 906 l 46 949 l 282 949 b 322 931 308 949 310 947 l 813 210 l 813 803 b 669 906 813 840 813 906 l 669 949 l 832 944 l 994 949 l 994 906 "},"n":{"ha":772,"x_min":0,"x_max":0,"o":"m 588 4 l 431 0 l 431 43 b 539 106 524 43 539 43 l 539 429 b 436 583 539 508 524 583 b 249 361 347 583 249 506 l 249 106 b 357 43 249 43 264 43 l 357 0 l 201 4 l 44 0 l 44 43 b 153 106 138 43 153 43 l 153 478 b 44 556 153 546 142 556 l 44 599 l 240 614 l 240 468 b 446 614 279 554 344 614 b 592 563 526 614 572 586 b 635 350 635 513 635 469 l 635 85 b 743 43 636 43 671 43 l 743 0 "},"#":{"ha":1157,"x_min":0,"x_max":0,"o":"m 1078 213 b 1032 185 1078 185 1051 185 l 721 185 l 608 -236 b 578 -269 604 -251 600 -269 b 550 -242 563 -269 550 -257 b 556 -217 550 -236 554 -219 l 664 185 l 403 185 l 290 -236 b 260 -269 286 -251 282 -269 b 232 -242 244 -269 232 -257 b 238 -217 232 -236 236 -219 l 346 185 l 124 185 b 78 213 104 185 78 185 b 125 240 78 240 104 240 l 363 240 l 418 454 l 125 454 b 78 482 104 454 78 454 b 124 510 78 510 104 510 l 435 510 l 547 931 b 578 964 551 946 556 964 b 606 936 593 964 606 951 b 600 911 606 931 601 914 l 492 510 l 753 510 l 865 931 b 896 964 869 946 874 964 b 924 936 911 964 924 951 b 918 911 924 931 919 914 l 810 510 l 1032 510 b 1078 482 1051 510 1078 510 b 1031 454 1078 454 1051 454 l 793 454 l 738 240 l 1031 240 b 1078 213 1051 240 1078 240 m 475 454 l 419 240 l 681 240 l 736 454 "},"O":{"ha":1081,"x_min":0,"x_max":0,"o":"m 1001 471 b 539 -31 1001 190 792 -31 b 78 471 292 -31 78 186 b 539 979 78 757 290 979 b 1001 471 792 979 1001 754 m 858 490 b 539 944 858 846 660 944 b 221 490 424 944 221 850 b 540 6 221 128 407 6 b 858 490 668 6 858 122 "},"o":{"ha":694,"x_min":0,"x_max":0,"o":"m 654 297 b 346 -15 654 121 514 -15 b 39 297 183 -15 39 118 b 347 622 39 471 174 622 b 654 297 515 622 654 475 m 539 308 b 503 501 539 361 539 442 b 346 592 467 561 407 592 b 188 499 290 592 225 563 b 154 308 154 438 154 363 b 189 113 154 258 154 174 b 347 19 226 49 288 19 b 508 122 417 19 478 60 b 539 308 539 183 539 258 "},"P":{"ha":946,"x_min":0,"x_max":0,"o":"m 867 690 b 550 439 867 551 717 439 l 315 439 l 315 108 b 425 43 315 58 318 43 l 458 43 l 458 0 b 253 4 410 4 306 4 b 49 0 200 4 97 4 l 49 43 l 82 43 b 192 108 189 43 192 58 l 192 840 b 82 906 192 890 189 906 l 49 906 l 49 949 l 539 949 b 867 690 729 949 867 826 m 724 690 b 503 906 724 758 724 906 l 379 906 b 311 850 314 906 311 896 l 311 475 l 503 475 b 724 690 724 475 724 625 "},"p":{"ha":772,"x_min":0,"x_max":0,"o":"m 724 300 b 414 -15 724 121 579 -15 b 243 82 308 -15 250 60 l 243 69 l 243 -164 b 351 -226 243 -226 258 -226 l 351 -269 l 194 -265 l 39 -269 l 39 -226 b 147 -164 132 -226 147 -226 l 147 486 b 39 556 147 547 138 556 l 39 599 l 239 614 l 239 522 b 433 614 267 553 325 614 b 724 300 589 614 724 476 m 608 300 b 422 579 608 457 524 579 b 243 468 351 579 283 539 l 243 158 b 263 100 243 131 243 129 b 408 15 300 43 353 15 b 608 300 511 15 608 132 "},"(":{"ha":540,"x_min":0,"x_max":0,"o":"m 460 -333 b 446 -347 460 -343 454 -347 b 229 -86 432 -347 313 -257 b 138 347 153 71 138 239 b 225 771 138 464 154 618 b 446 1042 307 947 432 1042 b 460 1028 454 1042 460 1038 b 442 1004 460 1024 460 1021 b 218 347 271 831 218 589 b 436 -303 218 135 263 -128 b 460 -333 460 -326 460 -329 "},")":{"ha":540,"x_min":0,"x_max":0,"o":"m 401 347 b 314 -76 401 231 385 76 b 93 -347 232 -253 107 -347 b 79 -333 85 -347 79 -342 b 97 -310 79 -329 79 -326 b 321 347 269 -135 321 110 b 106 996 321 638 242 858 b 79 1028 79 1021 79 1024 b 93 1042 79 1036 85 1042 b 310 781 107 1042 226 951 b 401 347 386 624 401 456 "},"%":{"ha":1157,"x_min":0,"x_max":0,"o":"m 963 1014 b 951 989 963 1006 960 1001 l 249 -57 b 221 -78 238 -72 235 -78 b 193 -50 207 -78 193 -65 b 206 -22 193 -50 193 -40 l 829 907 l 828 908 b 643 860 819 903 749 860 b 433 918 593 860 524 867 b 463 761 463 846 463 781 b 282 482 463 606 383 482 b 78 763 178 482 78 594 b 282 1042 78 925 176 1042 b 382 997 326 1042 356 1021 b 642 890 458 925 544 890 b 906 1022 743 890 836 928 b 935 1042 914 1032 921 1042 b 963 1014 950 1042 963 1029 m 1078 201 b 897 -78 1078 46 999 -78 b 693 203 793 -78 693 35 b 897 482 693 365 792 482 b 1078 201 996 482 1078 361 m 428 763 b 283 1011 428 908 357 1011 b 164 761 254 1011 164 993 b 283 513 164 531 256 513 b 428 763 356 513 428 613 m 1043 203 b 899 451 1043 349 972 451 b 779 201 869 451 779 433 b 899 -47 779 -29 871 -47 b 1043 203 971 -47 1043 53 "},".":{"ha":386,"x_min":0,"x_max":0,"o":"m 267 74 b 193 0 267 33 233 0 b 119 74 153 0 119 33 b 193 147 119 114 153 147 b 267 74 233 147 267 114 "},"+":{"ha":1081,"x_min":0,"x_max":0,"o":"m 1001 347 b 956 319 1001 319 975 319 l 568 319 l 568 -69 b 540 -115 568 -89 568 -115 b 513 -69 513 -115 513 -89 l 513 319 l 124 319 b 78 347 104 319 78 319 b 124 375 78 375 104 375 l 513 375 l 513 764 b 540 810 513 783 513 810 b 568 764 568 810 568 783 l 568 375 l 956 375 b 1001 347 975 375 1001 375 "},"Q":{"ha":1081,"x_min":0,"x_max":0,"o":"m 1010 -14 b 842 -269 1010 -85 983 -269 b 672 -10 713 -269 693 -142 b 540 -31 632 -22 583 -31 b 78 471 288 -31 78 190 b 539 979 78 757 290 979 b 1001 471 792 979 1001 754 b 719 10 1001 261 883 83 b 853 -126 753 -79 788 -126 b 979 -10 913 -126 971 -85 b 994 15 981 4 982 15 b 1010 -14 1010 15 1010 0 m 863 471 b 539 944 863 825 674 944 b 217 471 411 944 217 832 b 447 22 217 151 372 50 b 428 89 446 25 428 51 b 542 206 428 146 471 206 b 699 58 624 206 668 136 b 863 471 846 167 863 363 m 663 36 b 542 175 647 117 617 175 b 458 89 488 175 458 129 b 540 4 458 68 469 4 b 663 36 571 4 615 10 "},"q":{"ha":733,"x_min":0,"x_max":0,"o":"m 575 -265 l 419 -269 l 419 -226 b 528 -164 513 -226 528 -226 l 528 85 b 343 -15 497 44 440 -15 b 47 299 182 -15 47 125 b 354 614 47 479 193 614 b 540 488 465 614 522 526 l 593 614 l 624 614 l 624 -164 b 732 -226 624 -226 639 -226 l 732 -269 m 532 385 b 363 579 532 458 474 579 b 163 299 260 579 163 464 b 349 15 163 139 247 15 b 476 72 414 15 458 53 b 532 189 507 106 532 144 "},"?":{"ha":656,"x_min":0,"x_max":0,"o":"m 576 792 b 510 656 576 733 547 683 b 326 346 461 619 326 521 l 326 297 b 308 260 326 272 326 260 b 292 293 292 260 292 268 l 292 356 b 414 668 292 440 322 568 b 461 800 439 693 461 718 b 310 949 461 854 461 949 b 128 854 251 949 171 928 b 206 792 147 854 206 854 b 142 728 206 756 181 728 b 78 794 110 728 78 747 b 314 979 78 885 164 979 b 576 792 521 979 576 872 m 382 74 b 308 0 382 33 349 0 b 235 74 268 0 235 33 b 308 147 235 114 268 147 b 382 74 349 147 382 114 "},"\"":{"ha":519,"x_min":0,"x_max":0,"o":"m 211 588 l 175 588 l 144 931 b 193 979 142 958 165 979 b 242 931 221 979 244 958 m 344 588 l 308 588 l 278 931 b 326 979 275 958 299 979 b 375 931 354 979 378 958 "},"'":{"ha":386,"x_min":0,"x_max":0,"o":"m 211 588 l 175 588 l 144 931 b 193 979 142 958 165 979 b 242 931 221 979 244 958 "},"R":{"ha":1022,"x_min":0,"x_max":0,"o":"m 1017 122 b 885 -31 1017 83 993 -31 b 710 28 843 -31 767 -22 b 653 226 653 81 653 136 b 600 413 653 319 653 363 b 471 460 551 460 493 460 l 311 460 l 311 108 b 421 43 311 58 314 43 l 454 43 l 454 0 b 251 4 404 4 306 4 b 49 0 197 4 99 4 l 49 43 l 82 43 b 192 108 189 43 192 58 l 192 840 b 82 906 192 890 189 906 l 49 906 l 49 949 l 485 949 b 847 699 689 949 847 832 b 604 472 847 590 739 506 b 774 311 681 446 749 400 l 792 200 b 890 0 811 71 822 0 b 982 124 925 0 974 25 b 999 146 983 133 983 146 b 1017 122 1017 146 1017 131 m 704 699 b 424 906 704 900 549 906 b 342 903 396 906 356 906 b 311 850 311 899 311 882 l 311 490 l 465 490 b 704 699 671 490 704 603 "},"r":{"ha":544,"x_min":0,"x_max":0,"o":"m 506 529 b 446 468 506 485 471 468 b 386 528 415 468 386 489 b 418 582 386 564 414 581 b 403 583 415 583 413 583 b 239 322 297 583 239 460 l 239 108 b 344 43 239 58 242 43 l 374 43 l 374 0 b 197 4 318 4 253 4 l 39 0 l 39 43 b 147 106 132 43 147 43 l 147 478 b 39 556 147 546 136 556 l 39 599 l 232 614 l 232 461 b 403 614 251 521 301 614 b 506 529 463 614 506 574 "},"S":{"ha":772,"x_min":0,"x_max":0,"o":"m 693 258 b 419 -31 693 106 582 -31 b 164 67 296 -31 207 19 b 114 -12 118 -7 114 -12 b 93 -31 104 -28 103 -31 b 78 3 78 -31 78 -21 l 78 281 b 96 315 78 306 78 315 b 113 301 100 315 111 315 b 199 88 114 251 118 163 b 418 13 272 19 378 13 b 604 211 535 13 604 113 b 561 339 604 257 590 303 b 443 410 522 390 481 400 b 260 456 346 433 275 450 b 78 710 151 493 78 594 b 349 979 78 857 194 979 b 571 882 472 979 529 922 l 619 961 b 640 979 629 978 631 979 b 656 946 656 979 656 969 l 656 667 b 638 633 656 640 656 633 b 621 650 622 633 622 642 b 350 940 613 713 582 940 b 167 758 242 940 167 856 b 307 582 167 678 221 603 l 485 539 b 693 258 601 511 693 397 "},"s":{"ha":547,"x_min":0,"x_max":0,"o":"m 500 178 b 276 -15 500 78 436 -15 b 124 44 247 -15 185 -14 b 96 13 99 18 99 15 b 61 -15 69 -14 68 -15 b 46 18 46 -15 46 -6 l 46 201 b 64 236 46 226 46 236 b 83 213 78 236 79 231 b 276 15 110 94 160 15 b 433 142 385 15 433 71 b 289 269 433 242 319 264 b 106 333 189 289 150 297 b 46 451 68 364 46 403 b 268 622 46 529 99 622 b 399 583 289 622 346 622 b 422 606 404 588 418 600 b 450 622 440 622 443 622 b 465 589 465 622 465 613 l 465 449 b 447 415 465 422 465 415 b 431 428 447 415 432 415 b 268 596 428 471 421 596 b 113 490 149 596 113 539 b 283 376 113 410 206 392 b 442 310 342 365 396 354 b 500 178 458 293 500 251 "},";":{"ha":386,"x_min":0,"x_max":0,"o":"m 267 525 b 193 451 267 485 233 451 b 119 525 153 451 119 485 b 193 599 119 565 153 599 b 267 525 233 599 267 565 m 271 4 b 156 -268 271 -157 171 -268 b 142 -253 149 -268 142 -262 b 151 -235 142 -249 142 -246 b 240 15 240 -132 240 -24 b 204 1 229 6 214 3 b 193 0 204 1 200 0 b 119 74 143 0 119 38 b 193 147 119 110 144 147 b 271 4 268 147 271 44 "},"/":{"ha":694,"x_min":0,"x_max":0,"o":"m 615 1014 b 608 989 615 1014 615 1007 l 135 -319 b 106 -347 131 -333 125 -347 b 78 -319 90 -347 78 -335 b 85 -294 78 -319 78 -312 l 558 1014 b 588 1042 563 1028 568 1042 b 615 1014 603 1042 615 1029 "}," ":{"ha":463,"x_min":0,"x_max":0,"o":""},"T":{"ha":1003,"x_min":0,"x_max":0,"o":"m 917 628 b 667 897 897 851 876 897 b 588 894 640 897 603 897 b 563 842 563 889 563 869 l 563 110 b 708 43 563 63 563 43 l 764 43 l 764 0 b 500 4 707 4 564 4 b 238 0 436 4 294 4 l 238 43 l 293 43 b 439 110 439 43 439 63 l 439 842 b 410 894 439 874 439 889 b 335 897 396 897 360 897 b 85 628 125 897 104 851 l 50 628 l 76 940 l 925 940 l 951 628 "},"t":{"ha":540,"x_min":0,"x_max":0,"o":"m 461 172 b 324 -15 461 83 422 -15 b 144 172 274 -15 144 1 l 144 556 l 26 556 l 26 586 b 206 854 163 592 204 740 l 240 854 l 240 599 l 439 599 l 439 556 l 240 556 l 240 169 b 333 19 240 146 240 19 b 426 175 385 19 426 72 l 426 251 l 461 251 l 461 172 "},"U":{"ha":1042,"x_min":0,"x_max":0,"o":"m 994 906 b 851 797 851 906 851 843 l 851 353 b 847 257 851 297 851 285 b 539 -31 824 99 699 -31 b 189 317 350 -31 189 121 l 189 840 b 79 906 189 890 186 906 l 46 906 l 46 949 b 251 944 94 944 199 944 b 456 949 304 944 407 944 l 456 906 l 422 906 b 313 840 315 906 313 890 l 313 311 b 542 13 313 47 476 13 b 808 321 674 13 808 124 l 808 803 b 665 906 808 840 808 906 l 665 949 l 831 944 l 994 949 l 994 906 "},"u":{"ha":772,"x_min":0,"x_max":0,"o":"m 543 -15 l 543 110 b 364 -15 503 24 442 -15 b 153 219 153 -15 153 111 l 153 428 b 44 556 153 551 153 556 l 44 599 l 249 614 l 249 153 b 371 15 249 81 254 15 b 539 231 472 15 539 110 l 539 478 b 431 556 539 546 528 556 l 431 599 l 635 614 l 635 121 b 743 43 635 53 646 43 l 743 0 "},"_":{"ha":1042,"x_min":0,"x_max":0,"o":"m 0 -192 l 0 -156 l 1042 -156 l 1042 -192 "},"V":{"ha":1042,"x_min":0,"x_max":0,"o":"m 1014 906 b 863 813 919 904 882 864 l 553 -4 b 519 -31 546 -24 543 -31 b 485 0 501 -31 494 -26 l 163 853 b 26 906 143 906 117 906 l 26 949 l 203 944 b 401 949 256 944 351 944 l 401 906 b 288 865 367 906 288 906 b 296 840 288 865 288 860 l 561 139 l 815 808 b 822 836 818 817 822 825 b 721 906 822 868 793 904 l 721 949 l 879 944 b 1014 949 915 944 971 946 l 1014 906 "},"v":{"ha":733,"x_min":0,"x_max":0,"o":"m 706 556 b 578 463 614 554 590 494 l 396 11 b 367 -15 390 -3 385 -15 b 338 11 349 -15 346 -8 l 138 504 b 26 556 119 547 114 556 l 26 599 b 161 594 68 596 124 594 l 313 599 l 313 556 b 233 519 288 556 233 556 b 242 496 233 519 233 514 l 397 108 l 539 463 b 547 496 544 478 547 483 b 481 556 547 522 532 554 l 481 599 l 601 594 b 706 599 633 594 674 596 l 706 556 "},"W":{"ha":1428,"x_min":0,"x_max":0,"o":"m 1401 906 b 1263 813 1347 906 1288 892 l 997 -3 b 969 -31 992 -21 989 -31 b 943 -4 951 -31 947 -17 l 713 703 l 483 -3 b 456 -31 478 -21 475 -31 b 429 -4 438 -31 433 -17 l 151 847 b 25 906 135 899 129 906 l 25 949 l 194 944 b 392 949 247 944 342 944 l 392 906 b 275 864 356 906 275 906 b 278 846 275 860 276 850 l 501 163 l 694 758 l 664 856 b 539 906 647 906 618 906 l 539 949 l 708 944 b 906 949 761 944 856 944 l 906 906 b 789 864 869 906 789 906 b 793 843 789 857 792 849 l 1015 163 l 1224 804 b 1231 832 1226 813 1231 824 b 1110 906 1231 858 1203 904 l 1110 949 l 1275 944 b 1401 949 1317 944 1360 946 l 1401 906 "},"w":{"ha":1003,"x_min":0,"x_max":0,"o":"m 976 556 b 860 467 928 554 885 536 l 697 11 b 669 -15 692 -3 688 -15 b 642 11 651 -15 647 -4 l 500 406 l 360 13 b 332 -15 353 -7 350 -15 b 303 15 314 -15 310 -4 l 128 507 b 25 556 111 551 94 556 l 25 599 l 154 594 l 306 599 l 306 556 b 224 518 278 556 224 556 b 231 493 224 513 224 510 l 363 122 l 482 458 b 450 535 472 485 457 526 b 363 556 436 553 414 556 l 363 599 b 486 594 404 596 444 594 l 631 599 l 631 556 b 549 518 603 556 549 556 b 556 492 549 511 550 508 l 693 104 l 819 460 b 826 489 826 478 826 481 b 746 556 826 529 796 554 l 746 599 l 875 594 b 976 599 906 594 946 596 l 976 556 "},"X":{"ha":1042,"x_min":0,"x_max":0,"o":"m 828 4 b 625 0 775 4 674 4 l 625 43 b 715 85 685 44 715 68 b 708 100 715 89 711 94 l 489 432 l 292 140 b 278 107 282 125 278 119 b 365 43 278 82 301 44 l 365 0 b 188 4 315 4 239 4 l 33 0 l 33 43 b 235 135 174 43 215 107 l 463 471 l 207 857 b 78 906 181 896 154 906 l 51 906 l 51 949 l 232 944 b 435 949 285 944 386 944 l 435 906 b 344 864 375 904 344 881 b 354 843 344 858 351 847 l 533 575 l 692 810 b 704 842 701 825 704 828 b 618 906 704 874 674 904 l 618 949 b 796 944 674 944 740 944 l 950 949 l 950 906 b 749 815 826 904 779 860 l 558 536 l 851 93 b 982 43 881 50 910 43 l 1008 43 l 1008 0 "},"x":{"ha":733,"x_min":0,"x_max":0,"o":"m 717 0 b 583 4 675 3 621 4 l 433 0 l 433 43 b 483 78 471 44 483 65 b 454 124 483 86 465 108 l 349 263 b 224 86 264 163 224 117 b 264 43 224 65 233 47 l 264 0 l 132 4 b 17 0 96 4 53 3 l 17 43 b 194 126 46 43 128 46 b 325 292 260 206 260 208 l 188 471 b 24 556 122 554 121 556 l 24 599 b 156 594 61 596 126 594 l 306 599 l 306 556 b 257 521 278 554 257 542 b 269 496 257 513 257 510 l 378 356 l 464 464 b 485 513 471 472 485 490 b 444 556 485 535 474 553 l 444 599 b 578 594 463 597 536 594 b 692 599 614 594 656 596 l 692 556 b 526 483 626 554 569 533 b 399 326 493 447 440 379 l 585 86 b 717 43 617 46 642 43 l 717 0 "},"Y":{"ha":1042,"x_min":0,"x_max":0,"o":"m 1025 906 b 847 815 981 906 899 900 l 579 379 l 579 111 b 690 43 579 57 583 43 l 722 43 l 722 0 b 519 4 672 4 574 4 b 317 0 465 4 367 4 l 317 43 l 350 43 b 460 108 457 43 460 58 l 460 379 l 168 854 b 40 906 146 890 135 906 l 15 906 l 15 949 l 196 944 b 401 949 250 944 351 944 l 401 906 b 304 871 339 906 304 900 b 314 847 304 864 304 861 l 565 438 l 794 810 b 808 851 800 818 808 836 b 729 906 808 879 786 906 l 729 949 l 889 944 b 1025 949 926 944 982 946 l 1025 906 "},"y":{"ha":733,"x_min":0,"x_max":0,"o":"m 706 556 b 576 467 683 556 613 554 l 332 -126 b 154 -285 299 -206 242 -285 b 26 -172 85 -285 26 -235 b 85 -112 26 -131 57 -112 b 143 -171 117 -112 143 -135 b 89 -229 143 -193 132 -224 b 154 -254 115 -254 147 -254 b 313 -82 243 -254 282 -158 l 347 0 l 139 507 b 26 556 119 556 93 556 l 26 599 b 161 594 68 596 124 594 l 313 599 l 313 556 b 235 519 286 556 235 556 b 243 494 235 514 238 508 l 397 121 l 538 463 b 546 496 544 479 546 482 b 481 556 546 531 524 554 l 481 599 l 601 594 b 706 599 633 594 674 596 l 706 556 "},"Z":{"ha":849,"x_min":0,"x_max":0,"o":"m 754 0 l 114 0 b 78 24 85 0 78 0 b 88 51 78 35 78 36 l 628 906 l 410 906 b 131 636 182 906 140 793 l 96 636 l 111 949 l 733 949 b 769 926 761 949 769 949 b 760 900 769 917 769 915 l 221 47 l 449 47 b 743 371 706 47 732 178 l 778 371 "},"z":{"ha":617,"x_min":0,"x_max":0,"o":"m 533 0 l 75 0 b 39 19 49 0 39 0 b 51 44 39 26 39 29 l 439 568 l 281 568 b 93 375 128 568 101 517 l 58 375 l 74 599 l 518 599 b 554 581 543 599 554 599 b 542 557 554 575 554 572 l 156 35 l 319 35 b 522 260 481 35 510 96 l 557 260 "},"ﬀ":{"ha":810,"x_min":0,"x_max":0,"o":"m 872 882 b 811 821 872 849 851 821 b 751 881 774 821 751 849 b 793 939 751 915 776 933 b 747 949 772 949 751 949 b 618 760 685 949 618 883 l 618 599 l 782 599 l 782 556 l 622 556 l 622 108 b 728 43 622 58 625 43 l 757 43 l 757 0 b 581 4 701 4 636 4 l 422 0 l 422 43 b 531 106 515 43 531 43 l 531 556 l 239 556 l 239 106 b 347 43 239 43 254 43 l 347 0 l 193 4 l 39 0 l 39 43 b 147 106 132 43 147 43 l 147 556 l 38 556 l 38 599 l 147 599 l 147 757 b 440 979 147 907 308 979 b 596 921 478 979 556 972 b 746 979 603 926 664 979 b 872 882 824 979 872 932 m 546 922 b 439 949 546 922 507 949 b 235 756 349 949 235 890 l 235 599 l 531 599 l 531 758 b 535 806 531 775 531 788 b 496 861 497 818 496 853 b 546 922 496 900 524 918 "},"ﬃ":{"ha":1157,"x_min":0,"x_max":0,"o":"m 963 4 l 808 0 l 808 43 b 917 106 901 43 917 43 l 917 481 b 843 556 917 538 907 556 l 624 556 l 624 106 b 732 43 624 43 639 43 l 732 0 l 578 4 l 424 0 l 424 43 b 532 106 517 43 532 43 l 532 556 l 239 556 l 239 106 b 347 43 239 43 254 43 l 347 0 l 193 4 l 39 0 l 39 43 b 147 106 132 43 147 43 l 147 556 l 38 556 l 38 599 l 147 599 l 147 757 b 440 979 147 908 310 979 b 600 903 510 979 568 951 b 826 979 625 924 704 979 b 1006 839 929 979 1006 921 b 942 775 1006 797 974 775 b 879 839 915 775 879 793 b 944 903 879 861 888 900 b 825 949 917 935 867 949 b 619 756 739 949 619 893 l 619 599 l 783 599 b 808 600 803 599 806 599 l 954 611 l 1008 615 l 1008 106 b 1117 43 1008 43 1024 43 l 1117 0 m 557 903 b 438 949 519 942 471 949 b 235 756 356 949 235 894 l 235 599 l 532 599 l 532 779 b 490 839 507 786 490 808 b 557 903 490 867 503 900 "},"ﬄ":{"ha":1157,"x_min":0,"x_max":0,"o":"m 963 4 l 808 0 l 808 43 b 917 106 901 43 917 43 l 917 556 l 624 556 l 624 106 b 732 43 624 43 639 43 l 732 0 l 578 4 l 424 0 l 424 43 b 532 106 517 43 532 43 l 532 556 l 239 556 l 239 106 b 347 43 239 43 254 43 l 347 0 l 193 4 l 39 0 l 39 43 b 147 106 132 43 147 43 l 147 556 l 38 556 l 38 599 l 147 599 l 147 757 b 442 979 147 906 306 979 b 606 907 499 979 576 964 b 829 979 657 949 732 979 b 946 960 844 979 901 979 b 958 956 951 957 953 956 l 1008 964 l 1008 106 b 1117 43 1008 43 1024 43 l 1117 0 m 547 922 b 440 949 511 944 464 949 b 235 756 347 949 235 890 l 235 599 l 532 599 l 532 757 b 536 806 532 772 532 790 b 497 861 506 817 497 840 b 547 922 497 907 533 919 m 917 826 b 882 881 893 835 882 856 b 917 936 882 917 904 931 b 828 949 878 949 840 949 b 619 756 725 949 619 885 l 619 599 l 917 599 "},"ﬁ":{"ha":772,"x_min":0,"x_max":0,"o":"m 578 4 l 424 0 l 424 43 b 532 106 517 43 532 43 l 532 481 b 458 556 532 538 522 556 l 239 556 l 239 106 b 347 43 239 43 254 43 l 347 0 l 193 4 l 39 0 l 39 43 b 147 106 132 43 147 43 l 147 556 l 38 556 l 38 599 l 147 599 l 147 757 b 442 979 147 908 313 979 b 621 839 544 979 621 921 b 557 775 621 797 589 775 b 494 839 531 775 494 793 b 560 903 494 861 503 900 b 440 949 532 935 482 949 b 235 756 354 949 235 893 l 235 599 l 399 599 b 424 600 418 599 421 599 b 449 603 424 600 426 601 l 624 615 l 624 106 b 732 43 624 43 639 43 l 732 0 "},"ﬂ":{"ha":772,"x_min":0,"x_max":0,"o":"m 578 4 l 424 0 l 424 43 b 532 106 517 43 532 43 l 532 556 l 239 556 l 239 106 b 347 43 239 43 254 43 l 347 0 l 193 4 l 39 0 l 39 43 b 147 106 132 43 147 43 l 147 556 l 38 556 l 38 599 l 147 599 l 147 757 b 444 979 147 901 299 979 b 561 960 460 979 517 979 b 574 956 567 957 568 956 l 624 964 l 624 106 b 732 43 624 43 639 43 l 732 0 m 532 826 b 497 881 508 835 497 856 b 532 936 497 917 519 931 b 443 949 493 949 456 949 b 235 756 340 949 235 885 l 235 599 l 532 599 "},"Á":{"ha":1042,"x_min":0,"x_max":0,"o":"m 814 4 b 614 0 761 4 664 4 l 614 43 b 729 85 651 43 729 43 b 725 104 729 90 726 99 l 651 317 l 308 317 l 244 135 b 242 114 243 132 242 118 b 346 43 242 78 276 43 l 346 0 l 186 4 l 44 0 l 44 43 b 200 136 119 44 175 65 l 488 967 b 521 994 494 986 499 994 b 553 967 543 994 546 985 l 853 99 b 971 43 868 53 888 43 l 996 43 l 996 0 m 479 811 l 324 360 l 636 360 m 711 1204 b 681 1167 708 1188 696 1174 l 444 1036 l 425 1065 l 626 1246 b 663 1263 632 1251 646 1263 b 711 1204 693 1263 717 1235 "},"á":{"ha":694,"x_min":0,"x_max":0,"o":"m 671 124 b 557 -8 671 11 586 -8 b 449 106 492 -8 454 50 b 267 -15 422 40 358 -15 b 44 132 179 -15 44 19 b 183 313 44 193 79 265 b 439 363 271 354 368 358 l 439 414 b 292 592 439 538 360 592 b 142 528 247 592 179 576 b 213 464 206 526 213 481 b 149 400 213 428 188 400 b 85 465 113 400 85 424 b 294 622 85 557 181 622 b 485 546 361 622 431 600 b 535 382 535 494 535 440 l 535 104 b 586 35 535 97 540 35 b 636 124 601 35 636 43 l 636 201 l 671 201 l 671 124 m 439 333 b 151 133 210 325 151 210 b 276 15 151 64 208 15 b 439 194 339 15 439 63 m 519 919 b 496 878 519 903 508 888 l 285 708 l 261 733 l 428 946 b 469 969 433 954 449 969 b 519 919 494 969 519 944 "},"Ă":{"ha":1042,"x_min":0,"x_max":0,"o":"m 814 4 b 614 0 761 4 664 4 l 614 43 b 729 85 651 43 729 43 b 725 104 729 90 726 99 l 651 317 l 308 317 l 244 135 b 242 114 243 132 242 118 b 346 43 242 78 276 43 l 346 0 l 186 4 l 44 0 l 44 43 b 200 136 119 44 175 65 l 488 967 b 521 994 494 986 499 994 b 553 967 543 994 546 985 l 853 99 b 971 43 868 53 888 43 l 996 43 l 996 0 m 479 811 l 324 360 l 636 360 m 729 1275 b 521 1036 726 1129 629 1036 b 314 1275 418 1036 317 1125 l 344 1275 b 522 1089 347 1157 435 1089 b 699 1275 604 1089 696 1154 l 729 1275 "},"ă":{"ha":694,"x_min":0,"x_max":0,"o":"m 671 124 b 557 -8 671 11 586 -8 b 449 106 492 -8 454 50 b 267 -15 422 40 358 -15 b 44 132 179 -15 44 19 b 183 313 44 193 79 265 b 439 363 271 354 368 358 l 439 414 b 292 592 439 538 360 592 b 142 528 247 592 179 576 b 213 464 206 526 213 481 b 149 400 213 428 188 400 b 85 465 113 400 85 424 b 294 622 85 557 181 622 b 485 546 361 622 431 600 b 535 382 535 494 535 440 l 535 104 b 586 35 535 97 540 35 b 636 124 601 35 636 43 l 636 201 l 671 201 l 671 124 m 439 333 b 151 133 210 325 151 210 b 276 15 151 64 208 15 b 439 194 339 15 439 63 m 556 958 b 347 719 553 813 456 719 b 140 958 244 719 143 808 l 171 958 b 349 772 174 840 261 772 b 525 958 431 772 522 838 l 556 958 "},"Ắ":{"ha":1042,"x_min":0,"x_max":0,"o":"m 814 4 b 614 0 761 4 664 4 l 614 43 b 729 85 651 43 729 43 b 725 104 729 90 726 99 l 651 317 l 308 317 l 244 135 b 242 114 243 132 242 118 b 346 43 242 78 276 43 l 346 0 l 186 4 l 44 0 l 44 43 b 200 136 119 44 175 65 l 488 967 b 521 994 494 986 499 994 b 553 967 543 994 546 985 l 853 99 b 971 43 868 53 888 43 l 996 43 l 996 0 m 479 811 l 324 360 l 636 360 m 729 1275 b 521 1036 726 1129 629 1036 b 314 1275 418 1036 317 1125 l 344 1275 b 522 1089 347 1157 435 1089 b 699 1275 604 1089 696 1154 l 729 1275 m 664 1471 b 633 1433 661 1454 649 1440 l 397 1303 l 378 1332 l 579 1513 b 615 1529 585 1518 599 1529 b 664 1471 646 1529 669 1501 "},"ắ":{"ha":694,"x_min":0,"x_max":0,"o":"m 671 124 b 557 -8 671 11 586 -8 b 449 106 492 -8 454 50 b 267 -15 422 40 358 -15 b 44 132 179 -15 44 19 b 183 313 44 193 79 265 b 439 363 271 354 368 358 l 439 414 b 292 592 439 538 360 592 b 142 528 247 592 179 576 b 213 464 206 526 213 481 b 149 400 213 428 188 400 b 85 465 113 400 85 424 b 294 622 85 557 181 622 b 485 546 361 622 431 600 b 535 382 535 494 535 440 l 535 104 b 586 35 535 97 540 35 b 636 124 601 35 636 43 l 636 201 l 671 201 l 671 124 m 439 333 b 151 133 210 325 151 210 b 276 15 151 64 208 15 b 439 194 339 15 439 63 m 556 958 b 347 719 553 813 456 719 b 140 958 244 719 143 808 l 171 958 b 349 772 174 840 261 772 b 525 958 431 772 522 838 l 556 958 m 490 1154 b 460 1117 488 1138 475 1124 l 224 986 l 204 1015 l 406 1196 b 442 1213 411 1201 425 1213 b 490 1154 472 1213 496 1185 "},"Ặ":{"ha":1042,"x_min":0,"x_max":0,"o":"m 814 4 b 614 0 761 4 664 4 l 614 43 b 729 85 651 43 729 43 b 725 104 729 90 726 99 l 651 317 l 308 317 l 244 135 b 242 114 243 132 242 118 b 346 43 242 78 276 43 l 346 0 l 186 4 l 44 0 l 44 43 b 200 136 119 44 175 65 l 488 967 b 521 994 494 986 499 994 b 553 967 543 994 546 985 l 853 99 b 971 43 868 53 888 43 l 996 43 l 996 0 m 479 811 l 324 360 l 636 360 m 729 1275 b 521 1036 726 1129 629 1036 b 314 1275 418 1036 317 1125 l 344 1275 b 522 1089 347 1157 435 1089 b 699 1275 604 1089 696 1154 l 729 1275 m 594 -204 b 519 -278 594 -239 567 -278 b 446 -204 478 -278 446 -242 b 521 -131 446 -169 474 -131 b 594 -204 563 -131 594 -167 "},"ặ":{"ha":694,"x_min":0,"x_max":0,"o":"m 671 124 b 557 -8 671 11 586 -8 b 449 106 492 -8 454 50 b 267 -15 422 40 358 -15 b 44 132 179 -15 44 19 b 183 313 44 193 79 265 b 439 363 271 354 368 358 l 439 414 b 292 592 439 538 360 592 b 142 528 247 592 179 576 b 213 464 206 526 213 481 b 149 400 213 428 188 400 b 85 465 113 400 85 424 b 294 622 85 557 181 622 b 485 546 361 622 431 600 b 535 382 535 494 535 440 l 535 104 b 586 35 535 97 540 35 b 636 124 601 35 636 43 l 636 201 l 671 201 l 671 124 m 439 333 b 151 133 210 325 151 210 b 276 15 151 64 208 15 b 439 194 339 15 439 63 m 556 958 b 347 719 553 813 456 719 b 140 958 244 719 143 808 l 171 958 b 349 772 174 840 261 772 b 525 958 431 772 522 838 l 556 958 m 421 -204 b 346 -278 421 -239 393 -278 b 272 -204 304 -278 272 -242 b 347 -131 272 -169 300 -131 b 421 -204 389 -131 421 -167 "},"Ằ":{"ha":1042,"x_min":0,"x_max":0,"o":"m 814 4 b 614 0 761 4 664 4 l 614 43 b 729 85 651 43 729 43 b 725 104 729 90 726 99 l 651 317 l 308 317 l 244 135 b 242 114 243 132 242 118 b 346 43 242 78 276 43 l 346 0 l 186 4 l 44 0 l 44 43 b 200 136 119 44 175 65 l 488 967 b 521 994 494 986 499 994 b 553 967 543 994 546 985 l 853 99 b 971 43 868 53 888 43 l 996 43 l 996 0 m 479 811 l 324 360 l 636 360 m 729 1275 b 521 1036 726 1129 629 1036 b 314 1275 418 1036 317 1125 l 344 1275 b 522 1089 347 1157 435 1089 b 699 1275 604 1089 696 1154 l 729 1275 m 464 1513 b 428 1529 458 1518 444 1529 b 379 1471 397 1529 374 1501 b 410 1433 382 1454 394 1440 l 646 1303 l 665 1332 "},"ằ":{"ha":694,"x_min":0,"x_max":0,"o":"m 671 124 b 557 -8 671 11 586 -8 b 449 106 492 -8 454 50 b 267 -15 422 40 358 -15 b 44 132 179 -15 44 19 b 183 313 44 193 79 265 b 439 363 271 354 368 358 l 439 414 b 292 592 439 538 360 592 b 142 528 247 592 179 576 b 213 464 206 526 213 481 b 149 400 213 428 188 400 b 85 465 113 400 85 424 b 294 622 85 557 181 622 b 485 546 361 622 431 600 b 535 382 535 494 535 440 l 535 104 b 586 35 535 97 540 35 b 636 124 601 35 636 43 l 636 201 l 671 201 l 671 124 m 439 333 b 151 133 210 325 151 210 b 276 15 151 64 208 15 b 439 194 339 15 439 63 m 556 958 b 347 719 553 813 456 719 b 140 958 244 719 143 808 l 171 958 b 349 772 174 840 261 772 b 525 958 431 772 522 838 l 556 958 m 290 1196 b 254 1213 285 1201 271 1213 b 206 1154 224 1213 200 1185 b 236 1117 208 1138 221 1124 l 472 986 l 492 1015 "},"Ẳ":{"ha":1042,"x_min":0,"x_max":0,"o":"m 814 4 b 614 0 761 4 664 4 l 614 43 b 729 85 651 43 729 43 b 725 104 729 90 726 99 l 651 317 l 308 317 l 244 135 b 242 114 243 132 242 118 b 346 43 242 78 276 43 l 346 0 l 186 4 l 44 0 l 44 43 b 200 136 119 44 175 65 l 488 967 b 521 994 494 986 499 994 b 553 967 543 994 546 985 l 853 99 b 971 43 868 53 888 43 l 996 43 l 996 0 m 479 811 l 324 360 l 636 360 m 729 1275 b 521 1036 726 1129 629 1036 b 314 1275 418 1036 317 1125 l 344 1275 b 522 1089 347 1157 435 1089 b 699 1275 604 1089 696 1154 l 729 1275 m 657 1472 b 615 1413 657 1446 640 1424 b 526 1315 560 1385 526 1354 l 526 1289 b 513 1275 526 1281 521 1275 b 499 1289 506 1275 499 1281 l 499 1315 b 565 1435 499 1361 526 1403 b 582 1472 576 1443 582 1457 b 571 1521 582 1499 581 1513 b 513 1539 556 1535 533 1539 b 435 1514 481 1539 453 1529 b 469 1472 454 1511 469 1496 b 429 1432 469 1447 450 1432 b 388 1474 407 1432 388 1447 b 513 1565 388 1531 447 1565 b 617 1543 553 1565 588 1560 b 657 1472 642 1528 657 1501 "},"ẳ":{"ha":694,"x_min":0,"x_max":0,"o":"m 671 124 b 557 -8 671 11 586 -8 b 449 106 492 -8 454 50 b 267 -15 422 40 358 -15 b 44 132 179 -15 44 19 b 183 313 44 193 79 265 b 439 363 271 354 368 358 l 439 414 b 292 592 439 538 360 592 b 142 528 247 592 179 576 b 213 464 206 526 213 481 b 149 400 213 428 188 400 b 85 465 113 400 85 424 b 294 622 85 557 181 622 b 485 546 361 622 431 600 b 535 382 535 494 535 440 l 535 104 b 586 35 535 97 540 35 b 636 124 601 35 636 43 l 636 201 l 671 201 l 671 124 m 439 333 b 151 133 210 325 151 210 b 276 15 151 64 208 15 b 439 194 339 15 439 63 m 556 958 b 347 719 553 813 456 719 b 140 958 244 719 143 808 l 171 958 b 349 772 174 840 261 772 b 525 958 431 772 522 838 l 556 958 m 483 1156 b 442 1096 483 1129 467 1107 b 353 999 386 1068 353 1038 l 353 972 b 339 958 353 964 347 958 b 325 972 332 958 325 964 l 325 999 b 392 1118 325 1044 353 1086 b 408 1156 403 1126 408 1140 b 397 1204 408 1182 407 1196 b 339 1222 382 1218 360 1222 b 261 1197 307 1222 279 1213 b 296 1156 281 1194 296 1179 b 256 1115 296 1131 276 1115 b 214 1157 233 1115 214 1131 b 339 1249 214 1214 274 1249 b 443 1226 379 1249 414 1243 b 483 1156 468 1211 483 1185 "},"Ẵ":{"ha":1042,"x_min":0,"x_max":0,"o":"m 814 4 b 614 0 761 4 664 4 l 614 43 b 729 85 651 43 729 43 b 725 104 729 90 726 99 l 651 317 l 308 317 l 244 135 b 242 114 243 132 242 118 b 346 43 242 78 276 43 l 346 0 l 186 4 l 44 0 l 44 43 b 200 136 119 44 175 65 l 488 967 b 521 994 494 986 499 994 b 553 967 543 994 546 985 l 853 99 b 971 43 868 53 888 43 l 996 43 l 996 0 m 479 811 l 324 360 l 636 360 m 729 1275 b 521 1036 726 1129 629 1036 b 314 1275 418 1036 317 1125 l 344 1275 b 522 1089 347 1157 435 1089 b 699 1275 604 1089 696 1154 l 729 1275 m 753 1439 b 603 1331 682 1361 656 1331 b 517 1363 579 1331 554 1340 b 426 1397 493 1376 458 1397 b 313 1331 365 1397 313 1331 l 290 1351 b 440 1460 361 1429 388 1460 b 526 1428 464 1460 489 1450 b 617 1393 550 1414 585 1393 b 731 1460 678 1393 731 1460 l 753 1439 "},"ẵ":{"ha":694,"x_min":0,"x_max":0,"o":"m 671 124 b 557 -8 671 11 586 -8 b 449 106 492 -8 454 50 b 267 -15 422 40 358 -15 b 44 132 179 -15 44 19 b 183 313 44 193 79 265 b 439 363 271 354 368 358 l 439 414 b 292 592 439 538 360 592 b 142 528 247 592 179 576 b 213 464 206 526 213 481 b 149 400 213 428 188 400 b 85 465 113 400 85 424 b 294 622 85 557 181 622 b 485 546 361 622 431 600 b 535 382 535 494 535 440 l 535 104 b 586 35 535 97 540 35 b 636 124 601 35 636 43 l 636 201 l 671 201 l 671 124 m 439 333 b 151 133 210 325 151 210 b 276 15 151 64 208 15 b 439 194 339 15 439 63 m 556 958 b 347 719 553 813 456 719 b 140 958 244 719 143 808 l 171 958 b 349 772 174 840 261 772 b 525 958 431 772 522 838 l 556 958 m 579 1122 b 429 1014 508 1044 482 1014 b 343 1046 406 1014 381 1024 b 253 1081 319 1060 285 1081 b 139 1014 192 1081 139 1014 l 117 1035 b 267 1143 188 1113 214 1143 b 353 1111 290 1143 315 1133 b 443 1076 376 1097 411 1076 b 557 1143 504 1076 557 1143 l 579 1122 "},"Ǎ":{"ha":1042,"x_min":0,"x_max":0,"o":"m 814 4 b 614 0 761 4 664 4 l 614 43 b 729 85 651 43 729 43 b 725 104 729 90 726 99 l 651 317 l 308 317 l 244 135 b 242 114 243 132 242 118 b 346 43 242 78 276 43 l 346 0 l 186 4 l 44 0 l 44 43 b 200 136 119 44 175 65 l 488 967 b 521 994 494 986 499 994 b 553 967 543 994 546 985 l 853 99 b 971 43 868 53 888 43 l 996 43 l 996 0 m 479 811 l 324 360 l 636 360 m 521 1022 l 311 1185 l 328 1207 l 522 1115 l 717 1207 l 731 1185 "},"ǎ":{"ha":694,"x_min":0,"x_max":0,"o":"m 671 124 b 557 -8 671 11 586 -8 b 449 106 492 -8 454 50 b 267 -15 422 40 358 -15 b 44 132 179 -15 44 19 b 183 313 44 193 79 265 b 439 363 271 354 368 358 l 439 414 b 292 592 439 538 360 592 b 142 528 247 592 179 576 b 213 464 206 526 213 481 b 149 400 213 428 188 400 b 85 465 113 400 85 424 b 294 622 85 557 181 622 b 485 546 361 622 431 600 b 535 382 535 494 535 440 l 535 104 b 586 35 535 97 540 35 b 636 124 601 35 636 43 l 636 201 l 671 201 l 671 124 m 439 333 b 151 133 210 325 151 210 b 276 15 151 64 208 15 b 439 194 339 15 439 63 m 347 717 l 136 942 l 154 961 l 347 811 l 540 961 l 558 942 "},"Â":{"ha":1042,"x_min":0,"x_max":0,"o":"m 814 4 b 614 0 761 4 664 4 l 614 43 b 729 85 651 43 729 43 b 725 104 729 90 726 99 l 651 317 l 308 317 l 244 135 b 242 114 243 132 242 118 b 346 43 242 78 276 43 l 346 0 l 186 4 l 44 0 l 44 43 b 200 136 119 44 175 65 l 488 967 b 521 994 494 986 499 994 b 553 967 543 994 546 985 l 853 99 b 971 43 868 53 888 43 l 996 43 l 996 0 m 479 811 l 324 360 l 636 360 m 714 1022 l 519 1114 l 325 1022 l 311 1044 l 521 1207 l 731 1044 "},"â":{"ha":694,"x_min":0,"x_max":0,"o":"m 671 124 b 557 -8 671 11 586 -8 b 449 106 492 -8 454 50 b 267 -15 422 40 358 -15 b 44 132 179 -15 44 19 b 183 313 44 193 79 265 b 439 363 271 354 368 358 l 439 414 b 292 592 439 538 360 592 b 142 528 247 592 179 576 b 213 464 206 526 213 481 b 149 400 213 428 188 400 b 85 465 113 400 85 424 b 294 622 85 557 181 622 b 485 546 361 622 431 600 b 535 382 535 494 535 440 l 535 104 b 586 35 535 97 540 35 b 636 124 601 35 636 43 l 636 201 l 671 201 l 671 124 m 439 333 b 151 133 210 325 151 210 b 276 15 151 64 208 15 b 439 194 339 15 439 63 m 540 717 l 347 867 l 154 717 l 136 736 l 347 961 l 558 736 "},"Ấ":{"ha":1042,"x_min":0,"x_max":0,"o":"m 814 4 b 614 0 761 4 664 4 l 614 43 b 729 85 651 43 729 43 b 725 104 729 90 726 99 l 651 317 l 308 317 l 244 135 b 242 114 243 132 242 118 b 346 43 242 78 276 43 l 346 0 l 186 4 l 44 0 l 44 43 b 200 136 119 44 175 65 l 488 967 b 521 994 494 986 499 994 b 553 967 543 994 546 985 l 853 99 b 971 43 868 53 888 43 l 996 43 l 996 0 m 479 811 l 324 360 l 636 360 m 714 1022 l 519 1114 l 325 1022 l 311 1044 l 521 1207 l 731 1044 m 664 1403 b 633 1365 661 1386 649 1372 l 397 1235 l 378 1264 l 579 1444 b 615 1461 585 1450 599 1461 b 664 1403 646 1461 669 1433 "},"ấ":{"ha":694,"x_min":0,"x_max":0,"o":"m 671 124 b 557 -8 671 11 586 -8 b 449 106 492 -8 454 50 b 267 -15 422 40 358 -15 b 44 132 179 -15 44 19 b 183 313 44 193 79 265 b 439 363 271 354 368 358 l 439 414 b 292 592 439 538 360 592 b 142 528 247 592 179 576 b 213 464 206 526 213 481 b 149 400 213 428 188 400 b 85 465 113 400 85 424 b 294 622 85 557 181 622 b 485 546 361 622 431 600 b 535 382 535 494 535 440 l 535 104 b 586 35 535 97 540 35 b 636 124 601 35 636 43 l 636 201 l 671 201 l 671 124 m 439 333 b 151 133 210 325 151 210 b 276 15 151 64 208 15 b 439 194 339 15 439 63 m 540 717 l 346 808 l 151 717 l 138 739 l 347 901 l 557 739 m 490 1097 b 460 1060 488 1081 475 1067 l 224 929 l 204 958 l 406 1139 b 442 1156 411 1144 425 1156 b 490 1097 472 1156 496 1128 "},"Ậ":{"ha":1042,"x_min":0,"x_max":0,"o":"m 814 4 b 614 0 761 4 664 4 l 614 43 b 729 85 651 43 729 43 b 725 104 729 90 726 99 l 651 317 l 308 317 l 244 135 b 242 114 243 132 242 118 b 346 43 242 78 276 43 l 346 0 l 186 4 l 44 0 l 44 43 b 200 136 119 44 175 65 l 488 967 b 521 994 494 986 499 994 b 553 967 543 994 546 985 l 853 99 b 971 43 868 53 888 43 l 996 43 l 996 0 m 479 811 l 324 360 l 636 360 m 714 1022 l 519 1114 l 325 1022 l 311 1044 l 521 1207 l 731 1044 m 594 -204 b 519 -278 594 -239 567 -278 b 446 -204 478 -278 446 -242 b 521 -131 446 -169 474 -131 b 594 -204 563 -131 594 -167 "},"ậ":{"ha":694,"x_min":0,"x_max":0,"o":"m 671 124 b 557 -8 671 11 586 -8 b 449 106 492 -8 454 50 b 267 -15 422 40 358 -15 b 44 132 179 -15 44 19 b 183 313 44 193 79 265 b 439 363 271 354 368 358 l 439 414 b 292 592 439 538 360 592 b 142 528 247 592 179 576 b 213 464 206 526 213 481 b 149 400 213 428 188 400 b 85 465 113 400 85 424 b 294 622 85 557 181 622 b 485 546 361 622 431 600 b 535 382 535 494 535 440 l 535 104 b 586 35 535 97 540 35 b 636 124 601 35 636 43 l 636 201 l 671 201 l 671 124 m 439 333 b 151 133 210 325 151 210 b 276 15 151 64 208 15 b 439 194 339 15 439 63 m 540 717 l 347 867 l 154 717 l 136 736 l 347 961 l 558 736 m 421 -204 b 346 -278 421 -239 393 -278 b 272 -204 304 -278 272 -242 b 347 -131 272 -169 300 -131 b 421 -204 389 -131 421 -167 "},"Ầ":{"ha":1042,"x_min":0,"x_max":0,"o":"m 814 4 b 614 0 761 4 664 4 l 614 43 b 729 85 651 43 729 43 b 725 104 729 90 726 99 l 651 317 l 308 317 l 244 135 b 242 114 243 132 242 118 b 346 43 242 78 276 43 l 346 0 l 186 4 l 44 0 l 44 43 b 200 136 119 44 175 65 l 488 967 b 521 994 494 986 499 994 b 553 967 543 994 546 985 l 853 99 b 971 43 868 53 888 43 l 996 43 l 996 0 m 479 811 l 324 360 l 636 360 m 714 1022 l 519 1114 l 325 1022 l 311 1044 l 521 1207 l 731 1044 m 463 1444 b 426 1461 457 1450 443 1461 b 378 1403 396 1461 372 1433 b 408 1365 381 1386 393 1372 l 644 1235 l 664 1264 "},"ầ":{"ha":694,"x_min":0,"x_max":0,"o":"m 671 124 b 557 -8 671 11 586 -8 b 449 106 492 -8 454 50 b 267 -15 422 40 358 -15 b 44 132 179 -15 44 19 b 183 313 44 193 79 265 b 439 363 271 354 368 358 l 439 414 b 292 592 439 538 360 592 b 142 528 247 592 179 576 b 213 464 206 526 213 481 b 149 400 213 428 188 400 b 85 465 113 400 85 424 b 294 622 85 557 181 622 b 485 546 361 622 431 600 b 535 382 535 494 535 440 l 535 104 b 586 35 535 97 540 35 b 636 124 601 35 636 43 l 636 201 l 671 201 l 671 124 m 439 333 b 151 133 210 325 151 210 b 276 15 151 64 208 15 b 439 194 339 15 439 63 m 540 717 l 346 808 l 151 717 l 138 739 l 347 901 l 557 739 m 289 1139 b 253 1156 283 1144 269 1156 b 204 1097 222 1156 199 1128 b 235 1060 207 1081 219 1067 l 471 929 l 490 958 "},"Ẩ":{"ha":1042,"x_min":0,"x_max":0,"o":"m 814 4 b 614 0 761 4 664 4 l 614 43 b 729 85 651 43 729 43 b 725 104 729 90 726 99 l 651 317 l 308 317 l 244 135 b 242 114 243 132 242 118 b 346 43 242 78 276 43 l 346 0 l 186 4 l 44 0 l 44 43 b 200 136 119 44 175 65 l 488 967 b 521 994 494 986 499 994 b 553 967 543 994 546 985 l 853 99 b 971 43 868 53 888 43 l 996 43 l 996 0 m 479 811 l 324 360 l 636 360 m 714 1022 l 519 1114 l 325 1022 l 311 1044 l 521 1207 l 731 1044 m 790 1404 b 749 1344 790 1378 774 1356 b 660 1247 693 1317 660 1286 l 660 1221 b 646 1207 660 1213 654 1207 b 632 1221 639 1207 632 1213 l 632 1247 b 699 1367 632 1293 660 1335 b 715 1404 710 1375 715 1389 b 704 1453 715 1431 714 1444 b 646 1471 689 1467 667 1471 b 568 1446 614 1471 586 1461 b 603 1404 588 1443 603 1428 b 563 1364 603 1379 583 1364 b 521 1406 540 1364 521 1379 b 646 1497 521 1463 581 1497 b 750 1475 686 1497 721 1492 b 790 1404 775 1460 790 1433 "},"ẩ":{"ha":694,"x_min":0,"x_max":0,"o":"m 671 124 b 557 -8 671 11 586 -8 b 449 106 492 -8 454 50 b 267 -15 422 40 358 -15 b 44 132 179 -15 44 19 b 183 313 44 193 79 265 b 439 363 271 354 368 358 l 439 414 b 292 592 439 538 360 592 b 142 528 247 592 179 576 b 213 464 206 526 213 481 b 149 400 213 428 188 400 b 85 465 113 400 85 424 b 294 622 85 557 181 622 b 485 546 361 622 431 600 b 535 382 535 494 535 440 l 535 104 b 586 35 535 97 540 35 b 636 124 601 35 636 43 l 636 201 l 671 201 l 671 124 m 439 333 b 151 133 210 325 151 210 b 276 15 151 64 208 15 b 439 194 339 15 439 63 m 540 717 l 346 808 l 151 717 l 138 739 l 347 901 l 557 739 m 617 1099 b 575 1039 617 1072 600 1050 b 486 942 519 1011 486 981 l 486 915 b 472 901 486 907 481 901 b 458 915 465 901 458 907 l 458 942 b 525 1061 458 988 486 1029 b 542 1099 536 1069 542 1083 b 531 1147 542 1125 540 1139 b 472 1165 515 1161 493 1165 b 394 1140 440 1165 413 1156 b 429 1099 414 1138 429 1122 b 389 1058 429 1074 410 1058 b 347 1100 367 1058 347 1074 b 472 1192 347 1157 407 1192 b 576 1169 513 1192 547 1186 b 617 1099 601 1154 617 1128 "},"Ẫ":{"ha":1042,"x_min":0,"x_max":0,"o":"m 814 4 b 614 0 761 4 664 4 l 614 43 b 729 85 651 43 729 43 b 725 104 729 90 726 99 l 651 317 l 308 317 l 244 135 b 242 114 243 132 242 118 b 346 43 242 78 276 43 l 346 0 l 186 4 l 44 0 l 44 43 b 200 136 119 44 175 65 l 488 967 b 521 994 494 986 499 994 b 553 967 543 994 546 985 l 853 99 b 971 43 868 53 888 43 l 996 43 l 996 0 m 479 811 l 324 360 l 636 360 m 714 1022 l 519 1114 l 325 1022 l 311 1044 l 521 1207 l 731 1044 m 753 1371 b 603 1263 682 1293 656 1263 b 517 1294 579 1263 554 1272 b 426 1329 493 1308 458 1329 b 313 1263 365 1329 313 1263 l 290 1283 b 440 1392 361 1361 388 1392 b 526 1360 464 1392 489 1382 b 617 1325 550 1346 585 1325 b 731 1392 678 1325 731 1392 l 753 1371 "},"ẫ":{"ha":694,"x_min":0,"x_max":0,"o":"m 671 124 b 557 -8 671 11 586 -8 b 449 106 492 -8 454 50 b 267 -15 422 40 358 -15 b 44 132 179 -15 44 19 b 183 313 44 193 79 265 b 439 363 271 354 368 358 l 439 414 b 292 592 439 538 360 592 b 142 528 247 592 179 576 b 213 464 206 526 213 481 b 149 400 213 428 188 400 b 85 465 113 400 85 424 b 294 622 85 557 181 622 b 485 546 361 622 431 600 b 535 382 535 494 535 440 l 535 104 b 586 35 535 97 540 35 b 636 124 601 35 636 43 l 636 201 l 671 201 l 671 124 m 439 333 b 151 133 210 325 151 210 b 276 15 151 64 208 15 b 439 194 339 15 439 63 m 540 717 l 346 808 l 151 717 l 138 739 l 347 901 l 557 739 m 579 1065 b 429 957 508 988 482 957 b 343 989 406 957 381 967 b 253 1024 319 1003 285 1024 b 139 957 192 1024 139 957 l 117 978 b 267 1086 188 1056 214 1086 b 353 1054 290 1086 315 1076 b 443 1019 376 1040 411 1019 b 557 1086 504 1019 557 1086 l 579 1065 "},"´":{"ha":694,"x_min":0,"x_max":0,"o":"m 519 919 b 496 878 519 903 508 888 l 285 708 l 261 733 l 428 946 b 469 969 433 954 449 969 b 519 919 494 969 519 944 "},"́":{"ha":0,"x_min":0,"x_max":0,"o":"m -175 919 b -199 878 -175 903 -186 888 l -410 708 l -433 733 l -267 946 b -225 969 -261 954 -246 969 b -175 919 -200 969 -175 944 "},"Ȁ":{"ha":1042,"x_min":0,"x_max":0,"o":"m 814 4 b 614 0 761 4 664 4 l 614 43 b 729 85 651 43 729 43 b 725 104 729 90 726 99 l 651 317 l 308 317 l 244 135 b 242 114 243 132 242 118 b 346 43 242 78 276 43 l 346 0 l 186 4 l 44 0 l 44 43 b 200 136 119 44 175 65 l 488 967 b 521 994 494 986 499 994 b 553 967 543 994 546 985 l 853 99 b 971 43 868 53 888 43 l 996 43 l 996 0 m 479 811 l 324 360 l 636 360 m 651 1053 b 622 1036 646 1049 625 1038 l 494 1211 b 478 1247 482 1228 478 1233 b 529 1294 478 1272 503 1294 b 576 1254 561 1294 569 1271 l 651 1053 m 419 1053 b 390 1036 414 1049 393 1038 l 263 1211 b 246 1247 250 1228 246 1233 b 297 1294 246 1272 271 1294 b 344 1254 329 1294 338 1271 l 419 1053 "},"ȁ":{"ha":694,"x_min":0,"x_max":0,"o":"m 671 124 b 557 -8 671 11 586 -8 b 449 106 492 -8 454 50 b 267 -15 422 40 358 -15 b 44 132 179 -15 44 19 b 183 313 44 193 79 265 b 439 363 271 354 368 358 l 439 414 b 292 592 439 538 360 592 b 142 528 247 592 179 576 b 213 464 206 526 213 481 b 149 400 213 428 188 400 b 85 465 113 400 85 424 b 294 622 85 557 181 622 b 485 546 361 622 431 600 b 535 382 535 494 535 440 l 535 104 b 586 35 535 97 540 35 b 636 124 601 35 636 43 l 636 201 l 671 201 l 671 124 m 439 333 b 151 133 210 325 151 210 b 276 15 151 64 208 15 b 439 194 339 15 439 63 m 517 726 b 488 710 511 722 490 711 l 360 885 b 343 921 347 901 343 907 b 394 968 343 946 368 968 b 442 928 426 968 435 944 l 517 726 m 285 726 b 256 710 279 722 258 711 l 128 885 b 111 921 115 901 111 907 b 163 968 111 946 136 968 b 210 928 194 968 203 944 l 285 726 "},"Ä":{"ha":1042,"x_min":0,"x_max":0,"o":"m 814 4 b 614 0 761 4 664 4 l 614 43 b 729 85 651 43 729 43 b 725 104 729 90 726 99 l 651 317 l 308 317 l 244 135 b 242 114 243 132 242 118 b 346 43 242 78 276 43 l 346 0 l 186 4 l 44 0 l 44 43 b 200 136 119 44 175 65 l 488 967 b 521 994 494 986 499 994 b 553 967 543 994 546 985 l 853 99 b 971 43 868 53 888 43 l 996 43 l 996 0 m 479 811 l 324 360 l 636 360 m 443 1089 b 375 1022 443 1057 418 1022 b 308 1089 338 1022 308 1054 b 376 1154 308 1119 333 1154 b 443 1089 414 1154 443 1122 m 735 1089 b 667 1022 735 1057 710 1022 b 600 1089 629 1022 600 1054 b 668 1154 600 1119 625 1154 b 735 1089 706 1154 735 1122 "},"ä":{"ha":694,"x_min":0,"x_max":0,"o":"m 671 124 b 557 -8 671 11 586 -8 b 449 106 492 -8 454 50 b 267 -15 422 40 358 -15 b 44 132 179 -15 44 19 b 183 313 44 193 79 265 b 439 363 271 354 368 358 l 439 414 b 292 592 439 538 360 592 b 142 528 247 592 179 576 b 213 464 206 526 213 481 b 149 400 213 428 188 400 b 85 465 113 400 85 424 b 294 622 85 557 181 622 b 485 546 361 622 431 600 b 535 382 535 494 535 440 l 535 104 b 586 35 535 97 540 35 b 636 124 601 35 636 43 l 636 201 l 671 201 l 671 124 m 439 333 b 151 133 210 325 151 210 b 276 15 151 64 208 15 b 439 194 339 15 439 63 m 292 840 b 224 774 292 808 267 774 b 157 840 186 774 157 806 b 225 906 157 871 182 906 b 292 840 263 906 292 874 m 539 840 b 471 774 539 808 514 774 b 404 840 433 774 404 806 b 472 906 404 871 429 906 b 539 840 510 906 539 874 "},"Ạ":{"ha":1042,"x_min":0,"x_max":0,"o":"m 814 4 b 614 0 761 4 664 4 l 614 43 b 729 85 651 43 729 43 b 725 104 729 90 726 99 l 651 317 l 308 317 l 244 135 b 242 114 243 132 242 118 b 346 43 242 78 276 43 l 346 0 l 186 4 l 44 0 l 44 43 b 200 136 119 44 175 65 l 488 967 b 521 994 494 986 499 994 b 553 967 543 994 546 985 l 853 99 b 971 43 868 53 888 43 l 996 43 l 996 0 m 479 811 l 324 360 l 636 360 m 594 -204 b 519 -278 594 -239 567 -278 b 446 -204 478 -278 446 -242 b 521 -131 446 -169 474 -131 b 594 -204 563 -131 594 -167 "},"ạ":{"ha":694,"x_min":0,"x_max":0,"o":"m 671 124 b 557 -8 671 11 586 -8 b 449 106 492 -8 454 50 b 267 -15 422 40 358 -15 b 44 132 179 -15 44 19 b 183 313 44 193 79 265 b 439 363 271 354 368 358 l 439 414 b 292 592 439 538 360 592 b 142 528 247 592 179 576 b 213 464 206 526 213 481 b 149 400 213 428 188 400 b 85 465 113 400 85 424 b 294 622 85 557 181 622 b 485 546 361 622 431 600 b 535 382 535 494 535 440 l 535 104 b 586 35 535 97 540 35 b 636 124 601 35 636 43 l 636 201 l 671 201 l 671 124 m 439 333 b 151 133 210 325 151 210 b 276 15 151 64 208 15 b 439 194 339 15 439 63 m 421 -204 b 346 -278 421 -239 393 -278 b 272 -204 304 -278 272 -242 b 347 -131 272 -169 300 -131 b 421 -204 389 -131 421 -167 "},"Æ":{"ha":1254,"x_min":0,"x_max":0,"o":"m 1156 0 l 471 0 l 471 43 b 578 106 563 43 578 43 l 578 435 l 354 435 l 250 143 b 243 113 243 125 243 124 b 346 43 243 78 276 44 l 346 0 l 186 4 b 44 0 131 4 75 1 l 44 43 b 201 136 142 43 182 82 l 476 904 b 421 906 458 904 439 906 l 358 906 l 358 949 l 1136 949 l 1175 636 l 1140 636 b 893 906 1118 825 1090 906 l 761 906 b 693 850 696 906 693 896 l 693 478 l 811 478 b 954 640 942 478 954 524 l 989 640 l 989 272 l 954 272 b 811 435 954 389 942 435 l 693 435 l 693 99 b 761 43 693 53 696 43 l 893 43 b 1179 358 1126 43 1144 153 l 1214 358 m 578 839 b 521 900 578 861 578 899 l 369 478 l 578 478 "},"æ":{"ha":1003,"x_min":0,"x_max":0,"o":"m 963 165 b 747 -15 963 139 904 -15 b 515 108 706 -15 597 -4 b 283 -15 482 40 396 -15 b 63 128 190 -15 63 18 b 453 347 63 261 228 347 l 453 414 b 306 592 453 535 376 592 b 156 528 256 592 190 572 b 226 464 219 526 226 481 b 163 400 226 428 201 400 b 99 465 126 400 99 424 b 308 622 99 558 197 622 b 521 515 397 622 481 582 b 731 622 592 600 669 622 b 963 350 882 622 963 504 b 928 321 963 321 958 321 l 549 321 b 753 19 549 19 739 19 b 924 154 839 19 903 85 b 944 182 931 176 932 182 b 963 165 951 182 963 179 m 871 350 b 729 592 868 404 861 592 b 550 350 679 592 564 553 l 871 350 m 469 183 b 465 214 469 188 469 199 b 453 318 453 257 453 285 b 169 128 228 310 169 203 b 290 15 169 63 225 15 b 469 183 390 15 469 94 "},"Ǽ":{"ha":1254,"x_min":0,"x_max":0,"o":"m 1156 0 l 471 0 l 471 43 b 578 106 563 43 578 43 l 578 435 l 354 435 l 250 143 b 243 113 243 125 243 124 b 346 43 243 78 276 44 l 346 0 l 186 4 b 44 0 131 4 75 1 l 44 43 b 201 136 142 43 182 82 l 476 904 b 421 906 458 904 439 906 l 358 906 l 358 949 l 1136 949 l 1175 636 l 1140 636 b 893 906 1118 825 1090 906 l 761 906 b 693 850 696 906 693 896 l 693 478 l 811 478 b 954 640 942 478 954 524 l 989 640 l 989 272 l 954 272 b 811 435 954 389 942 435 l 693 435 l 693 99 b 761 43 693 53 696 43 l 893 43 b 1179 358 1126 43 1144 153 l 1214 358 m 578 839 b 521 900 578 861 578 899 l 369 478 l 578 478 m 817 1204 b 786 1167 814 1188 801 1174 l 550 1036 l 531 1065 l 732 1246 b 768 1263 738 1251 751 1263 b 817 1204 799 1263 822 1235 "},"ǽ":{"ha":1003,"x_min":0,"x_max":0,"o":"m 963 165 b 747 -15 963 139 904 -15 b 515 108 706 -15 597 -4 b 283 -15 482 40 396 -15 b 63 128 190 -15 63 18 b 453 347 63 261 228 347 l 453 414 b 306 592 453 535 376 592 b 156 528 256 592 190 572 b 226 464 219 526 226 481 b 163 400 226 428 201 400 b 99 465 126 400 99 424 b 308 622 99 558 197 622 b 521 515 397 622 481 582 b 731 622 592 600 669 622 b 963 350 882 622 963 504 b 928 321 963 321 958 321 l 549 321 b 753 19 549 19 739 19 b 924 154 839 19 903 85 b 944 182 931 176 932 182 b 963 165 951 182 963 179 m 871 350 b 729 592 868 404 861 592 b 550 350 679 592 564 553 l 871 350 m 469 183 b 465 214 469 188 469 199 b 453 318 453 257 453 285 b 169 128 228 310 169 203 b 290 15 169 63 225 15 b 469 183 390 15 469 94 m 674 919 b 650 878 674 903 663 888 l 439 708 l 415 733 l 582 946 b 624 969 588 954 603 969 b 674 919 649 969 674 944 "},"À":{"ha":1042,"x_min":0,"x_max":0,"o":"m 814 4 b 614 0 761 4 664 4 l 614 43 b 729 85 651 43 729 43 b 725 104 729 90 726 99 l 651 317 l 308 317 l 244 135 b 242 114 243 132 242 118 b 346 43 242 78 276 43 l 346 0 l 186 4 l 44 0 l 44 43 b 200 136 119 44 175 65 l 488 967 b 521 994 494 986 499 994 b 553 967 543 994 546 985 l 853 99 b 971 43 868 53 888 43 l 996 43 l 996 0 m 479 811 l 324 360 l 636 360 m 597 1036 l 361 1167 b 331 1204 346 1174 333 1188 b 379 1263 325 1235 349 1263 b 415 1246 396 1263 410 1251 l 617 1065 "},"à":{"ha":694,"x_min":0,"x_max":0,"o":"m 671 124 b 557 -8 671 11 586 -8 b 449 106 492 -8 454 50 b 267 -15 422 40 358 -15 b 44 132 179 -15 44 19 b 183 313 44 193 79 265 b 439 363 271 354 368 358 l 439 414 b 292 592 439 538 360 592 b 142 528 247 592 179 576 b 213 464 206 526 213 481 b 149 400 213 428 188 400 b 85 465 113 400 85 424 b 294 622 85 557 181 622 b 485 546 361 622 431 600 b 535 382 535 494 535 440 l 535 104 b 586 35 535 97 540 35 b 636 124 601 35 636 43 l 636 201 l 671 201 l 671 124 m 439 333 b 151 133 210 325 151 210 b 276 15 151 64 208 15 b 439 194 339 15 439 63 m 410 708 l 199 878 b 175 919 186 888 175 903 b 225 969 175 944 200 969 b 267 946 246 969 261 954 l 433 733 "},"Ả":{"ha":1042,"x_min":0,"x_max":0,"o":"m 814 4 b 614 0 761 4 664 4 l 614 43 b 729 85 651 43 729 43 b 725 104 729 90 726 99 l 651 317 l 308 317 l 244 135 b 242 114 243 132 242 118 b 346 43 242 78 276 43 l 346 0 l 186 4 l 44 0 l 44 43 b 200 136 119 44 175 65 l 488 967 b 521 994 494 986 499 994 b 553 967 543 994 546 985 l 853 99 b 971 43 868 53 888 43 l 996 43 l 996 0 m 479 811 l 324 360 l 636 360 m 656 1250 b 614 1190 656 1224 639 1201 b 525 1093 558 1163 525 1132 l 525 1067 b 511 1053 525 1058 519 1053 b 497 1067 504 1053 497 1058 l 497 1093 b 564 1213 497 1139 525 1181 b 581 1250 575 1221 581 1235 b 569 1299 581 1276 579 1290 b 511 1317 554 1313 532 1317 b 433 1292 479 1317 451 1307 b 468 1250 453 1289 468 1274 b 428 1210 468 1225 449 1210 b 386 1251 406 1210 386 1225 b 511 1343 386 1308 446 1343 b 615 1321 551 1343 586 1338 b 656 1250 640 1306 656 1279 "},"ả":{"ha":694,"x_min":0,"x_max":0,"o":"m 671 124 b 557 -8 671 11 586 -8 b 449 106 492 -8 454 50 b 267 -15 422 40 358 -15 b 44 132 179 -15 44 19 b 183 313 44 193 79 265 b 439 363 271 354 368 358 l 439 414 b 292 592 439 538 360 592 b 142 528 247 592 179 576 b 213 464 206 526 213 481 b 149 400 213 428 188 400 b 85 465 113 400 85 424 b 294 622 85 557 181 622 b 485 546 361 622 431 600 b 535 382 535 494 535 440 l 535 104 b 586 35 535 97 540 35 b 636 124 601 35 636 43 l 636 201 l 671 201 l 671 124 m 439 333 b 151 133 210 325 151 210 b 276 15 151 64 208 15 b 439 194 339 15 439 63 m 482 892 b 440 832 482 865 465 843 b 351 735 385 804 351 774 l 351 708 b 338 694 351 700 346 694 b 324 708 331 694 324 700 l 324 735 b 390 854 324 781 351 822 b 407 892 401 863 407 876 b 396 940 407 918 406 932 b 338 958 381 954 358 958 b 260 933 306 958 278 949 b 294 892 279 931 294 915 b 254 851 294 867 275 851 b 213 893 232 851 213 867 b 338 985 213 950 272 985 b 442 963 378 985 413 979 b 482 892 467 947 482 921 "},"Α":{"ha":1042,"x_min":0,"x_max":0,"o":"m 814 4 b 614 0 761 4 664 4 l 614 43 b 729 85 651 43 729 43 b 725 104 729 90 726 99 l 651 317 l 308 317 l 244 135 b 242 114 243 132 242 118 b 346 43 242 78 276 43 l 346 0 l 186 4 l 44 0 l 44 43 b 200 136 119 44 175 65 l 488 967 b 521 994 494 986 499 994 b 553 967 543 994 546 985 l 853 99 b 971 43 868 53 888 43 l 996 43 l 996 0 m 479 811 l 324 360 l 636 360 "},"Ā":{"ha":1042,"x_min":0,"x_max":0,"o":"m 814 4 b 614 0 761 4 664 4 l 614 43 b 729 85 651 43 729 43 b 725 104 729 90 726 99 l 651 317 l 308 317 l 244 135 b 242 114 243 132 242 118 b 346 43 242 78 276 43 l 346 0 l 186 4 l 44 0 l 44 43 b 200 136 119 44 175 65 l 488 967 b 521 994 494 986 499 994 b 553 967 543 994 546 985 l 853 99 b 971 43 868 53 888 43 l 996 43 l 996 0 m 479 811 l 324 360 l 636 360 m 271 1050 l 271 1093 l 772 1093 l 772 1050 "},"ā":{"ha":694,"x_min":0,"x_max":0,"o":"m 671 124 b 557 -8 671 11 586 -8 b 449 106 492 -8 454 50 b 267 -15 422 40 358 -15 b 44 132 179 -15 44 19 b 183 313 44 193 79 265 b 439 363 271 354 368 358 l 439 414 b 292 592 439 538 360 592 b 142 528 247 592 179 576 b 213 464 206 526 213 481 b 149 400 213 428 188 400 b 85 465 113 400 85 424 b 294 622 85 557 181 622 b 485 546 361 622 431 600 b 535 382 535 494 535 440 l 535 104 b 586 35 535 97 540 35 b 636 124 601 35 636 43 l 636 201 l 671 201 l 671 124 m 439 333 b 151 133 210 325 151 210 b 276 15 151 64 208 15 b 439 194 339 15 439 63 m 97 818 l 97 861 l 599 861 l 599 818 "},"∢":{"ha":1081,"x_min":0,"x_max":0,"o":"m 1001 28 b 964 1 1001 8 982 -6 l 775 71 b 671 -104 749 8 714 -51 b 649 -115 665 -111 657 -115 b 621 -87 633 -115 621 -103 b 626 -71 621 -81 624 -75 b 722 90 667 -21 699 33 l 96 321 b 78 347 85 325 78 335 b 96 374 78 360 85 369 l 722 604 b 626 765 699 661 667 715 b 621 782 624 769 621 775 b 649 810 621 797 633 810 b 671 799 657 810 665 806 b 775 624 714 746 749 686 l 964 693 b 1001 667 982 700 1001 686 b 983 640 1001 654 994 644 l 793 571 b 829 347 817 499 829 424 b 793 124 829 271 817 196 l 983 54 b 1001 28 994 50 1001 40 m 774 347 b 742 551 774 417 763 486 l 186 347 l 742 143 b 774 347 763 208 774 278 "},"〈":{"ha":540,"x_min":0,"x_max":0,"o":"m 463 -318 b 435 -346 463 -332 450 -346 b 389 -275 407 -346 397 -301 l 165 311 b 153 349 161 322 153 336 b 167 392 153 363 163 378 l 200 479 l 392 979 b 428 1042 399 1000 407 1038 b 436 1043 431 1043 436 1043 b 461 1014 451 1043 461 1029 b 460 1003 461 1010 461 1006 b 389 815 439 940 413 878 l 228 393 l 217 365 b 213 349 215 360 213 354 b 224 314 213 338 219 325 l 251 242 l 443 -260 l 449 -275 b 463 -318 453 -287 463 -304 "},"〉":{"ha":540,"x_min":0,"x_max":0,"o":"m 386 349 b 372 306 386 335 376 319 l 339 218 l 147 -285 l 136 -314 b 107 -346 131 -328 124 -344 l 104 -346 b 76 -318 89 -346 76 -333 b 83 -294 76 -310 81 -301 l 311 304 l 322 332 b 326 349 324 338 326 343 b 314 386 326 361 318 375 l 94 964 b 76 1013 88 979 78 996 l 76 1015 b 97 1042 76 1028 86 1039 b 106 1043 100 1043 106 1043 b 150 975 133 1043 144 986 l 372 389 b 386 349 378 376 386 363 "},"Ą":{"ha":1042,"x_min":0,"x_max":0,"o":"m 996 0 b 835 6 943 3 889 6 b 735 -132 786 -28 735 -76 b 856 -228 735 -196 806 -228 b 963 -150 900 -228 939 -200 b 986 -160 969 -136 990 -143 b 822 -293 964 -239 892 -293 b 668 -168 733 -293 668 -232 b 781 4 668 -96 714 -42 b 614 0 726 4 654 3 l 614 43 b 729 85 651 43 729 43 b 725 104 729 90 726 99 l 651 317 l 308 317 l 244 135 b 242 114 243 132 242 118 b 346 43 242 78 276 43 l 346 0 l 186 4 l 44 0 l 44 43 b 200 136 119 44 175 65 l 488 967 b 521 994 494 986 499 994 b 553 967 543 994 546 985 l 853 99 b 971 43 868 53 888 43 l 996 43 l 996 0 m 479 811 l 324 360 l 636 360 "},"ą":{"ha":694,"x_min":0,"x_max":0,"o":"m 671 124 b 557 -8 671 11 586 -8 b 517 0 542 -8 528 -6 b 415 -132 468 -33 415 -76 b 536 -228 415 -196 486 -228 b 643 -150 581 -228 619 -200 b 667 -160 650 -136 671 -143 b 503 -293 644 -239 572 -293 b 349 -168 414 -293 349 -232 b 488 21 349 -96 419 -21 b 449 106 465 43 451 75 b 267 -15 422 40 358 -15 b 44 132 179 -15 44 19 b 183 313 44 193 79 265 b 439 363 271 354 368 358 l 439 414 b 292 592 439 538 360 592 b 142 528 247 592 179 576 b 213 464 206 526 213 481 b 149 400 213 428 188 400 b 85 465 113 400 85 424 b 294 622 85 557 181 622 b 485 546 361 622 431 600 b 535 382 535 494 535 440 l 535 104 b 586 35 535 97 540 35 b 636 124 601 35 636 43 l 636 201 l 671 201 l 671 124 m 439 333 b 151 133 210 325 151 210 b 276 15 151 64 208 15 b 439 194 339 15 439 63 "},"Å":{"ha":1042,"x_min":0,"x_max":0,"o":"m 814 4 b 614 0 761 4 664 4 l 614 43 b 729 85 651 43 729 43 b 725 104 729 90 726 99 l 651 317 l 308 317 l 244 135 b 242 114 243 132 242 118 b 346 43 242 78 276 43 l 346 0 l 186 4 l 44 0 l 44 43 b 200 136 119 44 175 65 l 488 967 b 521 994 494 986 499 994 b 553 967 543 994 546 985 l 853 99 b 971 43 868 53 888 43 l 996 43 l 996 0 m 479 811 l 324 360 l 636 360 m 608 1117 b 521 1197 608 1174 574 1197 b 433 1117 467 1197 433 1172 b 521 1036 433 1060 468 1036 b 608 1117 575 1036 608 1061 m 654 1118 b 519 994 654 1050 597 994 b 388 1118 449 994 388 1047 b 522 1239 388 1179 442 1239 b 654 1118 597 1239 654 1182 "},"å":{"ha":694,"x_min":0,"x_max":0,"o":"m 671 124 b 557 -8 671 11 586 -8 b 449 106 492 -8 454 50 b 267 -15 422 40 358 -15 b 44 132 179 -15 44 19 b 183 313 44 193 79 265 b 439 363 271 354 368 358 l 439 414 b 292 592 439 538 360 592 b 142 528 247 592 179 576 b 213 464 206 526 213 481 b 149 400 213 428 188 400 b 85 465 113 400 85 424 b 294 622 85 557 181 622 b 485 546 361 622 431 600 b 535 382 535 494 535 440 l 535 104 b 586 35 535 97 540 35 b 636 124 601 35 636 43 l 636 201 l 671 201 l 671 124 m 439 333 b 151 133 210 325 151 210 b 276 15 151 64 208 15 b 439 194 339 15 439 63 m 435 857 b 347 938 435 914 400 938 b 260 857 293 938 260 913 b 347 776 260 800 294 776 b 435 857 401 776 435 801 m 481 858 b 346 735 481 790 424 735 b 214 858 275 735 214 788 b 349 979 214 919 268 979 b 481 858 424 979 481 922 "},"Ǻ":{"ha":1042,"x_min":0,"x_max":0,"o":"m 814 4 b 614 0 761 4 664 4 l 614 43 b 729 85 651 43 729 43 b 725 104 729 90 726 99 l 651 317 l 308 317 l 244 135 b 242 114 243 132 242 118 b 346 43 242 78 276 43 l 346 0 l 186 4 l 44 0 l 44 43 b 200 136 119 44 175 65 l 488 967 b 521 994 494 986 499 994 b 553 967 543 994 546 985 l 853 99 b 971 43 868 53 888 43 l 996 43 l 996 0 m 479 811 l 324 360 l 636 360 m 608 1117 b 521 1197 608 1174 574 1197 b 433 1117 467 1197 433 1172 b 521 1036 433 1060 468 1036 b 608 1117 575 1036 608 1061 m 654 1118 b 519 994 654 1050 597 994 b 388 1118 449 994 388 1047 b 522 1239 388 1179 442 1239 b 654 1118 597 1239 654 1182 m 664 1435 b 633 1397 661 1418 649 1404 l 397 1267 l 378 1296 l 579 1476 b 615 1493 585 1482 599 1493 b 664 1435 646 1493 669 1465 "},"ǻ":{"ha":694,"x_min":0,"x_max":0,"o":"m 671 124 b 557 -8 671 11 586 -8 b 449 106 492 -8 454 50 b 267 -15 422 40 358 -15 b 44 132 179 -15 44 19 b 183 313 44 193 79 265 b 439 363 271 354 368 358 l 439 414 b 292 592 439 538 360 592 b 142 528 247 592 179 576 b 213 464 206 526 213 481 b 149 400 213 428 188 400 b 85 465 113 400 85 424 b 294 622 85 557 181 622 b 485 546 361 622 431 600 b 535 382 535 494 535 440 l 535 104 b 586 35 535 97 540 35 b 636 124 601 35 636 43 l 636 201 l 671 201 l 671 124 m 439 333 b 151 133 210 325 151 210 b 276 15 151 64 208 15 b 439 194 339 15 439 63 m 435 857 b 347 938 435 914 400 938 b 260 857 293 938 260 913 b 347 776 260 800 294 776 b 435 857 401 776 435 801 m 481 858 b 346 735 481 790 424 735 b 214 858 275 735 214 788 b 349 979 214 919 268 979 b 481 858 424 979 481 922 m 490 1175 b 460 1138 488 1158 475 1144 l 224 1007 l 204 1036 l 406 1217 b 442 1233 411 1222 425 1233 b 490 1175 472 1233 496 1206 "},"↓":{"ha":694,"x_min":0,"x_max":0,"o":"m 656 50 b 347 -269 499 14 378 -111 b 39 50 317 -111 196 14 l 39 106 b 319 -86 156 79 254 10 l 319 936 b 375 936 319 974 375 974 l 375 -86 b 656 106 440 10 539 79 l 656 50 "},"←":{"ha":1389,"x_min":0,"x_max":0,"o":"m 1311 349 b 1274 321 1311 324 1290 321 l 225 319 b 250 299 235 314 242 307 b 413 1 332 231 396 113 l 357 1 b 121 328 329 142 249 253 b 78 349 107 335 92 340 b 121 369 92 357 107 363 b 357 696 249 444 329 556 l 413 696 b 297 447 399 606 356 517 b 225 378 275 421 249 392 l 1274 376 b 1311 349 1290 376 1311 374 "},"→":{"ha":1389,"x_min":0,"x_max":0,"o":"m 1310 349 b 1267 328 1296 340 1281 335 b 1031 1 1139 253 1058 142 l 975 1 b 1090 250 989 92 1032 181 b 1163 319 1113 276 1139 306 l 114 321 b 76 349 97 321 76 324 b 114 376 76 374 97 376 l 1163 378 b 1138 399 1153 383 1146 390 b 975 696 1056 467 992 585 l 1031 696 b 1267 369 1058 556 1139 444 b 1310 349 1281 363 1296 357 "},"↑":{"ha":694,"x_min":0,"x_max":0,"o":"m 656 589 b 375 781 539 615 440 685 l 375 -242 b 319 -242 375 -279 319 -279 l 319 781 b 39 589 254 685 156 615 l 39 644 b 347 964 196 681 317 806 b 656 644 378 806 499 681 l 656 589 "},"∗":{"ha":694,"x_min":0,"x_max":0,"o":"m 603 219 b 564 181 603 199 585 181 b 513 208 544 181 528 197 l 364 318 b 371 242 364 293 368 267 l 382 115 b 385 90 383 107 385 99 b 350 50 385 72 371 50 l 347 50 b 308 89 326 50 308 67 b 329 318 308 164 329 243 l 181 208 b 129 181 165 197 149 181 b 92 219 107 181 92 200 b 140 267 92 249 119 257 l 194 292 b 313 347 232 310 272 335 l 313 350 b 194 406 272 363 232 388 l 140 431 b 92 478 119 440 92 449 b 129 517 92 497 107 517 b 181 489 149 517 165 500 l 329 379 b 308 608 329 456 308 531 b 347 647 308 631 326 647 l 350 647 b 385 607 374 647 385 622 b 382 582 385 599 383 590 l 371 456 b 364 379 368 431 364 404 l 513 489 b 564 517 528 500 544 517 b 603 478 585 517 603 499 b 553 431 603 450 572 440 l 499 406 b 381 350 461 388 421 363 l 381 347 b 499 292 421 335 461 310 l 553 267 b 603 219 572 257 603 247 "},"Ã":{"ha":1042,"x_min":0,"x_max":0,"o":"m 814 4 b 614 0 761 4 664 4 l 614 43 b 729 85 651 43 729 43 b 725 104 729 90 726 99 l 651 317 l 308 317 l 244 135 b 242 114 243 132 242 118 b 346 43 242 78 276 43 l 346 0 l 186 4 l 44 0 l 44 43 b 200 136 119 44 175 65 l 488 967 b 521 994 494 986 499 994 b 553 967 543 994 546 985 l 853 99 b 971 43 868 53 888 43 l 996 43 l 996 0 m 479 811 l 324 360 l 636 360 m 753 1131 b 603 1022 682 1053 656 1022 b 517 1054 579 1022 554 1032 b 426 1089 493 1068 458 1089 b 313 1022 365 1089 313 1022 l 290 1043 b 440 1151 361 1121 388 1151 b 526 1119 464 1151 489 1142 b 617 1085 550 1106 585 1085 b 731 1151 678 1085 731 1151 l 753 1131 "},"ã":{"ha":694,"x_min":0,"x_max":0,"o":"m 671 124 b 557 -8 671 11 586 -8 b 449 106 492 -8 454 50 b 267 -15 422 40 358 -15 b 44 132 179 -15 44 19 b 183 313 44 193 79 265 b 439 363 271 354 368 358 l 439 414 b 292 592 439 538 360 592 b 142 528 247 592 179 576 b 213 464 206 526 213 481 b 149 400 213 428 188 400 b 85 465 113 400 85 424 b 294 622 85 557 181 622 b 485 546 361 622 431 600 b 535 382 535 494 535 440 l 535 104 b 586 35 535 97 540 35 b 636 124 601 35 636 43 l 636 201 l 671 201 l 671 124 m 439 333 b 151 133 210 325 151 210 b 276 15 151 64 208 15 b 439 194 339 15 439 63 m 579 883 b 429 775 508 806 482 775 b 343 807 406 775 381 785 b 253 842 319 821 285 842 b 139 775 192 842 139 775 l 117 796 b 267 904 188 874 214 904 b 353 872 290 904 315 894 b 443 838 376 858 411 838 b 557 904 504 838 557 904 l 579 883 "},"฿":{"ha":983,"x_min":0,"x_max":0,"o":"m 904 254 b 594 0 904 124 779 0 l 501 0 l 501 -42 b 481 -62 501 -53 492 -62 b 460 -42 469 -62 460 -53 l 460 0 l 50 0 l 50 43 l 83 43 b 193 108 190 43 193 58 l 193 840 b 83 906 193 890 190 906 l 50 906 l 50 949 l 460 949 l 460 990 b 481 1011 460 1003 469 1011 b 501 990 492 1011 501 1003 l 501 949 l 558 949 b 867 714 739 949 867 835 b 636 496 867 611 771 522 b 904 254 790 479 904 375 m 732 714 b 549 906 732 788 683 906 l 501 906 l 501 508 l 510 508 b 732 714 664 508 732 625 m 460 906 l 376 906 b 308 850 311 906 308 896 l 308 508 l 460 508 m 765 256 b 569 478 765 349 707 478 l 501 478 l 501 43 l 550 43 b 765 256 693 43 765 157 m 460 478 l 308 478 l 308 99 b 376 43 308 53 311 43 l 460 43 "},"Β":{"ha":983,"x_min":0,"x_max":0,"o":"m 904 254 b 594 0 904 124 779 0 l 50 0 l 50 43 l 83 43 b 193 108 190 43 193 58 l 193 840 b 83 906 193 890 190 906 l 50 906 l 50 949 l 558 949 b 867 714 739 949 867 835 b 636 496 867 611 771 522 b 904 254 790 479 904 375 m 732 714 b 549 906 732 788 683 906 l 376 906 b 308 850 311 906 308 896 l 308 508 l 510 508 b 732 714 664 508 732 625 m 765 256 b 569 478 765 349 707 478 l 308 478 l 308 99 b 376 43 308 53 311 43 l 550 43 b 765 256 693 43 765 157 "},"␢":{"ha":772,"x_min":0,"x_max":0,"o":"m 724 300 b 414 -15 724 121 579 -15 b 232 86 311 -15 253 54 l 182 0 l 147 0 l 147 674 l 74 604 b 60 599 71 601 65 599 b 39 619 49 599 39 608 b 46 635 39 625 42 631 l 147 732 l 147 828 b 39 906 147 896 136 906 l 39 949 l 239 964 l 239 819 l 338 913 b 351 918 342 917 346 918 b 372 897 364 918 372 910 b 367 882 372 892 371 886 l 239 761 l 239 524 b 429 614 261 549 321 614 b 724 300 588 614 724 476 m 608 301 b 568 494 608 358 604 438 b 422 583 535 547 485 583 b 258 494 389 583 313 572 b 243 444 243 472 243 471 l 243 158 b 263 100 243 133 243 129 b 408 15 296 49 346 15 b 565 104 483 15 536 61 b 608 301 606 167 608 250 "},"˘":{"ha":694,"x_min":0,"x_max":0,"o":"m 556 958 b 347 719 553 813 456 719 b 140 958 244 719 143 808 l 171 958 b 349 772 174 840 261 772 b 525 958 431 772 522 838 l 556 958 "},"̮":{"ha":0,"x_min":0,"x_max":0,"o":"m -139 -85 b -347 -324 -142 -231 -239 -324 b -554 -85 -450 -324 -551 -235 l -524 -85 b -346 -271 -521 -203 -433 -271 b -169 -85 -264 -271 -172 -206 l -139 -85 "},"̯":{"ha":0,"x_min":0,"x_max":0,"o":"m -169 -324 b -347 -137 -172 -206 -260 -137 b -524 -324 -429 -137 -521 -203 l -554 -324 b -346 -85 -551 -178 -454 -85 b -139 -324 -243 -85 -142 -174 "},"̆":{"ha":0,"x_min":0,"x_max":0,"o":"m -139 958 b -347 719 -142 813 -239 719 b -554 958 -450 719 -551 808 l -524 958 b -346 772 -521 840 -433 772 b -169 958 -264 772 -172 838 l -139 958 "},"̑":{"ha":0,"x_min":0,"x_max":0,"o":"m -169 719 b -347 906 -172 838 -260 906 b -524 719 -429 906 -521 840 l -554 719 b -346 958 -551 865 -454 958 b -139 719 -243 958 -142 869 "},"¦":{"ha":386,"x_min":0,"x_max":0,"o":"m 221 476 b 193 456 221 464 207 456 b 165 476 179 456 165 464 l 165 996 b 193 1042 165 1015 165 1042 b 221 996 221 1042 221 1015 l 221 476 m 221 -301 b 193 -347 221 -321 221 -347 b 165 -301 165 -347 165 -321 l 165 218 b 193 239 165 231 179 239 b 221 218 207 239 221 231 l 221 -301 "},"•":{"ha":1081,"x_min":0,"x_max":0,"o":"m 740 321 b 540 121 740 211 650 121 b 340 321 431 121 340 211 b 540 521 340 431 431 521 b 740 321 650 521 740 431 "},"Ć":{"ha":1003,"x_min":0,"x_max":0,"o":"m 924 324 b 561 -31 924 163 788 -31 b 78 475 303 -31 78 188 b 561 979 78 758 301 979 b 817 860 694 979 765 910 l 886 963 b 908 979 897 979 903 979 b 924 946 924 979 924 969 l 924 617 b 901 583 924 588 924 583 b 879 607 882 583 882 588 b 576 936 851 810 728 936 b 221 474 492 936 221 889 b 578 13 221 60 493 13 b 889 325 729 13 878 126 b 906 347 890 339 890 347 b 924 324 924 347 924 338 m 742 1204 b 711 1167 739 1188 726 1174 l 475 1036 l 456 1065 l 657 1246 b 693 1263 663 1251 676 1263 b 742 1204 724 1263 747 1235 "},"ć":{"ha":617,"x_min":0,"x_max":0,"o":"m 576 165 b 346 -15 576 151 532 -15 b 47 300 185 -15 47 122 b 349 622 47 472 175 622 b 561 474 456 622 561 568 b 497 408 561 432 533 408 b 433 472 458 408 433 436 b 499 536 433 490 442 532 b 350 588 450 586 363 588 b 163 303 276 588 163 529 b 358 19 163 79 285 19 b 540 165 410 19 500 36 b 558 179 543 174 546 179 b 576 165 563 179 576 179 m 511 919 b 488 878 511 903 500 888 l 276 708 l 253 733 l 419 946 b 461 969 425 954 440 969 b 511 919 486 969 511 944 "},"ˇ":{"ha":694,"x_min":0,"x_max":0,"o":"m 347 717 l 136 942 l 154 961 l 347 811 l 540 961 l 558 942 "},"̌":{"ha":0,"x_min":0,"x_max":0,"o":"m -347 717 l -558 942 l -540 961 l -347 811 l -154 961 l -136 942 "},"Č":{"ha":1003,"x_min":0,"x_max":0,"o":"m 924 324 b 561 -31 924 163 788 -31 b 78 475 303 -31 78 188 b 561 979 78 758 301 979 b 817 860 694 979 765 910 l 886 963 b 908 979 897 979 903 979 b 924 946 924 979 924 969 l 924 617 b 901 583 924 588 924 583 b 879 607 882 583 882 588 b 576 936 851 810 728 936 b 221 474 492 936 221 889 b 578 13 221 60 493 13 b 889 325 729 13 878 126 b 906 347 890 339 890 347 b 924 324 924 347 924 338 m 551 1022 l 342 1185 l 358 1207 l 553 1115 l 747 1207 l 761 1185 "},"č":{"ha":617,"x_min":0,"x_max":0,"o":"m 576 165 b 346 -15 576 151 532 -15 b 47 300 185 -15 47 122 b 349 622 47 472 175 622 b 561 474 456 622 561 568 b 497 408 561 432 533 408 b 433 472 458 408 433 436 b 499 536 433 490 442 532 b 350 588 450 586 363 588 b 163 303 276 588 163 529 b 358 19 163 79 285 19 b 540 165 410 19 500 36 b 558 179 543 174 546 179 b 576 165 563 179 576 179 m 339 717 l 128 942 l 146 961 l 339 811 l 532 961 l 550 942 "},"Ç":{"ha":1003,"x_min":0,"x_max":0,"o":"m 924 324 b 588 -29 924 169 799 -15 l 588 -92 b 738 -185 663 -92 738 -119 b 403 -278 738 -278 553 -278 l 367 -278 l 367 -242 l 385 -242 b 621 -185 489 -242 621 -242 b 515 -128 621 -140 567 -128 l 515 -28 b 78 475 276 -4 78 204 b 561 979 78 758 301 979 b 817 860 694 979 765 910 l 886 963 b 908 979 897 979 903 979 b 924 946 924 979 924 969 l 924 617 b 901 583 924 588 924 583 b 879 607 882 583 882 588 b 576 936 851 810 728 936 b 221 474 492 936 221 889 b 578 13 221 60 493 13 b 889 325 729 13 878 126 b 906 347 890 339 890 347 b 924 324 924 347 924 338 "},"ç":{"ha":617,"x_min":0,"x_max":0,"o":"m 576 165 b 375 -14 576 153 536 3 l 375 -92 b 525 -185 450 -92 525 -119 b 190 -278 525 -278 340 -278 l 154 -278 l 154 -242 l 172 -242 b 408 -185 276 -242 408 -242 b 303 -128 408 -140 354 -128 l 303 -12 b 47 300 161 10 47 138 b 349 622 47 472 175 622 b 561 474 456 622 561 568 b 497 408 561 432 533 408 b 433 472 458 408 433 436 b 499 536 433 490 442 532 b 350 588 450 586 363 588 b 163 303 276 588 163 529 b 358 19 163 79 285 19 b 540 165 410 19 500 36 b 558 179 543 174 546 179 b 576 165 563 179 576 179 "},"Ĉ":{"ha":1003,"x_min":0,"x_max":0,"o":"m 924 324 b 561 -31 924 163 788 -31 b 78 475 303 -31 78 188 b 561 979 78 758 301 979 b 817 860 694 979 765 910 l 886 963 b 908 979 897 979 903 979 b 924 946 924 979 924 969 l 924 617 b 901 583 924 588 924 583 b 879 607 882 583 882 588 b 576 936 851 810 728 936 b 221 474 492 936 221 889 b 578 13 221 60 493 13 b 889 325 729 13 878 126 b 906 347 890 339 890 347 b 924 324 924 347 924 338 m 744 1022 l 550 1114 l 356 1022 l 342 1044 l 551 1207 l 761 1044 "},"ĉ":{"ha":617,"x_min":0,"x_max":0,"o":"m 576 165 b 346 -15 576 151 532 -15 b 47 300 185 -15 47 122 b 349 622 47 472 175 622 b 561 474 456 622 561 568 b 497 408 561 432 533 408 b 433 472 458 408 433 436 b 499 536 433 490 442 532 b 350 588 450 586 363 588 b 163 303 276 588 163 529 b 358 19 163 79 285 19 b 540 165 410 19 500 36 b 558 179 543 174 546 179 b 576 165 563 179 576 179 m 532 717 l 339 867 l 146 717 l 128 736 l 339 961 l 550 736 "},"Ċ":{"ha":1003,"x_min":0,"x_max":0,"o":"m 924 324 b 561 -31 924 163 788 -31 b 78 475 303 -31 78 188 b 561 979 78 758 301 979 b 817 860 694 979 765 910 l 886 963 b 908 979 897 979 903 979 b 924 946 924 979 924 969 l 924 617 b 901 583 924 588 924 583 b 879 607 882 583 882 588 b 576 936 851 810 728 936 b 221 474 492 936 221 889 b 578 13 221 60 493 13 b 889 325 729 13 878 126 b 906 347 890 339 890 347 b 924 324 924 347 924 338 m 625 1126 b 550 1053 625 1092 597 1053 b 476 1126 508 1053 476 1089 b 551 1200 476 1161 504 1200 b 625 1126 593 1200 625 1164 "},"ċ":{"ha":617,"x_min":0,"x_max":0,"o":"m 576 165 b 346 -15 576 151 532 -15 b 47 300 185 -15 47 122 b 349 622 47 472 175 622 b 561 474 456 622 561 568 b 497 408 561 432 533 408 b 433 472 458 408 433 436 b 499 536 433 490 442 532 b 350 588 450 586 363 588 b 163 303 276 588 163 529 b 358 19 163 79 285 19 b 540 165 410 19 500 36 b 558 179 543 174 546 179 b 576 165 563 179 576 179 m 413 839 b 338 765 413 804 385 765 b 264 839 296 765 264 801 b 339 913 264 874 292 913 b 413 839 381 913 413 876 "},"¸":{"ha":617,"x_min":0,"x_max":0,"o":"m 494 -185 b 160 -278 494 -278 310 -278 l 124 -278 l 124 -242 l 142 -242 b 378 -185 246 -242 378 -242 b 272 -128 378 -140 324 -128 l 272 7 l 344 7 l 344 -92 b 494 -185 419 -92 494 -119 "},"¢":{"ha":617,"x_min":0,"x_max":0,"o":"m 576 165 b 360 -15 576 151 535 -7 l 360 -42 b 339 -62 360 -53 351 -62 b 318 -42 328 -62 318 -53 l 318 -14 b 47 300 169 0 47 132 b 318 621 47 463 161 604 l 318 640 b 339 661 318 651 328 661 b 360 640 351 661 360 651 l 360 622 b 561 474 463 618 561 565 b 497 408 561 432 533 408 b 433 472 458 408 433 436 b 499 536 433 490 442 532 b 360 588 457 579 388 586 l 360 19 b 540 165 413 19 500 38 b 558 179 543 174 546 179 b 576 165 563 179 576 179 m 318 585 b 163 303 249 569 163 499 b 318 25 163 117 247 43 "},"℃":{"ha":1311,"x_min":0,"x_max":0,"o":"m 1233 325 b 1232 306 1233 318 1233 313 b 871 -29 1214 114 1058 -29 b 385 476 592 -29 385 213 b 871 981 385 761 614 981 b 1078 907 946 981 1019 954 b 1126 861 1094 893 1110 875 b 1217 981 1131 871 1196 981 b 1233 958 1232 981 1233 968 l 1233 606 b 1211 583 1233 592 1231 583 b 1186 624 1182 583 1190 608 b 883 938 1168 774 1056 938 b 581 743 757 938 638 854 b 528 465 538 658 528 560 b 631 133 528 347 551 224 b 886 14 696 60 788 14 b 1192 268 1038 14 1163 128 b 1217 350 1197 296 1190 350 b 1233 325 1229 350 1233 340 m 308 797 b 169 642 308 717 250 651 l 157 642 b 1 796 63 642 1 713 b 139 950 1 876 58 940 l 151 950 b 308 797 243 950 308 879 m 253 806 b 153 894 243 858 203 894 b 56 796 100 894 56 847 l 56 786 b 154 697 65 733 106 697 b 253 796 208 697 253 743 "},"Χ":{"ha":1042,"x_min":0,"x_max":0,"o":"m 828 4 b 625 0 775 4 674 4 l 625 43 b 715 85 685 44 715 68 b 708 100 715 89 711 94 l 489 432 l 292 140 b 278 107 282 125 278 119 b 365 43 278 82 301 44 l 365 0 b 188 4 315 4 239 4 l 33 0 l 33 43 b 235 135 174 43 215 107 l 463 471 l 207 857 b 78 906 181 896 154 906 l 51 906 l 51 949 l 232 944 b 435 949 285 944 386 944 l 435 906 b 344 864 375 904 344 881 b 354 843 344 858 351 847 l 533 575 l 692 810 b 704 842 701 825 704 828 b 618 906 704 874 674 904 l 618 949 b 796 944 674 944 740 944 l 950 949 l 950 906 b 749 815 826 904 779 860 l 558 536 l 851 93 b 982 43 881 50 910 43 l 1008 43 l 1008 0 "},"ˆ":{"ha":694,"x_min":0,"x_max":0,"o":"m 540 717 l 347 867 l 154 717 l 136 736 l 347 961 l 558 736 "},"̂":{"ha":0,"x_min":0,"x_max":0,"o":"m -154 717 l -347 867 l -540 717 l -558 736 l -347 961 l -136 736 "},"₡":{"ha":1003,"x_min":0,"x_max":0,"o":"m 924 324 b 572 -31 924 165 792 -24 l 572 -42 b 551 -62 572 -53 564 -62 b 531 -42 540 -62 531 -53 l 531 -29 b 78 475 286 -14 78 199 b 531 978 78 747 285 963 l 531 990 b 551 1011 531 1003 540 1011 b 572 990 564 1011 572 1003 l 572 979 b 817 860 699 975 767 908 l 886 963 b 908 979 897 979 903 979 b 924 946 924 979 924 969 l 924 617 b 901 583 924 588 924 583 b 879 607 882 583 882 588 b 576 936 851 810 728 936 l 572 936 l 572 13 l 578 13 b 889 325 729 13 878 126 b 906 347 890 339 890 347 b 924 324 924 347 924 338 m 531 932 b 221 474 421 915 221 831 b 531 17 221 119 421 33 "},"̦":{"ha":0,"x_min":0,"x_max":0,"o":"m -286 -201 b -381 -403 -286 -321 -368 -403 b -392 -392 -386 -403 -392 -399 b -385 -381 -392 -387 -390 -386 b -311 -185 -339 -331 -310 -268 b -353 -201 -322 -196 -337 -201 b -408 -147 -390 -201 -408 -174 b -353 -92 -408 -119 -389 -92 b -286 -201 -311 -92 -286 -135 "},"©":{"ha":949,"x_min":0,"x_max":0,"o":"m 949 475 b 475 0 949 213 736 0 b 0 475 213 0 0 213 b 475 949 0 736 213 949 b 949 475 736 949 949 736 m 893 475 b 475 893 893 706 706 893 b 56 475 243 893 56 706 b 475 56 56 243 243 56 b 893 475 706 56 893 243 m 679 392 b 481 196 679 303 604 196 b 214 475 338 196 214 317 b 481 753 214 631 338 753 b 621 688 553 753 593 714 l 660 743 b 671 753 665 753 668 753 b 679 735 679 753 679 747 l 679 553 b 668 535 679 538 679 535 b 656 547 657 535 657 538 b 489 729 640 660 572 729 b 293 474 442 729 293 703 b 489 221 293 246 443 221 b 661 392 572 221 654 283 b 669 404 661 400 661 404 b 679 392 679 404 679 399 "},"¤":{"ha":1081,"x_min":0,"x_max":0,"o":"m 867 21 b 815 33 847 1 829 19 l 711 136 b 540 75 665 99 606 75 b 368 136 475 75 415 99 l 265 33 b 213 21 251 19 233 1 b 226 72 193 40 213 58 l 329 176 b 268 347 292 222 268 282 b 329 519 268 413 292 472 l 226 622 b 213 675 213 636 193 656 b 265 663 233 694 251 676 l 369 558 b 540 619 415 596 475 619 b 711 558 606 619 664 596 l 814 661 b 867 674 828 675 846 693 b 853 622 886 654 867 636 l 750 519 b 811 347 789 472 811 413 b 751 176 811 282 789 222 l 854 72 b 867 21 868 58 886 40 m 756 347 b 540 564 756 467 660 564 b 324 347 421 564 324 467 b 540 131 324 228 421 131 b 756 347 660 131 756 228 "},"†":{"ha":617,"x_min":0,"x_max":0,"o":"m 538 597 b 486 551 538 590 535 551 b 390 571 457 551 417 563 b 321 585 364 578 336 583 b 335 486 324 547 328 518 b 354 303 354 388 354 378 b 342 -61 354 169 347 26 b 326 -275 339 -132 335 -206 b 307 -300 324 -293 324 -300 b 289 -272 292 -300 290 -292 b 261 303 276 -140 261 93 b 281 488 261 376 261 388 b 294 585 288 522 292 550 b 228 571 267 582 232 572 b 129 551 199 563 158 551 b 78 599 86 551 78 581 b 129 644 78 606 81 644 b 225 625 158 644 199 633 b 294 611 251 618 279 613 b 279 760 293 651 289 696 b 261 922 274 793 261 874 b 308 979 261 935 261 979 b 354 922 354 979 354 933 b 339 768 354 871 346 819 b 321 611 324 678 322 639 b 388 625 349 614 383 624 b 486 644 417 633 457 644 b 538 597 529 644 538 615 "},"‡":{"ha":617,"x_min":0,"x_max":0,"o":"m 538 663 b 486 617 538 656 535 617 b 390 636 457 617 417 628 b 321 650 364 643 336 649 b 339 518 322 614 329 575 b 354 401 349 469 354 429 b 307 347 354 382 349 347 b 261 401 292 347 261 353 b 279 542 261 440 271 496 b 294 650 283 561 293 608 b 228 636 267 647 232 638 b 129 617 199 628 158 617 b 78 664 86 617 78 646 b 129 710 78 671 81 710 b 225 690 158 710 199 699 b 294 676 251 683 279 678 b 276 808 293 713 286 751 b 261 925 267 857 261 897 b 307 979 261 975 293 979 b 354 925 354 979 354 935 b 336 785 354 886 344 831 b 321 676 332 765 322 718 b 388 690 349 679 383 689 b 486 710 417 699 457 710 b 538 663 529 710 538 681 m 538 31 b 490 -15 538 10 524 -15 b 413 -3 483 -15 458 -15 b 321 17 357 13 353 14 b 335 -83 324 -25 331 -68 b 354 -231 343 -131 354 -190 b 307 -285 354 -250 349 -285 b 261 -231 292 -285 261 -279 b 276 -114 261 -224 261 -192 b 294 17 286 -56 292 -22 b 207 -1 271 14 261 13 b 125 -15 192 -7 158 -15 b 78 31 92 -15 78 10 b 125 76 78 49 90 76 b 203 64 135 76 158 76 b 294 44 258 49 263 47 b 281 144 292 86 285 129 b 261 292 272 192 261 251 b 308 346 261 311 267 346 b 354 292 324 346 354 340 b 339 175 354 285 354 253 b 321 44 329 117 324 83 b 397 61 351 47 361 50 b 492 76 440 72 464 76 b 538 31 521 76 538 54 "},"⟦":{"ha":560,"x_min":0,"x_max":0,"o":"m 164 -346 l 164 1043 l 528 1043 l 528 988 l 392 988 l 392 -290 l 528 -290 l 528 -346 m 336 988 l 219 988 l 219 -290 l 336 -290 "},"⟧":{"ha":560,"x_min":0,"x_max":0,"o":"m 32 -346 l 32 -290 l 167 -290 l 167 988 l 32 988 l 32 1043 l 394 1043 l 394 -346 m 339 988 l 222 988 l 222 -290 l 339 -290 "},"̏":{"ha":0,"x_min":0,"x_max":0,"o":"m -178 726 b -207 710 -183 722 -204 711 l -335 885 b -351 921 -347 901 -351 907 b -300 968 -351 946 -326 968 b -253 928 -268 968 -260 944 l -178 726 m -410 726 b -439 710 -415 722 -436 711 l -567 885 b -583 921 -579 901 -583 907 b -532 968 -583 946 -558 968 b -485 928 -500 968 -492 944 l -410 726 "},"‖":{"ha":553,"x_min":0,"x_max":0,"o":"m 221 -301 b 193 -347 221 -321 221 -347 b 165 -301 165 -347 165 -321 l 165 996 b 193 1042 165 1015 165 1042 b 221 996 221 1042 221 1015 l 221 -301 m 388 -301 b 360 -347 388 -321 388 -347 b 332 -301 332 -347 332 -321 l 332 996 b 360 1042 332 1015 332 1042 b 388 996 388 1042 388 1015 l 388 -301 "},"Ď":{"ha":1061,"x_min":0,"x_max":0,"o":"m 982 467 b 557 0 982 206 790 0 l 49 0 l 49 43 l 82 43 b 192 108 189 43 192 58 l 192 840 b 82 906 192 890 189 906 l 49 906 l 49 949 l 557 949 b 982 467 794 949 982 731 m 843 467 b 771 776 843 575 831 694 b 518 906 700 875 604 906 l 379 906 b 311 850 314 906 311 896 l 311 99 b 379 43 311 53 314 43 l 519 43 b 767 161 660 43 739 124 b 843 467 817 229 843 313 m 449 1022 l 239 1185 l 256 1207 l 450 1115 l 644 1207 l 658 1185 "},"ď":{"ha":772,"x_min":0,"x_max":0,"o":"m 528 -15 l 528 76 b 342 -15 493 32 431 -15 b 47 299 183 -15 47 122 b 357 614 47 478 193 614 b 532 528 432 614 492 578 l 532 828 b 424 906 532 896 521 906 l 424 949 l 624 964 l 624 121 b 732 43 624 53 635 43 l 732 0 m 528 449 b 513 500 528 474 528 476 b 363 583 469 563 411 583 b 206 494 288 583 235 538 b 163 297 165 432 163 349 b 203 104 163 240 167 161 b 349 15 236 51 286 15 b 513 113 408 15 471 46 b 528 164 528 136 528 139 m 797 854 b 703 653 797 735 715 653 b 692 664 697 653 692 657 b 699 675 692 668 693 669 b 772 871 744 725 774 788 b 731 854 761 860 746 854 b 675 908 693 854 675 882 b 731 964 675 936 694 964 b 797 854 772 964 797 921 "},"Đ":{"ha":1061,"x_min":0,"x_max":0,"o":"m 982 467 b 557 0 982 206 790 0 l 49 0 l 49 43 l 82 43 b 192 108 189 43 192 58 l 192 454 l 49 454 l 49 496 l 192 496 l 192 840 b 82 906 192 890 189 906 l 49 906 l 49 949 l 557 949 b 982 467 794 949 982 731 m 843 467 b 771 776 843 575 831 694 b 518 906 700 875 604 906 l 379 906 b 311 850 314 906 311 896 l 311 496 l 531 496 l 531 454 l 311 454 l 311 99 b 379 43 311 53 314 43 l 519 43 b 767 161 660 43 739 124 b 843 467 817 229 843 313 "},"đ":{"ha":772,"x_min":0,"x_max":0,"o":"m 528 -15 l 528 76 b 342 -15 493 32 431 -15 b 47 299 183 -15 47 122 b 357 614 47 478 193 614 b 532 528 432 614 492 578 l 532 740 l 308 740 l 308 782 l 532 782 l 532 828 b 424 906 532 896 521 906 l 424 949 l 624 964 l 624 782 l 732 782 l 732 740 l 624 740 l 624 121 b 732 43 624 53 635 43 l 732 0 m 528 449 b 513 500 528 474 528 476 b 363 583 469 563 411 583 b 206 494 288 583 235 538 b 163 297 165 432 163 349 b 203 104 163 240 167 161 b 349 15 236 51 286 15 b 513 113 408 15 471 46 b 528 164 528 136 528 139 "},"Ḍ":{"ha":1061,"x_min":0,"x_max":0,"o":"m 982 467 b 557 0 982 206 790 0 l 49 0 l 49 43 l 82 43 b 192 108 189 43 192 58 l 192 840 b 82 906 192 890 189 906 l 49 906 l 49 949 l 557 949 b 982 467 794 949 982 731 m 843 467 b 771 776 843 575 831 694 b 518 906 700 875 604 906 l 379 906 b 311 850 314 906 311 896 l 311 99 b 379 43 311 53 314 43 l 519 43 b 767 161 660 43 739 124 b 843 467 817 229 843 313 m 522 -204 b 447 -278 522 -239 494 -278 b 374 -204 406 -278 374 -242 b 449 -131 374 -169 401 -131 b 522 -204 490 -131 522 -167 "},"ḍ":{"ha":772,"x_min":0,"x_max":0,"o":"m 528 -15 l 528 76 b 342 -15 493 32 431 -15 b 47 299 183 -15 47 122 b 357 614 47 478 193 614 b 532 528 432 614 492 578 l 532 828 b 424 906 532 896 521 906 l 424 949 l 624 964 l 624 121 b 732 43 624 53 635 43 l 732 0 m 528 449 b 513 500 528 474 528 476 b 363 583 469 563 411 583 b 206 494 288 583 235 538 b 163 297 165 432 163 349 b 203 104 163 240 167 161 b 349 15 236 51 286 15 b 513 113 408 15 471 46 b 528 164 528 136 528 139 m 460 -204 b 385 -278 460 -239 432 -278 b 311 -204 343 -278 311 -242 b 386 -131 311 -169 339 -131 b 460 -204 428 -131 460 -167 "},"°":{"ha":521,"x_min":0,"x_max":0,"o":"m 453 756 b 261 564 453 650 367 564 b 68 756 154 564 68 650 b 261 949 68 863 154 949 b 453 756 367 949 453 863 m 397 756 b 261 893 397 832 336 893 b 124 756 185 893 124 832 b 261 619 124 681 185 619 b 397 756 336 619 397 681 "},"Δ":{"ha":1157,"x_min":0,"x_max":0,"o":"m 1090 11 b 1060 0 1090 0 1082 0 l 96 0 b 65 11 74 0 65 0 b 72 28 65 11 65 15 l 542 969 b 578 994 551 988 554 994 b 614 969 601 994 604 988 l 1083 28 b 1090 11 1090 15 1090 11 m 533 856 l 158 106 l 907 106 "},"⌀":{"ha":1081,"x_min":0,"x_max":0,"o":"m 1001 782 b 993 763 1001 774 999 767 l 864 633 b 972 347 932 557 972 457 b 540 -85 972 108 779 -85 b 256 22 431 -85 331 -44 l 125 -107 b 106 -115 121 -112 114 -115 b 78 -87 90 -115 78 -103 b 86 -68 78 -79 81 -72 l 215 63 b 108 347 149 139 108 238 b 540 779 108 586 301 779 b 825 672 649 779 749 739 l 954 801 b 974 810 958 807 965 810 b 1001 782 989 810 1001 797 m 917 347 b 825 593 917 442 882 528 l 294 63 b 540 -29 360 6 446 -29 b 917 347 749 -29 917 139 m 786 633 b 540 724 719 689 633 724 b 164 347 332 724 164 556 b 256 101 164 253 199 168 l 786 633 "},"¨":{"ha":694,"x_min":0,"x_max":0,"o":"m 292 840 b 224 774 292 808 267 774 b 157 840 186 774 157 806 b 225 906 157 871 182 906 b 292 840 263 906 292 874 m 539 840 b 471 774 539 808 514 774 b 404 840 433 774 404 806 b 472 906 404 871 429 906 b 539 840 510 906 539 874 "},"̈":{"ha":0,"x_min":0,"x_max":0,"o":"m -403 840 b -471 774 -403 808 -428 774 b -537 840 -508 774 -537 806 b -469 906 -537 871 -512 906 b -403 840 -432 906 -403 874 m -156 840 b -224 774 -156 808 -181 774 b -290 840 -261 774 -290 806 b -222 906 -290 871 -265 906 b -156 840 -185 906 -156 874 "},"⁒":{"ha":694,"x_min":0,"x_max":0,"o":"m 617 1014 b 589 953 617 999 599 971 l 497 767 l 418 604 l 232 226 l 135 28 b 107 1 128 15 122 3 l 106 1 b 78 31 88 1 78 15 b 114 113 78 53 103 89 l 546 992 l 560 1018 b 582 1042 564 1028 569 1039 b 590 1043 585 1043 590 1043 b 617 1014 606 1043 617 1029 m 292 940 b 207 1028 292 982 258 1028 b 194 1026 203 1028 199 1026 b 119 943 153 1021 119 986 b 204 856 119 901 153 856 b 292 940 251 856 292 893 m 574 101 b 489 189 574 143 540 189 b 476 188 485 189 481 188 b 401 104 435 182 401 147 b 486 17 401 63 435 17 b 574 101 533 17 574 54 "},"÷":{"ha":1081,"x_min":0,"x_max":0,"o":"m 1001 347 b 954 319 1001 319 975 319 l 125 319 b 78 347 104 319 78 319 b 124 375 78 375 104 375 l 956 375 b 1001 347 975 375 1001 375 m 614 565 b 540 492 614 525 581 492 b 467 565 500 492 467 525 b 540 639 467 606 500 639 b 614 565 581 639 614 606 m 614 129 b 540 56 614 89 581 56 b 467 129 500 56 467 89 b 540 203 467 169 500 203 b 614 129 581 203 614 169 "},"⚮":{"ha":694,"x_min":0,"x_max":0,"o":"m 956 350 b 707 49 956 207 863 49 b 469 347 561 49 469 208 b 692 647 469 485 550 631 b 711 649 699 647 704 649 b 956 350 864 649 956 486 m 224 350 b -18 49 224 214 138 49 b -262 349 -172 49 -262 213 b -32 647 -262 492 -178 629 b -14 649 -26 647 -19 649 b 224 350 132 649 224 489 m 396 -117 b 372 -144 396 -140 389 -144 l 314 -144 b 299 -133 307 -143 301 -140 l 299 -115 b 310 89 299 -47 306 21 l 317 463 b 301 782 317 569 311 675 b 299 818 300 793 299 806 l 299 826 b 308 840 299 833 303 838 b 321 842 313 842 317 842 l 379 842 b 396 822 389 840 396 835 b 393 806 396 817 394 811 b 376 461 383 692 376 575 l 378 326 l 378 265 b 393 -85 381 149 382 32 b 396 -117 394 -94 396 -106 m 179 354 b -15 582 179 468 107 582 b -199 347 -154 582 -199 449 b -15 114 -199 235 -140 114 b 178 338 124 114 169 238 b 179 354 179 343 179 349 m 892 347 b 708 582 892 483 818 582 b 514 349 582 582 514 460 l 514 339 b 708 114 525 219 588 114 b 892 347 843 114 892 244 "},"Ḏ":{"ha":1061,"x_min":0,"x_max":0,"o":"m 982 467 b 557 0 982 206 790 0 l 49 0 l 49 43 l 82 43 b 192 108 189 43 192 58 l 192 840 b 82 906 192 890 189 906 l 49 906 l 49 949 l 557 949 b 982 467 794 949 982 731 m 843 467 b 771 776 843 575 831 694 b 518 906 700 875 604 906 l 379 906 b 311 850 314 906 311 896 l 311 99 b 379 43 311 53 314 43 l 519 43 b 767 161 660 43 739 124 b 843 467 817 229 843 313 m 199 -225 l 199 -182 l 700 -182 l 700 -225 "},"ḏ":{"ha":772,"x_min":0,"x_max":0,"o":"m 528 -15 l 528 76 b 342 -15 493 32 431 -15 b 47 299 183 -15 47 122 b 357 614 47 478 193 614 b 532 528 432 614 492 578 l 532 828 b 424 906 532 896 521 906 l 424 949 l 624 964 l 624 121 b 732 43 624 53 635 43 l 732 0 m 528 449 b 513 500 528 474 528 476 b 363 583 469 563 411 583 b 206 494 288 583 235 538 b 163 297 165 432 163 349 b 203 104 163 240 167 161 b 349 15 236 51 286 15 b 513 113 408 15 471 46 b 528 164 528 136 528 139 m 136 -225 l 136 -182 l 638 -182 l 638 -225 "},"₫":{"ha":772,"x_min":0,"x_max":0,"o":"m 501 33 l 501 121 b 325 33 468 79 408 33 b 44 332 174 33 44 164 b 339 632 44 503 183 632 b 506 550 410 632 467 597 l 506 751 l 293 751 l 293 792 l 506 792 l 506 835 b 403 908 506 899 494 908 l 403 950 l 593 964 l 593 792 l 696 792 l 696 751 l 593 751 l 593 163 b 696 89 593 99 603 89 l 696 49 m 696 -21 b 675 -42 696 -32 686 -42 l 65 -42 b 44 -21 54 -42 44 -32 b 65 0 44 -10 54 0 l 675 0 b 696 -21 686 0 696 -10 m 501 475 b 488 524 501 499 501 501 b 344 603 446 582 390 603 b 196 518 274 603 224 558 b 154 331 157 458 154 379 b 193 147 154 276 158 201 b 331 63 224 97 272 63 b 488 156 388 63 447 92 b 501 204 501 178 501 181 "},"˙":{"ha":386,"x_min":0,"x_max":0,"o":"m 267 839 b 192 765 267 804 239 765 b 118 839 150 765 118 801 b 193 913 118 874 146 913 b 267 839 235 913 267 876 "},"̇":{"ha":0,"x_min":0,"x_max":0,"o":"m -274 839 b -349 765 -274 804 -301 765 b -422 839 -390 765 -422 801 b -347 913 -422 874 -394 913 b -274 839 -306 913 -274 876 "},"̣":{"ha":0,"x_min":0,"x_max":0,"o":"m -274 -204 b -349 -278 -274 -239 -301 -278 b -422 -204 -390 -278 -422 -242 b -347 -131 -422 -169 -394 -131 b -274 -204 -306 -131 -274 -167 "},"ı":{"ha":386,"x_min":0,"x_max":0,"o":"m 343 0 b 199 4 296 1 247 4 l 46 0 l 46 43 b 154 106 139 43 154 43 l 154 479 b 51 556 154 547 142 556 l 51 599 l 246 614 l 246 104 b 343 43 246 50 251 43 l 343 0 "},"ȷ":{"ha":425,"x_min":0,"x_max":0,"o":"m 292 -69 b 101 -285 292 -196 206 -285 b -56 -174 22 -285 -56 -246 b 8 -110 -56 -137 -31 -110 b 72 -174 47 -110 72 -137 b 24 -236 72 -211 44 -231 b 99 -254 60 -254 92 -254 b 200 -72 188 -254 200 -135 l 200 478 b 81 556 200 546 188 556 l 81 599 l 292 614 l 292 -69 "},"É":{"ha":946,"x_min":0,"x_max":0,"o":"m 847 0 l 46 0 l 46 43 l 79 43 b 189 108 186 43 189 58 l 189 836 b 79 901 189 886 186 901 l 46 901 l 46 944 l 828 944 l 867 632 l 832 632 b 560 901 810 825 772 901 l 381 901 b 313 846 315 901 313 892 l 313 513 l 438 513 b 588 675 572 513 588 556 l 622 675 l 622 307 l 588 307 b 438 469 588 425 572 469 l 313 469 l 313 99 b 381 43 313 53 315 43 l 565 43 b 871 358 804 43 836 144 l 906 358 m 663 1204 b 632 1167 660 1188 647 1174 l 396 1036 l 376 1065 l 578 1246 b 614 1263 583 1251 597 1263 b 663 1204 644 1263 668 1235 "},"é":{"ha":617,"x_min":0,"x_max":0,"o":"m 576 165 b 344 -15 576 139 514 -15 b 39 306 185 -15 39 119 b 328 622 39 479 167 622 b 576 350 501 622 576 488 b 542 321 576 321 572 321 l 154 321 b 196 113 154 271 154 179 b 353 19 228 61 283 19 b 540 163 367 19 492 19 b 558 182 543 174 546 182 b 576 165 565 182 576 179 m 485 350 b 328 592 485 404 471 592 b 156 350 281 592 164 557 l 485 350 m 481 919 b 457 878 481 903 469 888 l 246 708 l 222 733 l 389 946 b 431 969 394 954 410 969 b 481 919 456 969 481 944 "},"Ĕ":{"ha":946,"x_min":0,"x_max":0,"o":"m 847 0 l 46 0 l 46 43 l 79 43 b 189 108 186 43 189 58 l 189 836 b 79 901 189 886 186 901 l 46 901 l 46 944 l 828 944 l 867 632 l 832 632 b 560 901 810 825 772 901 l 381 901 b 313 846 315 901 313 892 l 313 513 l 438 513 b 588 675 572 513 588 556 l 622 675 l 622 307 l 588 307 b 438 469 588 425 572 469 l 313 469 l 313 99 b 381 43 313 53 315 43 l 565 43 b 871 358 804 43 836 144 l 906 358 m 681 1275 b 472 1036 678 1129 581 1036 b 265 1275 369 1036 268 1125 l 296 1275 b 474 1089 299 1157 386 1089 b 650 1275 556 1089 647 1154 l 681 1275 "},"ĕ":{"ha":617,"x_min":0,"x_max":0,"o":"m 576 165 b 344 -15 576 139 514 -15 b 39 306 185 -15 39 119 b 328 622 39 479 167 622 b 576 350 501 622 576 488 b 542 321 576 321 572 321 l 154 321 b 196 113 154 271 154 179 b 353 19 228 61 283 19 b 540 163 367 19 492 19 b 558 182 543 174 546 182 b 576 165 565 182 576 179 m 485 350 b 328 592 485 404 471 592 b 156 350 281 592 164 557 l 485 350 m 517 958 b 308 719 514 813 417 719 b 101 958 206 719 104 808 l 132 958 b 310 772 135 840 222 772 b 486 958 392 772 483 838 l 517 958 "},"Ě":{"ha":946,"x_min":0,"x_max":0,"o":"m 847 0 l 46 0 l 46 43 l 79 43 b 189 108 186 43 189 58 l 189 836 b 79 901 189 886 186 901 l 46 901 l 46 944 l 828 944 l 867 632 l 832 632 b 560 901 810 825 772 901 l 381 901 b 313 846 315 901 313 892 l 313 513 l 438 513 b 588 675 572 513 588 556 l 622 675 l 622 307 l 588 307 b 438 469 588 425 572 469 l 313 469 l 313 99 b 381 43 313 53 315 43 l 565 43 b 871 358 804 43 836 144 l 906 358 m 472 1022 l 263 1185 l 279 1207 l 474 1115 l 668 1207 l 682 1185 "},"ě":{"ha":617,"x_min":0,"x_max":0,"o":"m 576 165 b 344 -15 576 139 514 -15 b 39 306 185 -15 39 119 b 328 622 39 479 167 622 b 576 350 501 622 576 488 b 542 321 576 321 572 321 l 154 321 b 196 113 154 271 154 179 b 353 19 228 61 283 19 b 540 163 367 19 492 19 b 558 182 543 174 546 182 b 576 165 565 182 576 179 m 485 350 b 328 592 485 404 471 592 b 156 350 281 592 164 557 l 485 350 m 308 717 l 97 942 l 115 961 l 308 811 l 501 961 l 519 942 "},"Ê":{"ha":946,"x_min":0,"x_max":0,"o":"m 847 0 l 46 0 l 46 43 l 79 43 b 189 108 186 43 189 58 l 189 836 b 79 901 189 886 186 901 l 46 901 l 46 944 l 828 944 l 867 632 l 832 632 b 560 901 810 825 772 901 l 381 901 b 313 846 315 901 313 892 l 313 513 l 438 513 b 588 675 572 513 588 556 l 622 675 l 622 307 l 588 307 b 438 469 588 425 572 469 l 313 469 l 313 99 b 381 43 313 53 315 43 l 565 43 b 871 358 804 43 836 144 l 906 358 m 665 1022 l 471 1114 l 276 1022 l 263 1044 l 472 1207 l 682 1044 "},"ê":{"ha":617,"x_min":0,"x_max":0,"o":"m 576 165 b 344 -15 576 139 514 -15 b 39 306 185 -15 39 119 b 328 622 39 479 167 622 b 576 350 501 622 576 488 b 542 321 576 321 572 321 l 154 321 b 196 113 154 271 154 179 b 353 19 228 61 283 19 b 540 163 367 19 492 19 b 558 182 543 174 546 182 b 576 165 565 182 576 179 m 485 350 b 328 592 485 404 471 592 b 156 350 281 592 164 557 l 485 350 m 501 717 l 308 867 l 115 717 l 97 736 l 308 961 l 519 736 "},"Ế":{"ha":946,"x_min":0,"x_max":0,"o":"m 847 0 l 46 0 l 46 43 l 79 43 b 189 108 186 43 189 58 l 189 836 b 79 901 189 886 186 901 l 46 901 l 46 944 l 828 944 l 867 632 l 832 632 b 560 901 810 825 772 901 l 381 901 b 313 846 315 901 313 892 l 313 513 l 438 513 b 588 675 572 513 588 556 l 622 675 l 622 307 l 588 307 b 438 469 588 425 572 469 l 313 469 l 313 99 b 381 43 313 53 315 43 l 565 43 b 871 358 804 43 836 144 l 906 358 m 665 1022 l 471 1114 l 276 1022 l 263 1044 l 472 1207 l 682 1044 m 615 1403 b 585 1365 613 1386 600 1372 l 349 1235 l 329 1264 l 531 1444 b 567 1461 536 1450 550 1461 b 615 1403 597 1461 621 1433 "},"ế":{"ha":617,"x_min":0,"x_max":0,"o":"m 576 165 b 344 -15 576 139 514 -15 b 39 306 185 -15 39 119 b 328 622 39 479 167 622 b 576 350 501 622 576 488 b 542 321 576 321 572 321 l 154 321 b 196 113 154 271 154 179 b 353 19 228 61 283 19 b 540 163 367 19 492 19 b 558 182 543 174 546 182 b 576 165 565 182 576 179 m 485 350 b 328 592 485 404 471 592 b 156 350 281 592 164 557 l 485 350 m 501 717 l 307 808 l 113 717 l 99 739 l 308 901 l 518 739 m 451 1097 b 421 1060 449 1081 436 1067 l 185 929 l 165 958 l 367 1139 b 403 1156 372 1144 386 1156 b 451 1097 433 1156 457 1128 "},"Ệ":{"ha":946,"x_min":0,"x_max":0,"o":"m 847 0 l 46 0 l 46 43 l 79 43 b 189 108 186 43 189 58 l 189 836 b 79 901 189 886 186 901 l 46 901 l 46 944 l 828 944 l 867 632 l 832 632 b 560 901 810 825 772 901 l 381 901 b 313 846 315 901 313 892 l 313 513 l 438 513 b 588 675 572 513 588 556 l 622 675 l 622 307 l 588 307 b 438 469 588 425 572 469 l 313 469 l 313 99 b 381 43 313 53 315 43 l 565 43 b 871 358 804 43 836 144 l 906 358 m 665 1022 l 471 1114 l 276 1022 l 263 1044 l 472 1207 l 682 1044 m 546 -204 b 471 -278 546 -239 518 -278 b 397 -204 429 -278 397 -242 b 472 -131 397 -169 425 -131 b 546 -204 514 -131 546 -167 "},"ệ":{"ha":617,"x_min":0,"x_max":0,"o":"m 576 165 b 344 -15 576 139 514 -15 b 39 306 185 -15 39 119 b 328 622 39 479 167 622 b 576 350 501 622 576 488 b 542 321 576 321 572 321 l 154 321 b 196 113 154 271 154 179 b 353 19 228 61 283 19 b 540 163 367 19 492 19 b 558 182 543 174 546 182 b 576 165 565 182 576 179 m 485 350 b 328 592 485 404 471 592 b 156 350 281 592 164 557 l 485 350 m 501 717 l 308 867 l 115 717 l 97 736 l 308 961 l 519 736 m 382 -204 b 307 -278 382 -239 354 -278 b 233 -204 265 -278 233 -242 b 308 -131 233 -169 261 -131 b 382 -204 350 -131 382 -167 "},"Ề":{"ha":946,"x_min":0,"x_max":0,"o":"m 847 0 l 46 0 l 46 43 l 79 43 b 189 108 186 43 189 58 l 189 836 b 79 901 189 886 186 901 l 46 901 l 46 944 l 828 944 l 867 632 l 832 632 b 560 901 810 825 772 901 l 381 901 b 313 846 315 901 313 892 l 313 513 l 438 513 b 588 675 572 513 588 556 l 622 675 l 622 307 l 588 307 b 438 469 588 425 572 469 l 313 469 l 313 99 b 381 43 313 53 315 43 l 565 43 b 871 358 804 43 836 144 l 906 358 m 665 1022 l 471 1114 l 276 1022 l 263 1044 l 472 1207 l 682 1044 m 414 1444 b 378 1461 408 1450 394 1461 b 329 1403 347 1461 324 1433 b 360 1365 332 1386 344 1372 l 596 1235 l 615 1264 "},"ề":{"ha":617,"x_min":0,"x_max":0,"o":"m 576 165 b 344 -15 576 139 514 -15 b 39 306 185 -15 39 119 b 328 622 39 479 167 622 b 576 350 501 622 576 488 b 542 321 576 321 572 321 l 154 321 b 196 113 154 271 154 179 b 353 19 228 61 283 19 b 540 163 367 19 492 19 b 558 182 543 174 546 182 b 576 165 565 182 576 179 m 485 350 b 328 592 485 404 471 592 b 156 350 281 592 164 557 l 485 350 m 501 717 l 307 808 l 113 717 l 99 739 l 308 901 l 518 739 m 250 1139 b 214 1156 244 1144 231 1156 b 165 1097 183 1156 160 1128 b 196 1060 168 1081 181 1067 l 432 929 l 451 958 "},"Ể":{"ha":946,"x_min":0,"x_max":0,"o":"m 847 0 l 46 0 l 46 43 l 79 43 b 189 108 186 43 189 58 l 189 836 b 79 901 189 886 186 901 l 46 901 l 46 944 l 828 944 l 867 632 l 832 632 b 560 901 810 825 772 901 l 381 901 b 313 846 315 901 313 892 l 313 513 l 438 513 b 588 675 572 513 588 556 l 622 675 l 622 307 l 588 307 b 438 469 588 425 572 469 l 313 469 l 313 99 b 381 43 313 53 315 43 l 565 43 b 871 358 804 43 836 144 l 906 358 m 665 1022 l 471 1114 l 276 1022 l 263 1044 l 472 1207 l 682 1044 m 742 1404 b 700 1344 742 1378 725 1356 b 611 1247 644 1317 611 1286 l 611 1221 b 597 1207 611 1213 606 1207 b 583 1221 590 1207 583 1213 l 583 1247 b 650 1367 583 1293 611 1335 b 667 1404 661 1375 667 1389 b 656 1453 667 1431 665 1444 b 597 1471 640 1467 618 1471 b 519 1446 565 1471 538 1461 b 554 1404 539 1443 554 1428 b 514 1364 554 1379 535 1364 b 472 1406 492 1364 472 1379 b 597 1497 472 1463 532 1497 b 701 1475 638 1497 672 1492 b 742 1404 726 1460 742 1433 "},"ể":{"ha":617,"x_min":0,"x_max":0,"o":"m 576 165 b 344 -15 576 139 514 -15 b 39 306 185 -15 39 119 b 328 622 39 479 167 622 b 576 350 501 622 576 488 b 542 321 576 321 572 321 l 154 321 b 196 113 154 271 154 179 b 353 19 228 61 283 19 b 540 163 367 19 492 19 b 558 182 543 174 546 182 b 576 165 565 182 576 179 m 485 350 b 328 592 485 404 471 592 b 156 350 281 592 164 557 l 485 350 m 501 717 l 307 808 l 113 717 l 99 739 l 308 901 l 518 739 m 578 1099 b 536 1039 578 1072 561 1050 b 447 942 481 1011 447 981 l 447 915 b 433 901 447 907 442 901 b 419 915 426 901 419 907 l 419 942 b 486 1061 419 988 447 1029 b 503 1099 497 1069 503 1083 b 492 1147 503 1125 501 1139 b 433 1165 476 1161 454 1165 b 356 1140 401 1165 374 1156 b 390 1099 375 1138 390 1122 b 350 1058 390 1074 371 1058 b 308 1100 328 1058 308 1074 b 433 1192 308 1157 368 1192 b 538 1169 474 1192 508 1186 b 578 1099 563 1154 578 1128 "},"Ễ":{"ha":946,"x_min":0,"x_max":0,"o":"m 847 0 l 46 0 l 46 43 l 79 43 b 189 108 186 43 189 58 l 189 836 b 79 901 189 886 186 901 l 46 901 l 46 944 l 828 944 l 867 632 l 832 632 b 560 901 810 825 772 901 l 381 901 b 313 846 315 901 313 892 l 313 513 l 438 513 b 588 675 572 513 588 556 l 622 675 l 622 307 l 588 307 b 438 469 588 425 572 469 l 313 469 l 313 99 b 381 43 313 53 315 43 l 565 43 b 871 358 804 43 836 144 l 906 358 m 665 1022 l 471 1114 l 276 1022 l 263 1044 l 472 1207 l 682 1044 m 704 1371 b 554 1263 633 1293 607 1263 b 468 1294 531 1263 506 1272 b 378 1329 444 1308 410 1329 b 264 1263 317 1329 264 1263 l 242 1283 b 392 1392 313 1361 339 1392 b 478 1360 415 1392 440 1382 b 568 1325 501 1346 536 1325 b 682 1392 629 1325 682 1392 l 704 1371 "},"ễ":{"ha":617,"x_min":0,"x_max":0,"o":"m 576 165 b 344 -15 576 139 514 -15 b 39 306 185 -15 39 119 b 328 622 39 479 167 622 b 576 350 501 622 576 488 b 542 321 576 321 572 321 l 154 321 b 196 113 154 271 154 179 b 353 19 228 61 283 19 b 540 163 367 19 492 19 b 558 182 543 174 546 182 b 576 165 565 182 576 179 m 485 350 b 328 592 485 404 471 592 b 156 350 281 592 164 557 l 485 350 m 501 717 l 307 808 l 113 717 l 99 739 l 308 901 l 518 739 m 540 1065 b 390 957 469 988 443 957 b 304 989 367 957 342 967 b 214 1024 281 1003 246 1024 b 100 957 153 1024 100 957 l 78 978 b 228 1086 149 1056 175 1086 b 314 1054 251 1086 276 1076 b 404 1019 338 1040 372 1019 b 518 1086 465 1019 518 1086 l 540 1065 "},"Ȅ":{"ha":946,"x_min":0,"x_max":0,"o":"m 847 0 l 46 0 l 46 43 l 79 43 b 189 108 186 43 189 58 l 189 836 b 79 901 189 886 186 901 l 46 901 l 46 944 l 828 944 l 867 632 l 832 632 b 560 901 810 825 772 901 l 381 901 b 313 846 315 901 313 892 l 313 513 l 438 513 b 588 675 572 513 588 556 l 622 675 l 622 307 l 588 307 b 438 469 588 425 572 469 l 313 469 l 313 99 b 381 43 313 53 315 43 l 565 43 b 871 358 804 43 836 144 l 906 358 m 642 1053 b 613 1036 636 1049 615 1038 l 485 1211 b 468 1247 472 1228 468 1233 b 519 1294 468 1272 493 1294 b 567 1254 551 1294 560 1271 l 642 1053 m 410 1053 b 381 1036 404 1049 383 1038 l 253 1211 b 236 1247 240 1228 236 1233 b 288 1294 236 1272 261 1294 b 335 1254 319 1294 328 1271 l 410 1053 "},"ȅ":{"ha":617,"x_min":0,"x_max":0,"o":"m 576 165 b 344 -15 576 139 514 -15 b 39 306 185 -15 39 119 b 328 622 39 479 167 622 b 576 350 501 622 576 488 b 542 321 576 321 572 321 l 154 321 b 196 113 154 271 154 179 b 353 19 228 61 283 19 b 540 163 367 19 492 19 b 558 182 543 174 546 182 b 576 165 565 182 576 179 m 485 350 b 328 592 485 404 471 592 b 156 350 281 592 164 557 l 485 350 m 478 726 b 449 710 472 722 451 711 l 321 885 b 304 921 308 901 304 907 b 356 968 304 946 329 968 b 403 928 388 968 396 944 l 478 726 m 246 726 b 217 710 240 722 219 711 l 89 885 b 72 921 76 901 72 907 b 124 968 72 946 97 968 b 171 928 156 968 164 944 l 246 726 "},"Ë":{"ha":946,"x_min":0,"x_max":0,"o":"m 847 0 l 46 0 l 46 43 l 79 43 b 189 108 186 43 189 58 l 189 836 b 79 901 189 886 186 901 l 46 901 l 46 944 l 828 944 l 867 632 l 832 632 b 560 901 810 825 772 901 l 381 901 b 313 846 315 901 313 892 l 313 513 l 438 513 b 588 675 572 513 588 556 l 622 675 l 622 307 l 588 307 b 438 469 588 425 572 469 l 313 469 l 313 99 b 381 43 313 53 315 43 l 565 43 b 871 358 804 43 836 144 l 906 358 m 394 1089 b 326 1022 394 1057 369 1022 b 260 1089 289 1022 260 1054 b 328 1154 260 1119 285 1154 b 394 1089 365 1154 394 1122 m 686 1089 b 618 1022 686 1057 661 1022 b 551 1089 581 1022 551 1054 b 619 1154 551 1119 576 1154 b 686 1089 657 1154 686 1122 "},"ë":{"ha":617,"x_min":0,"x_max":0,"o":"m 576 165 b 344 -15 576 139 514 -15 b 39 306 185 -15 39 119 b 328 622 39 479 167 622 b 576 350 501 622 576 488 b 542 321 576 321 572 321 l 154 321 b 196 113 154 271 154 179 b 353 19 228 61 283 19 b 540 163 367 19 492 19 b 558 182 543 174 546 182 b 576 165 565 182 576 179 m 485 350 b 328 592 485 404 471 592 b 156 350 281 592 164 557 l 485 350 m 253 840 b 185 774 253 808 228 774 b 118 840 147 774 118 806 b 186 906 118 871 143 906 b 253 840 224 906 253 874 m 500 840 b 432 774 500 808 475 774 b 365 840 394 774 365 806 b 433 906 365 871 390 906 b 500 840 471 906 500 874 "},"Ė":{"ha":946,"x_min":0,"x_max":0,"o":"m 847 0 l 46 0 l 46 43 l 79 43 b 189 108 186 43 189 58 l 189 836 b 79 901 189 886 186 901 l 46 901 l 46 944 l 828 944 l 867 632 l 832 632 b 560 901 810 825 772 901 l 381 901 b 313 846 315 901 313 892 l 313 513 l 438 513 b 588 675 572 513 588 556 l 622 675 l 622 307 l 588 307 b 438 469 588 425 572 469 l 313 469 l 313 99 b 381 43 313 53 315 43 l 565 43 b 871 358 804 43 836 144 l 906 358 m 546 1126 b 471 1053 546 1092 518 1053 b 397 1126 429 1053 397 1089 b 472 1200 397 1161 425 1200 b 546 1126 514 1200 546 1164 "},"ė":{"ha":617,"x_min":0,"x_max":0,"o":"m 576 165 b 344 -15 576 139 514 -15 b 39 306 185 -15 39 119 b 328 622 39 479 167 622 b 576 350 501 622 576 488 b 542 321 576 321 572 321 l 154 321 b 196 113 154 271 154 179 b 353 19 228 61 283 19 b 540 163 367 19 492 19 b 558 182 543 174 546 182 b 576 165 565 182 576 179 m 485 350 b 328 592 485 404 471 592 b 156 350 281 592 164 557 l 485 350 m 382 839 b 307 765 382 804 354 765 b 233 839 265 765 233 801 b 308 913 233 874 261 913 b 382 839 350 913 382 876 "},"Ẹ":{"ha":946,"x_min":0,"x_max":0,"o":"m 847 0 l 46 0 l 46 43 l 79 43 b 189 108 186 43 189 58 l 189 836 b 79 901 189 886 186 901 l 46 901 l 46 944 l 828 944 l 867 632 l 832 632 b 560 901 810 825 772 901 l 381 901 b 313 846 315 901 313 892 l 313 513 l 438 513 b 588 675 572 513 588 556 l 622 675 l 622 307 l 588 307 b 438 469 588 425 572 469 l 313 469 l 313 99 b 381 43 313 53 315 43 l 565 43 b 871 358 804 43 836 144 l 906 358 m 546 -204 b 471 -278 546 -239 518 -278 b 397 -204 429 -278 397 -242 b 472 -131 397 -169 425 -131 b 546 -204 514 -131 546 -167 "},"ẹ":{"ha":617,"x_min":0,"x_max":0,"o":"m 576 165 b 344 -15 576 139 514 -15 b 39 306 185 -15 39 119 b 328 622 39 479 167 622 b 576 350 501 622 576 488 b 542 321 576 321 572 321 l 154 321 b 196 113 154 271 154 179 b 353 19 228 61 283 19 b 540 163 367 19 492 19 b 558 182 543 174 546 182 b 576 165 565 182 576 179 m 485 350 b 328 592 485 404 471 592 b 156 350 281 592 164 557 l 485 350 m 382 -204 b 307 -278 382 -239 354 -278 b 233 -204 265 -278 233 -242 b 308 -131 233 -169 261 -131 b 382 -204 350 -131 382 -167 "},"È":{"ha":946,"x_min":0,"x_max":0,"o":"m 847 0 l 46 0 l 46 43 l 79 43 b 189 108 186 43 189 58 l 189 836 b 79 901 189 886 186 901 l 46 901 l 46 944 l 828 944 l 867 632 l 832 632 b 560 901 810 825 772 901 l 381 901 b 313 846 315 901 313 892 l 313 513 l 438 513 b 588 675 572 513 588 556 l 622 675 l 622 307 l 588 307 b 438 469 588 425 572 469 l 313 469 l 313 99 b 381 43 313 53 315 43 l 565 43 b 871 358 804 43 836 144 l 906 358 m 549 1036 l 313 1167 b 282 1204 297 1174 285 1188 b 331 1263 276 1235 300 1263 b 367 1246 347 1263 361 1251 l 568 1065 "},"è":{"ha":617,"x_min":0,"x_max":0,"o":"m 576 165 b 344 -15 576 139 514 -15 b 39 306 185 -15 39 119 b 328 622 39 479 167 622 b 576 350 501 622 576 488 b 542 321 576 321 572 321 l 154 321 b 196 113 154 271 154 179 b 353 19 228 61 283 19 b 540 163 367 19 492 19 b 558 182 543 174 546 182 b 576 165 565 182 576 179 m 485 350 b 328 592 485 404 471 592 b 156 350 281 592 164 557 l 485 350 m 371 708 l 160 878 b 136 919 147 888 136 903 b 186 969 136 944 161 969 b 228 946 207 969 222 954 l 394 733 "},"Ẻ":{"ha":946,"x_min":0,"x_max":0,"o":"m 847 0 l 46 0 l 46 43 l 79 43 b 189 108 186 43 189 58 l 189 836 b 79 901 189 886 186 901 l 46 901 l 46 944 l 828 944 l 867 632 l 832 632 b 560 901 810 825 772 901 l 381 901 b 313 846 315 901 313 892 l 313 513 l 438 513 b 588 675 572 513 588 556 l 622 675 l 622 307 l 588 307 b 438 469 588 425 572 469 l 313 469 l 313 99 b 381 43 313 53 315 43 l 565 43 b 871 358 804 43 836 144 l 906 358 m 607 1250 b 565 1190 607 1224 590 1201 b 476 1093 510 1163 476 1132 l 476 1067 b 463 1053 476 1058 471 1053 b 449 1067 456 1053 449 1058 l 449 1093 b 515 1213 449 1139 476 1181 b 532 1250 526 1221 532 1235 b 521 1299 532 1276 531 1290 b 463 1317 506 1313 483 1317 b 385 1292 431 1317 403 1307 b 419 1250 404 1289 419 1274 b 379 1210 419 1225 400 1210 b 338 1251 357 1210 338 1225 b 463 1343 338 1308 397 1343 b 567 1321 503 1343 538 1338 b 607 1250 592 1306 607 1279 "},"ẻ":{"ha":617,"x_min":0,"x_max":0,"o":"m 576 165 b 344 -15 576 139 514 -15 b 39 306 185 -15 39 119 b 328 622 39 479 167 622 b 576 350 501 622 576 488 b 542 321 576 321 572 321 l 154 321 b 196 113 154 271 154 179 b 353 19 228 61 283 19 b 540 163 367 19 492 19 b 558 182 543 174 546 182 b 576 165 565 182 576 179 m 485 350 b 328 592 485 404 471 592 b 156 350 281 592 164 557 l 485 350 m 443 892 b 401 832 443 865 426 843 b 313 735 346 804 313 774 l 313 708 b 299 694 313 700 307 694 b 285 708 292 694 285 700 l 285 735 b 351 854 285 781 313 822 b 368 892 363 863 368 876 b 357 940 368 918 367 932 b 299 958 342 954 319 958 b 221 933 267 958 239 949 b 256 892 240 931 256 915 b 215 851 256 867 236 851 b 174 893 193 851 174 867 b 299 985 174 950 233 985 b 403 963 339 985 374 979 b 443 892 428 947 443 921 "},"…":{"ha":931,"x_min":0,"x_max":0,"o":"m 267 74 b 193 0 267 33 233 0 b 119 74 153 0 119 33 b 193 147 119 114 153 147 b 267 74 233 147 267 114 m 539 74 b 465 0 539 33 506 0 b 392 74 425 0 392 33 b 465 147 392 114 425 147 b 539 74 506 147 539 114 m 811 74 b 738 0 811 33 778 0 b 664 74 697 0 664 33 b 738 147 664 114 697 147 b 811 74 778 147 811 114 "},"Ē":{"ha":946,"x_min":0,"x_max":0,"o":"m 847 0 l 46 0 l 46 43 l 79 43 b 189 108 186 43 189 58 l 189 836 b 79 901 189 886 186 901 l 46 901 l 46 944 l 828 944 l 867 632 l 832 632 b 560 901 810 825 772 901 l 381 901 b 313 846 315 901 313 892 l 313 513 l 438 513 b 588 675 572 513 588 556 l 622 675 l 622 307 l 588 307 b 438 469 588 425 572 469 l 313 469 l 313 99 b 381 43 313 53 315 43 l 565 43 b 871 358 804 43 836 144 l 906 358 m 222 1050 l 222 1093 l 724 1093 l 724 1050 "},"ē":{"ha":617,"x_min":0,"x_max":0,"o":"m 576 165 b 344 -15 576 139 514 -15 b 39 306 185 -15 39 119 b 328 622 39 479 167 622 b 576 350 501 622 576 488 b 542 321 576 321 572 321 l 154 321 b 196 113 154 271 154 179 b 353 19 228 61 283 19 b 540 163 367 19 492 19 b 558 182 543 174 546 182 b 576 165 565 182 576 179 m 485 350 b 328 592 485 404 471 592 b 156 350 281 592 164 557 l 485 350 m 58 818 l 58 861 l 560 861 l 560 818 "},"—":{"ha":1389,"x_min":0,"x_max":0,"o":"m 0 354 l 0 385 l 1388 385 l 1388 354 "},"–":{"ha":694,"x_min":0,"x_max":0,"o":"m 0 354 l 0 385 l 693 385 l 693 354 "},"Ŋ":{"ha":1042,"x_min":0,"x_max":0,"o":"m 990 475 b 694 -31 990 226 910 -31 b 631 33 660 -31 631 -1 b 694 97 631 68 660 97 b 758 33 729 97 758 68 l 758 24 b 849 475 849 88 849 296 b 574 943 849 704 772 943 b 313 793 463 943 365 883 l 313 108 b 426 43 313 58 317 43 l 463 43 l 463 0 b 250 4 414 4 304 4 b 39 0 197 4 88 4 l 39 43 l 75 43 b 189 108 185 43 189 58 l 189 840 b 75 906 189 890 185 906 l 39 906 l 39 949 b 251 944 88 944 197 944 b 313 949 272 944 292 946 l 313 854 b 574 979 375 931 468 979 b 990 475 821 979 990 739 "},"ŋ":{"ha":703,"x_min":0,"x_max":0,"o":"m 635 96 b 425 -300 635 -96 589 -300 b 376 -251 397 -300 376 -279 b 425 -203 376 -225 397 -203 b 472 -249 450 -203 471 -224 b 539 96 539 -200 539 -40 l 539 429 b 436 583 539 508 524 583 b 249 361 347 583 249 506 l 249 106 b 357 43 249 43 264 43 l 357 0 l 201 4 l 44 0 l 44 43 b 153 106 138 43 153 43 l 153 478 b 44 556 153 546 142 556 l 44 599 l 240 614 l 240 468 b 446 614 279 554 344 614 b 592 563 526 614 572 586 b 635 350 635 513 635 469 l 635 96 "},"Ę":{"ha":946,"x_min":0,"x_max":0,"o":"m 847 0 l 688 0 b 596 -132 633 -39 596 -76 b 717 -228 596 -196 667 -228 b 824 -150 761 -228 800 -200 b 847 -160 831 -136 851 -143 b 683 -293 825 -239 753 -293 b 529 -168 594 -293 529 -232 b 636 0 529 -96 574 -37 l 46 0 l 46 43 l 79 43 b 189 108 186 43 189 58 l 189 836 b 79 901 189 886 186 901 l 46 901 l 46 944 l 828 944 l 867 632 l 832 632 b 560 901 810 825 772 901 l 381 901 b 313 846 315 901 313 892 l 313 513 l 438 513 b 588 675 572 513 588 556 l 622 675 l 622 307 l 588 307 b 438 469 588 425 572 469 l 313 469 l 313 99 b 381 43 313 53 315 43 l 565 43 b 871 358 804 43 836 144 l 906 358 "},"ę":{"ha":617,"x_min":0,"x_max":0,"o":"m 576 165 b 410 -7 576 143 531 25 b 304 -132 357 -36 304 -76 b 425 -228 304 -196 375 -228 b 532 -150 469 -228 508 -200 b 556 -160 539 -136 560 -143 b 392 -293 533 -239 461 -293 b 238 -168 303 -293 238 -232 b 329 -15 238 -108 281 -57 b 39 306 175 -7 39 125 b 328 622 39 479 167 622 b 576 350 501 622 576 488 b 542 321 576 321 572 321 l 154 321 b 196 113 154 271 154 179 b 353 19 228 61 283 19 b 540 163 367 19 492 19 b 558 182 543 174 546 182 b 576 165 565 182 576 179 m 485 350 b 328 592 485 404 471 592 b 156 350 281 592 164 557 l 485 350 "},"Ε":{"ha":946,"x_min":0,"x_max":0,"o":"m 847 0 l 46 0 l 46 43 l 79 43 b 189 108 186 43 189 58 l 189 836 b 79 901 189 886 186 901 l 46 901 l 46 944 l 828 944 l 867 632 l 832 632 b 560 901 810 825 772 901 l 381 901 b 313 846 315 901 313 892 l 313 513 l 438 513 b 588 675 572 513 588 556 l 622 675 l 622 307 l 588 307 b 438 469 588 425 572 469 l 313 469 l 313 99 b 381 43 313 53 315 43 l 565 43 b 871 358 804 43 836 144 l 906 358 "},"Ǝ":{"ha":946,"x_min":0,"x_max":0,"o":"m 104 0 l 46 358 l 81 358 b 386 43 115 144 147 43 l 571 43 b 639 99 636 43 639 53 l 639 469 l 514 469 b 364 307 379 469 364 425 l 329 307 l 329 675 l 364 675 b 514 513 364 556 379 513 l 639 513 l 639 846 b 571 901 639 892 636 901 l 392 901 b 119 632 179 901 142 825 l 85 632 l 124 944 l 906 944 l 906 901 l 872 901 b 763 836 765 901 763 886 l 763 108 b 872 43 763 58 765 43 l 906 43 l 906 0 "},"ɘ":{"ha":617,"x_min":0,"x_max":0,"o":"m 576 306 b 271 -15 576 119 431 -15 b 39 165 101 -15 39 139 b 57 182 39 179 50 182 b 75 163 69 182 72 174 b 263 19 124 19 249 19 b 419 113 332 19 388 61 b 461 321 461 179 461 271 l 74 321 b 39 350 43 321 39 321 b 288 622 39 488 114 622 b 576 306 449 622 576 479 m 460 350 b 288 592 451 557 335 592 b 131 350 144 592 131 404 l 460 350 "},"℮":{"ha":939,"x_min":0,"x_max":0,"o":"m 899 168 b 888 143 899 160 892 150 b 506 -14 814 10 640 -14 l 486 -14 b 39 481 203 7 39 243 b 497 974 39 746 236 974 b 769 871 597 974 696 940 b 899 506 865 781 899 633 b 876 479 899 489 896 479 l 182 479 b 235 208 182 388 193 292 b 517 21 290 101 392 21 b 822 113 618 21 743 36 b 883 183 843 133 863 183 b 899 168 889 183 899 176 m 767 508 b 715 786 767 603 756 700 b 489 942 669 882 589 942 b 182 508 265 942 186 693 l 767 508 "},"Η":{"ha":1042,"x_min":0,"x_max":0,"o":"m 994 0 b 789 4 946 4 842 4 b 585 0 736 4 633 4 l 585 43 l 618 43 b 728 108 725 43 728 58 l 728 472 l 313 472 l 313 108 b 422 43 313 58 315 43 l 456 43 l 456 0 b 250 4 407 4 303 4 b 46 0 197 4 94 4 l 46 43 l 79 43 b 189 108 186 43 189 58 l 189 840 b 79 906 189 890 186 906 l 46 906 l 46 949 b 251 944 94 944 199 944 b 456 949 304 944 407 944 l 456 906 l 422 906 b 313 840 315 906 313 890 l 313 515 l 728 515 l 728 840 b 618 906 728 890 725 906 l 585 906 l 585 949 b 790 944 633 944 738 944 b 994 949 843 944 946 944 l 994 906 l 961 906 b 851 840 854 906 851 890 l 851 108 b 961 43 851 58 854 43 l 994 43 l 994 0 "},"Ð":{"ha":1061,"x_min":0,"x_max":0,"o":"m 982 467 b 557 0 982 206 790 0 l 49 0 l 49 43 l 82 43 b 192 108 189 43 192 58 l 192 454 l 49 454 l 49 496 l 192 496 l 192 840 b 82 906 192 890 189 906 l 49 906 l 49 949 l 557 949 b 982 467 794 949 982 731 m 843 467 b 771 776 843 575 831 694 b 518 906 700 875 604 906 l 379 906 b 311 850 314 906 311 896 l 311 496 l 531 496 l 531 454 l 311 454 l 311 99 b 379 43 311 53 314 43 l 519 43 b 767 161 660 43 739 124 b 843 467 817 229 843 313 "},"ð":{"ha":694,"x_min":0,"x_max":0,"o":"m 654 331 b 558 69 654 260 654 164 b 347 -15 519 32 444 -15 b 39 296 178 -15 39 122 b 343 621 39 481 185 621 b 511 519 418 621 475 574 b 304 826 476 643 403 749 l 185 757 l 164 794 l 265 853 b 100 929 215 886 160 913 l 111 965 b 324 886 185 949 257 922 l 450 960 l 472 922 l 367 861 b 574 649 450 808 522 736 b 654 331 654 510 654 400 m 538 297 b 346 590 538 465 450 590 b 201 510 301 590 243 569 b 156 308 160 447 156 371 b 194 113 156 256 158 174 b 347 19 232 50 289 19 b 538 297 374 19 538 29 "},"Ẽ":{"ha":946,"x_min":0,"x_max":0,"o":"m 847 0 l 46 0 l 46 43 l 79 43 b 189 108 186 43 189 58 l 189 836 b 79 901 189 886 186 901 l 46 901 l 46 944 l 828 944 l 867 632 l 832 632 b 560 901 810 825 772 901 l 381 901 b 313 846 315 901 313 892 l 313 513 l 438 513 b 588 675 572 513 588 556 l 622 675 l 622 307 l 588 307 b 438 469 588 425 572 469 l 313 469 l 313 99 b 381 43 313 53 315 43 l 565 43 b 871 358 804 43 836 144 l 906 358 m 704 1131 b 554 1022 633 1053 607 1022 b 468 1054 531 1022 506 1032 b 378 1089 444 1068 410 1089 b 264 1022 317 1089 264 1022 l 242 1043 b 392 1151 313 1121 339 1151 b 478 1119 415 1151 440 1142 b 568 1085 501 1106 536 1085 b 682 1151 629 1085 682 1151 l 704 1131 "},"ẽ":{"ha":617,"x_min":0,"x_max":0,"o":"m 576 165 b 344 -15 576 139 514 -15 b 39 306 185 -15 39 119 b 328 622 39 479 167 622 b 576 350 501 622 576 488 b 542 321 576 321 572 321 l 154 321 b 196 113 154 271 154 179 b 353 19 228 61 283 19 b 540 163 367 19 492 19 b 558 182 543 174 546 182 b 576 165 565 182 576 179 m 485 350 b 328 592 485 404 471 592 b 156 350 281 592 164 557 l 485 350 m 540 883 b 390 775 469 806 443 775 b 304 807 367 775 342 785 b 214 842 281 821 246 842 b 100 775 153 842 100 775 l 78 796 b 228 904 149 874 175 904 b 314 872 251 904 276 894 b 404 838 338 858 372 838 b 518 904 465 838 518 904 l 540 883 "},"ǝ":{"ha":617,"x_min":0,"x_max":0,"o":"m 576 301 b 288 -15 576 128 449 -15 b 39 257 114 -15 39 119 b 74 286 39 286 43 286 l 461 286 b 419 494 461 336 461 428 b 263 588 388 546 332 588 b 75 444 249 588 124 588 b 57 425 72 433 69 425 b 39 442 50 425 39 428 b 271 622 39 468 101 622 b 576 301 431 622 576 488 m 131 257 b 288 15 131 203 144 15 b 460 257 335 15 451 50 "},"€":{"ha":871,"x_min":0,"x_max":0,"o":"m 793 750 b 779 736 793 742 788 736 l 765 736 b 751 749 758 736 753 742 b 569 938 740 851 668 938 b 365 807 482 938 410 881 b 300 574 322 736 306 656 l 704 574 b 718 560 713 574 719 567 l 714 542 b 700 532 711 536 706 532 l 299 532 l 297 475 l 299 418 l 660 418 b 674 404 668 418 675 411 l 669 386 b 656 376 667 381 661 376 l 300 376 b 365 143 306 293 322 214 b 569 11 410 68 482 11 b 751 200 668 11 740 99 b 765 213 753 207 758 213 l 779 213 b 793 199 788 213 793 207 l 793 -17 b 779 -31 793 -25 788 -31 l 775 -31 b 765 -26 771 -31 767 -29 l 711 32 b 556 -31 669 -7 615 -31 b 271 118 443 -31 342 31 b 163 376 213 193 178 282 l 90 376 b 76 393 81 376 74 385 l 81 407 b 93 418 82 414 88 418 l 158 418 b 156 475 157 436 156 456 b 158 532 156 493 157 513 l 90 532 b 76 549 81 532 74 540 l 81 563 b 93 574 82 569 88 574 l 163 574 b 271 831 178 667 213 756 b 556 979 342 919 443 979 b 711 917 615 979 669 956 l 765 975 b 775 979 767 978 771 979 l 779 979 b 793 965 788 979 793 974 l 793 750 "},"¡":{"ha":386,"x_min":0,"x_max":0,"o":"m 267 621 b 193 547 267 581 233 547 b 119 621 153 547 119 581 b 193 694 119 661 153 694 b 267 621 233 694 267 661 m 267 -229 b 193 -300 267 -275 229 -300 b 119 -229 157 -300 119 -275 l 174 404 b 193 435 175 428 179 435 b 213 403 210 435 211 424 l 265 -214 l 267 -229 "},"ƒ":{"ha":425,"x_min":0,"x_max":0,"o":"m 496 882 b 435 821 496 849 475 821 b 375 881 397 821 375 849 b 417 939 375 915 400 933 b 371 949 396 949 375 949 b 243 760 310 949 243 882 l 243 599 l 406 599 l 406 556 l 247 556 l 247 108 b 353 43 247 58 250 43 l 382 43 l 382 0 b 206 4 326 4 261 4 l 47 0 l 47 43 b 156 106 140 43 156 43 l 156 556 l 46 556 l 46 599 l 156 599 l 156 758 b 371 979 156 906 274 979 b 496 882 444 979 496 933 "},"⁄":{"ha":765,"x_min":0,"x_max":0,"o":"m 689 921 b 685 907 689 915 686 911 l 129 13 b 106 0 124 6 115 0 b 78 28 90 0 78 13 b 82 43 78 33 79 38 l 638 936 b 661 949 642 944 650 949 b 689 921 676 949 689 936 "},"∕":{"ha":0,"x_min":0,"x_max":0,"o":"m 306 921 b 301 907 306 915 303 911 l -254 13 b -278 0 -260 6 -268 0 b -306 28 -293 0 -306 13 b -301 43 -306 33 -304 38 l 254 936 b 278 949 258 944 267 949 b 306 921 293 949 306 936 "},"Ǵ":{"ha":1090,"x_min":0,"x_max":0,"o":"m 1021 336 b 925 275 931 336 925 329 l 925 33 b 913 1 925 13 925 1 b 824 88 897 1 842 57 b 564 -31 776 6 665 -31 b 78 475 300 -31 78 190 b 561 979 78 760 303 979 b 818 860 699 979 774 904 l 888 963 b 910 979 899 979 904 979 b 925 946 925 979 925 969 l 925 617 b 903 583 925 588 925 583 b 881 607 883 583 883 588 b 578 936 853 811 726 936 b 221 475 494 936 221 890 b 586 13 221 61 496 13 b 801 181 625 13 801 25 l 801 269 b 672 336 801 321 797 336 l 628 336 l 628 379 b 851 375 678 375 796 375 l 1021 379 l 1021 336 m 735 1204 b 704 1167 732 1188 719 1174 l 468 1036 l 449 1065 l 650 1246 b 686 1263 656 1251 669 1263 b 735 1204 717 1263 740 1235 "},"ǵ":{"ha":694,"x_min":0,"x_max":0,"o":"m 674 561 b 633 519 674 529 647 519 b 593 560 611 519 593 536 b 615 597 593 576 600 592 b 601 599 611 599 601 599 b 476 544 576 599 526 592 b 533 410 511 513 533 461 b 308 207 533 303 438 207 b 171 250 282 207 225 211 b 147 185 147 222 147 190 b 221 92 147 140 176 97 b 325 90 231 90 290 90 b 564 51 410 90 490 90 b 654 -107 635 13 654 -58 b 346 -286 654 -215 510 -286 b 39 -110 176 -286 39 -210 b 167 29 39 -54 83 6 b 106 153 124 57 106 110 b 149 268 106 201 131 247 b 83 411 114 297 83 350 b 308 614 83 518 179 614 b 456 564 339 614 397 610 b 603 629 514 621 575 629 b 674 561 657 629 674 585 m 429 411 b 308 582 429 443 429 582 b 210 526 253 582 221 543 b 188 410 189 492 188 447 b 308 239 188 378 188 239 b 407 294 364 239 396 278 b 429 411 428 329 429 374 m 582 -110 b 307 10 582 10 426 10 l 225 10 b 111 -110 164 6 111 -46 b 347 -254 111 -183 207 -254 b 582 -110 483 -254 582 -185 m 471 919 b 447 878 471 903 460 888 l 236 708 l 213 733 l 379 946 b 421 969 385 954 400 969 b 471 919 446 969 471 944 "},"Γ":{"ha":868,"x_min":0,"x_max":0,"o":"m 774 632 b 524 901 751 819 722 901 l 381 901 b 313 846 315 901 313 892 l 313 110 b 444 43 313 61 313 43 l 490 43 l 490 0 b 257 4 440 4 314 4 b 46 0 203 4 94 4 l 46 43 l 79 43 b 189 108 186 43 189 58 l 189 836 b 79 901 189 886 186 901 l 46 901 l 46 944 l 769 944 l 808 632 "},"Ğ":{"ha":1090,"x_min":0,"x_max":0,"o":"m 1021 336 b 925 275 931 336 925 329 l 925 33 b 913 1 925 13 925 1 b 824 88 897 1 842 57 b 564 -31 776 6 665 -31 b 78 475 300 -31 78 190 b 561 979 78 760 303 979 b 818 860 699 979 774 904 l 888 963 b 910 979 899 979 904 979 b 925 946 925 979 925 969 l 925 617 b 903 583 925 588 925 583 b 881 607 883 583 883 588 b 578 936 853 811 726 936 b 221 475 494 936 221 890 b 586 13 221 61 496 13 b 801 181 625 13 801 25 l 801 269 b 672 336 801 321 797 336 l 628 336 l 628 379 b 851 375 678 375 796 375 l 1021 379 l 1021 336 m 753 1275 b 544 1036 750 1129 653 1036 b 338 1275 442 1036 340 1125 l 368 1275 b 546 1089 371 1157 458 1089 b 722 1275 628 1089 719 1154 l 753 1275 "},"ğ":{"ha":694,"x_min":0,"x_max":0,"o":"m 674 561 b 633 519 674 529 647 519 b 593 560 611 519 593 536 b 615 597 593 576 600 592 b 601 599 611 599 601 599 b 476 544 576 599 526 592 b 533 410 511 513 533 461 b 308 207 533 303 438 207 b 171 250 282 207 225 211 b 147 185 147 222 147 190 b 221 92 147 140 176 97 b 325 90 231 90 290 90 b 564 51 410 90 490 90 b 654 -107 635 13 654 -58 b 346 -286 654 -215 510 -286 b 39 -110 176 -286 39 -210 b 167 29 39 -54 83 6 b 106 153 124 57 106 110 b 149 268 106 201 131 247 b 83 411 114 297 83 350 b 308 614 83 518 179 614 b 456 564 339 614 397 610 b 603 629 514 621 575 629 b 674 561 657 629 674 585 m 429 411 b 308 582 429 443 429 582 b 210 526 253 582 221 543 b 188 410 189 492 188 447 b 308 239 188 378 188 239 b 407 294 364 239 396 278 b 429 411 428 329 429 374 m 582 -110 b 307 10 582 10 426 10 l 225 10 b 111 -110 164 6 111 -46 b 347 -254 111 -183 207 -254 b 582 -110 483 -254 582 -185 m 507 958 b 299 719 504 813 407 719 b 92 958 196 719 94 808 l 122 958 b 300 772 125 840 213 772 b 476 958 382 772 474 838 l 507 958 "},"Ǧ":{"ha":1090,"x_min":0,"x_max":0,"o":"m 1021 336 b 925 275 931 336 925 329 l 925 33 b 913 1 925 13 925 1 b 824 88 897 1 842 57 b 564 -31 776 6 665 -31 b 78 475 300 -31 78 190 b 561 979 78 760 303 979 b 818 860 699 979 774 904 l 888 963 b 910 979 899 979 904 979 b 925 946 925 979 925 969 l 925 617 b 903 583 925 588 925 583 b 881 607 883 583 883 588 b 578 936 853 811 726 936 b 221 475 494 936 221 890 b 586 13 221 61 496 13 b 801 181 625 13 801 25 l 801 269 b 672 336 801 321 797 336 l 628 336 l 628 379 b 851 375 678 375 796 375 l 1021 379 l 1021 336 m 544 1022 l 335 1185 l 351 1207 l 546 1115 l 740 1207 l 754 1185 "},"ǧ":{"ha":694,"x_min":0,"x_max":0,"o":"m 674 561 b 633 519 674 529 647 519 b 593 560 611 519 593 536 b 615 597 593 576 600 592 b 601 599 611 599 601 599 b 476 544 576 599 526 592 b 533 410 511 513 533 461 b 308 207 533 303 438 207 b 171 250 282 207 225 211 b 147 185 147 222 147 190 b 221 92 147 140 176 97 b 325 90 231 90 290 90 b 564 51 410 90 490 90 b 654 -107 635 13 654 -58 b 346 -286 654 -215 510 -286 b 39 -110 176 -286 39 -210 b 167 29 39 -54 83 6 b 106 153 124 57 106 110 b 149 268 106 201 131 247 b 83 411 114 297 83 350 b 308 614 83 518 179 614 b 456 564 339 614 397 610 b 603 629 514 621 575 629 b 674 561 657 629 674 585 m 429 411 b 308 582 429 443 429 582 b 210 526 253 582 221 543 b 188 410 189 492 188 447 b 308 239 188 378 188 239 b 407 294 364 239 396 278 b 429 411 428 329 429 374 m 582 -110 b 307 10 582 10 426 10 l 225 10 b 111 -110 164 6 111 -46 b 347 -254 111 -183 207 -254 b 582 -110 483 -254 582 -185 m 299 717 l 88 942 l 106 961 l 299 811 l 492 961 l 510 942 "},"Ĝ":{"ha":1090,"x_min":0,"x_max":0,"o":"m 1021 336 b 925 275 931 336 925 329 l 925 33 b 913 1 925 13 925 1 b 824 88 897 1 842 57 b 564 -31 776 6 665 -31 b 78 475 300 -31 78 190 b 561 979 78 760 303 979 b 818 860 699 979 774 904 l 888 963 b 910 979 899 979 904 979 b 925 946 925 979 925 969 l 925 617 b 903 583 925 588 925 583 b 881 607 883 583 883 588 b 578 936 853 811 726 936 b 221 475 494 936 221 890 b 586 13 221 61 496 13 b 801 181 625 13 801 25 l 801 269 b 672 336 801 321 797 336 l 628 336 l 628 379 b 851 375 678 375 796 375 l 1021 379 l 1021 336 m 738 1022 l 543 1114 l 349 1022 l 335 1044 l 544 1207 l 754 1044 "},"ĝ":{"ha":694,"x_min":0,"x_max":0,"o":"m 674 561 b 633 519 674 529 647 519 b 593 560 611 519 593 536 b 615 597 593 576 600 592 b 601 599 611 599 601 599 b 476 544 576 599 526 592 b 533 410 511 513 533 461 b 308 207 533 303 438 207 b 171 250 282 207 225 211 b 147 185 147 222 147 190 b 221 92 147 140 176 97 b 325 90 231 90 290 90 b 564 51 410 90 490 90 b 654 -107 635 13 654 -58 b 346 -286 654 -215 510 -286 b 39 -110 176 -286 39 -210 b 167 29 39 -54 83 6 b 106 153 124 57 106 110 b 149 268 106 201 131 247 b 83 411 114 297 83 350 b 308 614 83 518 179 614 b 456 564 339 614 397 610 b 603 629 514 621 575 629 b 674 561 657 629 674 585 m 429 411 b 308 582 429 443 429 582 b 210 526 253 582 221 543 b 188 410 189 492 188 447 b 308 239 188 378 188 239 b 407 294 364 239 396 278 b 429 411 428 329 429 374 m 582 -110 b 307 10 582 10 426 10 l 225 10 b 111 -110 164 6 111 -46 b 347 -254 111 -183 207 -254 b 582 -110 483 -254 582 -185 m 492 717 l 299 867 l 106 717 l 88 736 l 299 961 l 510 736 "},"Ģ":{"ha":1090,"x_min":0,"x_max":0,"o":"m 1021 336 b 925 275 931 336 925 329 l 925 33 b 913 1 925 13 925 1 b 824 88 897 1 842 57 b 564 -31 776 6 665 -31 b 78 475 300 -31 78 190 b 561 979 78 760 303 979 b 818 860 699 979 774 904 l 888 963 b 910 979 899 979 904 979 b 925 946 925 979 925 969 l 925 617 b 903 583 925 588 925 583 b 881 607 883 583 883 588 b 578 936 853 811 726 936 b 221 475 494 936 221 890 b 586 13 221 61 496 13 b 801 181 625 13 801 25 l 801 269 b 672 336 801 321 797 336 l 628 336 l 628 379 b 851 375 678 375 796 375 l 1021 379 l 1021 336 m 606 -201 b 511 -403 606 -321 524 -403 b 500 -392 506 -403 500 -399 b 507 -381 500 -387 501 -386 b 581 -185 553 -331 582 -268 b 539 -201 569 -196 554 -201 b 483 -147 501 -201 483 -174 b 539 -92 483 -119 503 -92 b 606 -201 581 -92 606 -135 "},"ģ":{"ha":694,"x_min":0,"x_max":0,"o":"m 360 769 b 304 714 360 742 340 714 b 238 824 263 714 238 757 b 332 1025 238 943 319 1025 b 343 1014 338 1025 343 1021 b 336 1003 343 1010 342 1008 b 263 807 290 953 261 890 b 304 824 274 818 289 824 b 360 769 342 824 360 796 m 674 561 b 633 519 674 529 647 519 b 593 560 611 519 593 536 b 615 597 593 576 600 592 b 601 599 611 599 601 599 b 476 544 576 599 526 592 b 533 410 511 513 533 461 b 308 207 533 303 438 207 b 171 250 282 207 225 211 b 147 185 147 222 147 190 b 221 92 147 140 176 97 b 325 90 231 90 290 90 b 564 51 410 90 490 90 b 654 -107 635 13 654 -58 b 346 -286 654 -215 510 -286 b 39 -110 176 -286 39 -210 b 167 29 39 -54 83 6 b 106 153 124 57 106 110 b 149 268 106 201 131 247 b 83 411 114 297 83 350 b 308 614 83 518 179 614 b 456 564 339 614 397 610 b 603 629 514 621 575 629 b 674 561 657 629 674 585 m 429 411 b 308 582 429 443 429 582 b 210 526 253 582 221 543 b 188 410 189 492 188 447 b 308 239 188 378 188 239 b 407 294 364 239 396 278 b 429 411 428 329 429 374 m 582 -110 b 307 10 582 10 426 10 l 225 10 b 111 -110 164 6 111 -46 b 347 -254 111 -183 207 -254 b 582 -110 483 -254 582 -185 "},"Ġ":{"ha":1090,"x_min":0,"x_max":0,"o":"m 1021 336 b 925 275 931 336 925 329 l 925 33 b 913 1 925 13 925 1 b 824 88 897 1 842 57 b 564 -31 776 6 665 -31 b 78 475 300 -31 78 190 b 561 979 78 760 303 979 b 818 860 699 979 774 904 l 888 963 b 910 979 899 979 904 979 b 925 946 925 979 925 969 l 925 617 b 903 583 925 588 925 583 b 881 607 883 583 883 588 b 578 936 853 811 726 936 b 221 475 494 936 221 890 b 586 13 221 61 496 13 b 801 181 625 13 801 25 l 801 269 b 672 336 801 321 797 336 l 628 336 l 628 379 b 851 375 678 375 796 375 l 1021 379 l 1021 336 m 618 1126 b 543 1053 618 1092 590 1053 b 469 1126 501 1053 469 1089 b 544 1200 469 1161 497 1200 b 618 1126 586 1200 618 1164 "},"ġ":{"ha":694,"x_min":0,"x_max":0,"o":"m 674 561 b 633 519 674 529 647 519 b 593 560 611 519 593 536 b 615 597 593 576 600 592 b 601 599 611 599 601 599 b 476 544 576 599 526 592 b 533 410 511 513 533 461 b 308 207 533 303 438 207 b 171 250 282 207 225 211 b 147 185 147 222 147 190 b 221 92 147 140 176 97 b 325 90 231 90 290 90 b 564 51 410 90 490 90 b 654 -107 635 13 654 -58 b 346 -286 654 -215 510 -286 b 39 -110 176 -286 39 -210 b 167 29 39 -54 83 6 b 106 153 124 57 106 110 b 149 268 106 201 131 247 b 83 411 114 297 83 350 b 308 614 83 518 179 614 b 456 564 339 614 397 610 b 603 629 514 621 575 629 b 674 561 657 629 674 585 m 429 411 b 308 582 429 443 429 582 b 210 526 253 582 221 543 b 188 410 189 492 188 447 b 308 239 188 378 188 239 b 407 294 364 239 396 278 b 429 411 428 329 429 374 m 582 -110 b 307 10 582 10 426 10 l 225 10 b 111 -110 164 6 111 -46 b 347 -254 111 -183 207 -254 b 582 -110 483 -254 582 -185 m 372 839 b 297 765 372 804 344 765 b 224 839 256 765 224 801 b 299 913 224 874 251 913 b 372 839 340 913 372 876 "},"ß":{"ha":694,"x_min":0,"x_max":0,"o":"m 654 242 b 411 -15 654 86 531 -15 b 279 90 331 -15 279 35 b 329 142 279 125 306 142 b 379 92 357 142 379 122 b 338 42 379 58 353 44 b 407 15 363 18 394 15 b 550 240 460 15 550 61 b 329 568 550 385 494 554 b 317 583 317 569 317 583 b 339 599 317 597 326 597 b 511 783 463 610 511 694 b 378 949 511 906 435 949 b 239 775 350 949 239 933 l 239 0 b 175 4 214 4 190 4 l 39 0 l 39 43 b 147 106 132 43 147 43 l 147 556 l 39 556 l 39 599 l 147 599 l 147 772 b 378 979 147 911 271 979 b 615 782 515 979 615 886 b 431 582 615 701 554 617 b 654 242 610 508 654 342 "},"̀":{"ha":0,"x_min":0,"x_max":0,"o":"m -285 708 l -496 878 b -519 919 -508 888 -519 903 b -469 969 -519 944 -494 969 b -428 946 -449 969 -433 954 l -261 733 "},"«":{"ha":772,"x_min":0,"x_max":0,"o":"m 385 14 b 371 0 385 6 379 0 l 368 0 b 356 10 363 0 357 4 b 158 326 314 128 247 236 b 154 336 156 328 154 332 b 158 346 154 339 156 343 b 356 663 247 435 314 543 b 368 671 357 668 363 671 l 371 671 b 385 657 379 671 385 665 b 385 654 385 657 385 656 b 254 336 358 542 314 435 b 385 17 314 238 358 129 b 385 14 385 17 385 15 m 617 14 b 603 0 617 6 611 0 l 600 0 b 588 10 594 0 589 4 b 390 326 546 128 479 236 b 386 336 388 328 386 332 b 390 346 386 339 388 343 b 588 663 479 435 546 543 b 600 671 589 668 594 671 l 603 671 b 617 657 611 671 617 665 b 617 654 617 657 617 656 b 486 336 590 542 546 435 b 617 17 546 238 590 129 b 617 14 617 17 617 15 "},"»":{"ha":772,"x_min":0,"x_max":0,"o":"m 618 336 b 614 326 618 332 615 328 b 417 10 525 236 458 128 b 404 0 415 4 410 0 l 401 0 b 388 14 393 0 388 6 b 388 17 388 15 388 17 b 518 336 413 129 457 238 b 388 654 457 435 413 542 b 388 657 388 656 388 657 b 401 671 388 665 393 671 l 404 671 b 417 663 410 671 415 668 b 614 346 458 543 525 435 b 618 336 615 343 618 339 m 386 336 b 382 326 386 332 383 328 b 185 10 293 236 226 128 b 172 0 183 4 178 0 l 169 0 b 156 14 161 0 156 6 b 156 17 156 15 156 17 b 286 336 181 129 225 238 b 156 654 225 435 181 542 b 156 657 156 656 156 657 b 169 671 156 665 161 671 l 172 671 b 185 663 178 671 183 668 b 382 346 226 543 293 435 b 386 336 383 343 386 339 "},"‹":{"ha":540,"x_min":0,"x_max":0,"o":"m 385 14 b 371 0 385 6 379 0 l 368 0 b 356 10 363 0 357 4 b 158 326 314 128 247 236 b 154 336 156 328 154 332 b 158 346 154 339 156 343 b 356 663 247 435 314 543 b 368 671 357 668 363 671 l 371 671 b 385 657 379 671 385 665 b 385 654 385 657 385 656 b 254 336 358 542 314 435 b 385 17 314 238 358 129 b 385 14 385 17 385 15 "},"›":{"ha":540,"x_min":0,"x_max":0,"o":"m 386 336 b 382 326 386 332 383 328 b 185 10 293 236 226 128 b 172 0 183 4 178 0 l 169 0 b 156 14 161 0 156 6 b 156 17 156 15 156 17 b 286 336 181 129 225 238 b 156 654 225 435 181 542 b 156 657 156 656 156 657 b 169 671 156 665 161 671 l 172 671 b 185 663 178 671 183 668 b 382 346 226 543 293 435 b 386 336 383 343 386 339 "},"Ħ":{"ha":1042,"x_min":0,"x_max":0,"o":"m 994 0 b 789 4 946 4 842 4 b 585 0 736 4 633 4 l 585 43 l 618 43 b 728 108 725 43 728 58 l 728 472 l 313 472 l 313 108 b 422 43 313 58 315 43 l 456 43 l 456 0 b 250 4 407 4 303 4 b 46 0 197 4 94 4 l 46 43 l 79 43 b 189 108 186 43 189 58 l 189 692 l 46 692 l 46 733 l 189 733 l 189 840 b 79 906 189 890 186 906 l 46 906 l 46 949 b 251 944 94 944 199 944 b 456 949 304 944 407 944 l 456 906 l 422 906 b 313 840 315 906 313 890 l 313 733 l 728 733 l 728 840 b 618 906 728 890 725 906 l 585 906 l 585 949 b 790 944 633 944 738 944 b 994 949 843 944 946 944 l 994 906 l 961 906 b 851 840 854 906 851 890 l 851 733 l 994 733 l 994 692 l 851 692 l 851 108 b 961 43 851 58 854 43 l 994 43 l 994 0 m 728 692 l 313 692 l 313 515 l 728 515 "},"ħ":{"ha":772,"x_min":0,"x_max":0,"o":"m 588 4 l 431 0 l 431 43 b 539 106 524 43 539 43 l 539 429 b 436 583 539 508 524 583 b 249 361 347 583 249 506 l 249 106 b 357 43 249 43 264 43 l 357 0 l 201 4 l 44 0 l 44 43 b 153 106 138 43 153 43 l 153 740 l 44 740 l 44 782 l 153 782 l 153 828 b 44 906 153 896 142 906 l 44 949 l 244 964 l 244 782 l 386 782 l 386 740 l 244 740 l 244 481 l 246 481 b 446 614 268 531 329 614 b 592 563 526 614 572 586 b 635 350 635 513 635 469 l 635 85 b 743 43 636 43 671 43 l 743 0 "},"Ḫ":{"ha":1042,"x_min":0,"x_max":0,"o":"m 994 0 b 789 4 946 4 842 4 b 585 0 736 4 633 4 l 585 43 l 618 43 b 728 108 725 43 728 58 l 728 472 l 313 472 l 313 108 b 422 43 313 58 315 43 l 456 43 l 456 0 b 250 4 407 4 303 4 b 46 0 197 4 94 4 l 46 43 l 79 43 b 189 108 186 43 189 58 l 189 840 b 79 906 189 890 186 906 l 46 906 l 46 949 b 251 944 94 944 199 944 b 456 949 304 944 407 944 l 456 906 l 422 906 b 313 840 315 906 313 890 l 313 515 l 728 515 l 728 840 b 618 906 728 890 725 906 l 585 906 l 585 949 b 790 944 633 944 738 944 b 994 949 843 944 946 944 l 994 906 l 961 906 b 851 840 854 906 851 890 l 851 108 b 961 43 851 58 854 43 l 994 43 l 994 0 m 729 -85 b 521 -324 726 -231 629 -324 b 314 -85 418 -324 317 -235 l 344 -85 b 522 -271 347 -203 435 -271 b 699 -85 604 -271 696 -206 l 729 -85 "},"ḫ":{"ha":772,"x_min":0,"x_max":0,"o":"m 588 4 l 431 0 l 431 43 b 539 106 524 43 539 43 l 539 429 b 436 583 539 508 524 583 b 249 361 347 583 249 506 l 249 106 b 357 43 249 43 264 43 l 357 0 l 201 4 l 44 0 l 44 43 b 153 106 138 43 153 43 l 153 828 b 44 906 153 896 142 906 l 44 949 l 244 964 l 244 481 l 246 481 b 446 614 268 531 329 614 b 592 563 526 614 572 586 b 635 350 635 513 635 469 l 635 85 b 743 43 636 43 671 43 l 743 0 m 603 -85 b 394 -324 600 -231 503 -324 b 188 -85 292 -324 190 -235 l 218 -85 b 396 -271 221 -203 308 -271 b 572 -85 478 -271 569 -206 l 603 -85 "},"Ĥ":{"ha":1042,"x_min":0,"x_max":0,"o":"m 994 0 b 789 4 946 4 842 4 b 585 0 736 4 633 4 l 585 43 l 618 43 b 728 108 725 43 728 58 l 728 472 l 313 472 l 313 108 b 422 43 313 58 315 43 l 456 43 l 456 0 b 250 4 407 4 303 4 b 46 0 197 4 94 4 l 46 43 l 79 43 b 189 108 186 43 189 58 l 189 840 b 79 906 189 890 186 906 l 46 906 l 46 949 b 251 944 94 944 199 944 b 456 949 304 944 407 944 l 456 906 l 422 906 b 313 840 315 906 313 890 l 313 515 l 728 515 l 728 840 b 618 906 728 890 725 906 l 585 906 l 585 949 b 790 944 633 944 738 944 b 994 949 843 944 946 944 l 994 906 l 961 906 b 851 840 854 906 851 890 l 851 108 b 961 43 851 58 854 43 l 994 43 l 994 0 m 714 1022 l 519 1114 l 325 1022 l 311 1044 l 521 1207 l 731 1044 "},"ĥ":{"ha":772,"x_min":0,"x_max":0,"o":"m 588 4 l 431 0 l 431 43 b 539 106 524 43 539 43 l 539 429 b 436 583 539 508 524 583 b 249 361 347 583 249 506 l 249 106 b 357 43 249 43 264 43 l 357 0 l 201 4 l 44 0 l 44 43 b 153 106 138 43 153 43 l 153 828 b 44 906 153 896 142 906 l 44 949 l 244 964 l 244 481 l 246 481 b 446 614 268 531 329 614 b 592 563 526 614 572 586 b 635 350 635 513 635 469 l 635 85 b 743 43 636 43 671 43 l 743 0 m 579 1038 l 385 1129 l 190 1038 l 176 1060 l 386 1222 l 596 1060 "},"Ḧ":{"ha":1042,"x_min":0,"x_max":0,"o":"m 994 0 b 789 4 946 4 842 4 b 585 0 736 4 633 4 l 585 43 l 618 43 b 728 108 725 43 728 58 l 728 472 l 313 472 l 313 108 b 422 43 313 58 315 43 l 456 43 l 456 0 b 250 4 407 4 303 4 b 46 0 197 4 94 4 l 46 43 l 79 43 b 189 108 186 43 189 58 l 189 840 b 79 906 189 890 186 906 l 46 906 l 46 949 b 251 944 94 944 199 944 b 456 949 304 944 407 944 l 456 906 l 422 906 b 313 840 315 906 313 890 l 313 515 l 728 515 l 728 840 b 618 906 728 890 725 906 l 585 906 l 585 949 b 790 944 633 944 738 944 b 994 949 843 944 946 944 l 994 906 l 961 906 b 851 840 854 906 851 890 l 851 108 b 961 43 851 58 854 43 l 994 43 l 994 0 m 443 1089 b 375 1022 443 1057 418 1022 b 308 1089 338 1022 308 1054 b 376 1154 308 1119 333 1154 b 443 1089 414 1154 443 1122 m 735 1089 b 667 1022 735 1057 710 1022 b 600 1089 629 1022 600 1054 b 668 1154 600 1119 625 1154 b 735 1089 706 1154 735 1122 "},"ḧ":{"ha":772,"x_min":0,"x_max":0,"o":"m 588 4 l 431 0 l 431 43 b 539 106 524 43 539 43 l 539 429 b 436 583 539 508 524 583 b 249 361 347 583 249 506 l 249 106 b 357 43 249 43 264 43 l 357 0 l 201 4 l 44 0 l 44 43 b 153 106 138 43 153 43 l 153 828 b 44 906 153 896 142 906 l 44 949 l 244 964 l 244 481 l 246 481 b 446 614 268 531 329 614 b 592 563 526 614 572 586 b 635 350 635 513 635 469 l 635 85 b 743 43 636 43 671 43 l 743 0 m 308 1104 b 240 1038 308 1072 283 1038 b 174 1104 203 1038 174 1069 b 242 1169 174 1135 199 1169 b 308 1104 279 1169 308 1138 m 600 1104 b 532 1038 600 1072 575 1038 b 465 1104 494 1038 465 1069 b 533 1169 465 1135 490 1169 b 600 1104 571 1169 600 1138 "},"Ḥ":{"ha":1042,"x_min":0,"x_max":0,"o":"m 994 0 b 789 4 946 4 842 4 b 585 0 736 4 633 4 l 585 43 l 618 43 b 728 108 725 43 728 58 l 728 472 l 313 472 l 313 108 b 422 43 313 58 315 43 l 456 43 l 456 0 b 250 4 407 4 303 4 b 46 0 197 4 94 4 l 46 43 l 79 43 b 189 108 186 43 189 58 l 189 840 b 79 906 189 890 186 906 l 46 906 l 46 949 b 251 944 94 944 199 944 b 456 949 304 944 407 944 l 456 906 l 422 906 b 313 840 315 906 313 890 l 313 515 l 728 515 l 728 840 b 618 906 728 890 725 906 l 585 906 l 585 949 b 790 944 633 944 738 944 b 994 949 843 944 946 944 l 994 906 l 961 906 b 851 840 854 906 851 890 l 851 108 b 961 43 851 58 854 43 l 994 43 l 994 0 m 594 -204 b 519 -278 594 -239 567 -278 b 446 -204 478 -278 446 -242 b 521 -131 446 -169 474 -131 b 594 -204 563 -131 594 -167 "},"ḥ":{"ha":772,"x_min":0,"x_max":0,"o":"m 588 4 l 431 0 l 431 43 b 539 106 524 43 539 43 l 539 429 b 436 583 539 508 524 583 b 249 361 347 583 249 506 l 249 106 b 357 43 249 43 264 43 l 357 0 l 201 4 l 44 0 l 44 43 b 153 106 138 43 153 43 l 153 828 b 44 906 153 896 142 906 l 44 949 l 244 964 l 244 481 l 246 481 b 446 614 268 531 329 614 b 592 563 526 614 572 586 b 635 350 635 513 635 469 l 635 85 b 743 43 636 43 671 43 l 743 0 m 468 -204 b 393 -278 468 -239 440 -278 b 319 -204 351 -278 319 -242 b 394 -131 319 -169 347 -131 b 468 -204 436 -131 468 -167 "},"̉":{"ha":0,"x_min":0,"x_max":0,"o":"m -212 892 b -254 832 -212 865 -229 843 b -343 735 -310 804 -343 774 l -343 708 b -357 694 -343 700 -349 694 b -371 708 -364 694 -371 700 l -371 735 b -304 854 -371 781 -343 822 b -287 892 -293 863 -287 876 b -299 940 -287 918 -289 932 b -357 958 -314 954 -336 958 b -435 933 -389 958 -417 949 b -400 892 -415 931 -400 915 b -440 851 -400 867 -419 851 b -482 893 -462 851 -482 867 b -357 985 -482 950 -422 985 b -253 963 -317 985 -282 979 b -212 892 -228 947 -212 921 "},"˝":{"ha":694,"x_min":0,"x_max":0,"o":"m 351 921 b 335 885 351 907 347 901 l 207 710 b 178 726 204 711 183 722 l 253 928 b 300 968 260 944 268 968 b 351 921 326 968 351 946 m 583 921 b 567 885 583 907 579 901 l 439 710 b 410 726 436 711 415 722 l 485 928 b 532 968 492 944 500 968 b 583 921 558 968 583 946 "},"̋":{"ha":0,"x_min":0,"x_max":0,"o":"m -343 921 b -360 885 -343 907 -347 901 l -487 710 b -517 726 -490 711 -511 722 l -442 928 b -394 968 -435 944 -426 968 b -343 921 -368 968 -343 946 m -111 921 b -128 885 -111 907 -115 901 l -256 710 b -285 726 -258 711 -279 722 l -210 928 b -162 968 -203 944 -194 968 b -111 921 -136 968 -111 946 "},"Í":{"ha":501,"x_min":0,"x_max":0,"o":"m 463 0 b 250 4 414 4 304 4 b 39 0 197 4 88 4 l 39 43 l 75 43 b 189 108 185 43 189 58 l 189 840 b 75 906 189 890 185 906 l 39 906 l 39 949 b 251 944 88 944 197 944 b 463 949 304 944 414 944 l 463 906 l 426 906 b 313 840 317 906 313 890 l 313 108 b 426 43 313 58 317 43 l 463 43 l 463 0 m 442 1204 b 411 1167 439 1188 426 1174 l 175 1036 l 156 1065 l 357 1246 b 393 1263 363 1251 376 1263 b 442 1204 424 1263 447 1235 "},"í":{"ha":386,"x_min":0,"x_max":0,"o":"m 343 0 b 199 4 296 1 247 4 l 46 0 l 46 43 b 154 106 139 43 154 43 l 154 479 b 51 556 154 547 142 556 l 51 599 l 246 614 l 246 104 b 343 43 246 50 251 43 l 343 0 m 365 919 b 342 878 365 903 354 888 l 131 708 l 107 733 l 274 946 b 315 969 279 954 294 969 b 365 919 340 969 365 944 "},"Ĭ":{"ha":501,"x_min":0,"x_max":0,"o":"m 463 0 b 250 4 414 4 304 4 b 39 0 197 4 88 4 l 39 43 l 75 43 b 189 108 185 43 189 58 l 189 840 b 75 906 189 890 185 906 l 39 906 l 39 949 b 251 944 88 944 197 944 b 463 949 304 944 414 944 l 463 906 l 426 906 b 313 840 317 906 313 890 l 313 108 b 426 43 313 58 317 43 l 463 43 l 463 0 m 460 1275 b 251 1036 457 1129 360 1036 b 44 1275 149 1036 47 1125 l 75 1275 b 253 1089 78 1157 165 1089 b 429 1275 335 1089 426 1154 l 460 1275 "},"ĭ":{"ha":386,"x_min":0,"x_max":0,"o":"m 343 0 b 199 4 296 1 247 4 l 46 0 l 46 43 b 154 106 139 43 154 43 l 154 479 b 51 556 154 547 142 556 l 51 599 l 246 614 l 246 104 b 343 43 246 50 251 43 l 343 0 m 401 958 b 193 719 399 813 301 719 b -14 958 90 719 -11 808 l 17 958 b 194 772 19 840 107 772 b 371 958 276 772 368 838 l 401 958 "},"Ǐ":{"ha":501,"x_min":0,"x_max":0,"o":"m 463 0 b 250 4 414 4 304 4 b 39 0 197 4 88 4 l 39 43 l 75 43 b 189 108 185 43 189 58 l 189 840 b 75 906 189 890 185 906 l 39 906 l 39 949 b 251 944 88 944 197 944 b 463 949 304 944 414 944 l 463 906 l 426 906 b 313 840 317 906 313 890 l 313 108 b 426 43 313 58 317 43 l 463 43 l 463 0 m 251 1022 l 42 1185 l 58 1207 l 253 1115 l 447 1207 l 461 1185 "},"ǐ":{"ha":386,"x_min":0,"x_max":0,"o":"m 343 0 b 199 4 296 1 247 4 l 46 0 l 46 43 b 154 106 139 43 154 43 l 154 479 b 51 556 154 547 142 556 l 51 599 l 246 614 l 246 104 b 343 43 246 50 251 43 l 343 0 m 193 717 l -18 942 l 0 961 l 193 811 l 386 961 l 404 942 "},"Î":{"ha":501,"x_min":0,"x_max":0,"o":"m 463 0 b 250 4 414 4 304 4 b 39 0 197 4 88 4 l 39 43 l 75 43 b 189 108 185 43 189 58 l 189 840 b 75 906 189 890 185 906 l 39 906 l 39 949 b 251 944 88 944 197 944 b 463 949 304 944 414 944 l 463 906 l 426 906 b 313 840 317 906 313 890 l 313 108 b 426 43 313 58 317 43 l 463 43 l 463 0 m 444 1022 l 250 1114 l 56 1022 l 42 1044 l 251 1207 l 461 1044 "},"î":{"ha":386,"x_min":0,"x_max":0,"o":"m 343 0 b 199 4 296 1 247 4 l 46 0 l 46 43 b 154 106 139 43 154 43 l 154 479 b 51 556 154 547 142 556 l 51 599 l 246 614 l 246 104 b 343 43 246 50 251 43 l 343 0 m 386 717 l 193 867 l 0 717 l -18 736 l 193 961 l 404 736 "},"Ȉ":{"ha":501,"x_min":0,"x_max":0,"o":"m 463 0 b 250 4 414 4 304 4 b 39 0 197 4 88 4 l 39 43 l 75 43 b 189 108 185 43 189 58 l 189 840 b 75 906 189 890 185 906 l 39 906 l 39 949 b 251 944 88 944 197 944 b 463 949 304 944 414 944 l 463 906 l 426 906 b 313 840 317 906 313 890 l 313 108 b 426 43 313 58 317 43 l 463 43 l 463 0 m 421 1053 b 392 1036 415 1049 394 1038 l 264 1211 b 247 1247 251 1228 247 1233 b 299 1294 247 1272 272 1294 b 346 1254 331 1294 339 1271 l 421 1053 m 189 1053 b 160 1036 183 1049 163 1038 l 32 1211 b 15 1247 19 1228 15 1233 b 67 1294 15 1272 40 1294 b 114 1254 99 1294 107 1271 l 189 1053 "},"ȉ":{"ha":386,"x_min":0,"x_max":0,"o":"m 343 0 b 199 4 296 1 247 4 l 46 0 l 46 43 b 154 106 139 43 154 43 l 154 479 b 51 556 154 547 142 556 l 51 599 l 246 614 l 246 104 b 343 43 246 50 251 43 l 343 0 m 363 726 b 333 710 357 722 336 711 l 206 885 b 189 921 193 901 189 907 b 240 968 189 946 214 968 b 288 928 272 968 281 944 l 363 726 m 131 726 b 101 710 125 722 104 711 l -26 885 b -43 921 -39 901 -43 907 b 8 968 -43 946 -18 968 b 56 928 40 968 49 944 l 131 726 "},"Ï":{"ha":501,"x_min":0,"x_max":0,"o":"m 463 0 b 250 4 414 4 304 4 b 39 0 197 4 88 4 l 39 43 l 75 43 b 189 108 185 43 189 58 l 189 840 b 75 906 189 890 185 906 l 39 906 l 39 949 b 251 944 88 944 197 944 b 463 949 304 944 414 944 l 463 906 l 426 906 b 313 840 317 906 313 890 l 313 108 b 426 43 313 58 317 43 l 463 43 l 463 0 m 174 1089 b 106 1022 174 1057 149 1022 b 39 1089 68 1022 39 1054 b 107 1154 39 1119 64 1154 b 174 1089 144 1154 174 1122 m 465 1089 b 397 1022 465 1057 440 1022 b 331 1089 360 1022 331 1054 b 399 1154 331 1119 356 1154 b 465 1089 436 1154 465 1122 "},"ï":{"ha":386,"x_min":0,"x_max":0,"o":"m 343 0 b 199 4 296 1 247 4 l 46 0 l 46 43 b 154 106 139 43 154 43 l 154 479 b 51 556 154 547 142 556 l 51 599 l 246 614 l 246 104 b 343 43 246 50 251 43 l 343 0 m 138 840 b 69 774 138 808 113 774 b 3 840 32 774 3 806 b 71 906 3 871 28 906 b 138 840 108 906 138 874 m 385 840 b 317 774 385 808 360 774 b 250 840 279 774 250 806 b 318 906 250 871 275 906 b 385 840 356 906 385 874 "},"Ḯ":{"ha":501,"x_min":0,"x_max":0,"o":"m 463 0 b 250 4 414 4 304 4 b 39 0 197 4 88 4 l 39 43 l 75 43 b 189 108 185 43 189 58 l 189 840 b 75 906 189 890 185 906 l 39 906 l 39 949 b 251 944 88 944 197 944 b 463 949 304 944 414 944 l 463 906 l 426 906 b 313 840 317 906 313 890 l 313 108 b 426 43 313 58 317 43 l 463 43 l 463 0 m 174 1089 b 106 1022 174 1057 149 1022 b 39 1089 68 1022 39 1054 b 107 1154 39 1119 64 1154 b 174 1089 144 1154 174 1122 m 465 1089 b 397 1022 465 1057 440 1022 b 331 1089 360 1022 331 1054 b 399 1154 331 1119 356 1154 b 465 1089 436 1154 465 1122 m 442 1408 b 411 1371 439 1392 426 1378 l 175 1240 l 156 1269 l 357 1450 b 393 1467 363 1456 376 1467 b 442 1408 424 1467 447 1439 "},"ḯ":{"ha":386,"x_min":0,"x_max":0,"o":"m 343 0 b 199 4 296 1 247 4 l 46 0 l 46 43 b 154 106 139 43 154 43 l 154 479 b 51 556 154 547 142 556 l 51 599 l 246 614 l 246 104 b 343 43 246 50 251 43 l 343 0 m 138 840 b 69 774 138 808 113 774 b 3 840 32 774 3 806 b 71 906 3 871 28 906 b 138 840 108 906 138 874 m 385 840 b 317 774 385 808 360 774 b 250 840 279 774 250 806 b 318 906 250 871 275 906 b 385 840 356 906 385 874 m 383 1150 b 353 1113 381 1133 368 1119 l 117 982 l 97 1011 l 299 1192 b 335 1208 304 1197 318 1208 b 383 1150 365 1208 389 1181 "},"İ":{"ha":501,"x_min":0,"x_max":0,"o":"m 463 0 b 250 4 414 4 304 4 b 39 0 197 4 88 4 l 39 43 l 75 43 b 189 108 185 43 189 58 l 189 840 b 75 906 189 890 185 906 l 39 906 l 39 949 b 251 944 88 944 197 944 b 463 949 304 944 414 944 l 463 906 l 426 906 b 313 840 317 906 313 890 l 313 108 b 426 43 313 58 317 43 l 463 43 l 463 0 m 325 1126 b 250 1053 325 1092 297 1053 b 176 1126 208 1053 176 1089 b 251 1200 176 1161 204 1200 b 325 1126 293 1200 325 1164 "},"Ị":{"ha":501,"x_min":0,"x_max":0,"o":"m 463 0 b 250 4 414 4 304 4 b 39 0 197 4 88 4 l 39 43 l 75 43 b 189 108 185 43 189 58 l 189 840 b 75 906 189 890 185 906 l 39 906 l 39 949 b 251 944 88 944 197 944 b 463 949 304 944 414 944 l 463 906 l 426 906 b 313 840 317 906 313 890 l 313 108 b 426 43 313 58 317 43 l 463 43 l 463 0 m 325 -204 b 250 -278 325 -239 297 -278 b 176 -204 208 -278 176 -242 b 251 -131 176 -169 204 -131 b 325 -204 293 -131 325 -167 "},"ị":{"ha":386,"x_min":0,"x_max":0,"o":"m 343 0 b 199 4 296 1 247 4 l 46 0 l 46 43 b 154 106 139 43 154 43 l 154 479 b 51 556 154 547 142 556 l 51 599 l 246 614 l 246 104 b 343 43 246 50 251 43 l 343 0 m 267 839 b 192 765 267 804 239 765 b 118 839 150 765 118 801 b 193 913 118 874 146 913 b 267 839 235 913 267 876 m 267 -204 b 192 -278 267 -239 239 -278 b 118 -204 150 -278 118 -242 b 193 -131 118 -169 146 -131 b 267 -204 235 -131 267 -167 "},"Ì":{"ha":501,"x_min":0,"x_max":0,"o":"m 463 0 b 250 4 414 4 304 4 b 39 0 197 4 88 4 l 39 43 l 75 43 b 189 108 185 43 189 58 l 189 840 b 75 906 189 890 185 906 l 39 906 l 39 949 b 251 944 88 944 197 944 b 463 949 304 944 414 944 l 463 906 l 426 906 b 313 840 317 906 313 890 l 313 108 b 426 43 313 58 317 43 l 463 43 l 463 0 m 328 1036 l 92 1167 b 61 1204 76 1174 64 1188 b 110 1263 56 1235 79 1263 b 146 1246 126 1263 140 1251 l 347 1065 "},"ì":{"ha":386,"x_min":0,"x_max":0,"o":"m 343 0 b 199 4 296 1 247 4 l 46 0 l 46 43 b 154 106 139 43 154 43 l 154 479 b 51 556 154 547 142 556 l 51 599 l 246 614 l 246 104 b 343 43 246 50 251 43 l 343 0 m 256 708 l 44 878 b 21 919 32 888 21 903 b 71 969 21 944 46 969 b 113 946 92 969 107 954 l 279 733 "},"Ỉ":{"ha":501,"x_min":0,"x_max":0,"o":"m 463 0 b 250 4 414 4 304 4 b 39 0 197 4 88 4 l 39 43 l 75 43 b 189 108 185 43 189 58 l 189 840 b 75 906 189 890 185 906 l 39 906 l 39 949 b 251 944 88 944 197 944 b 463 949 304 944 414 944 l 463 906 l 426 906 b 313 840 317 906 313 890 l 313 108 b 426 43 313 58 317 43 l 463 43 l 463 0 m 386 1250 b 344 1190 386 1224 369 1201 b 256 1093 289 1163 256 1132 l 256 1067 b 242 1053 256 1058 250 1053 b 228 1067 235 1053 228 1058 l 228 1093 b 294 1213 228 1139 256 1181 b 311 1250 306 1221 311 1235 b 300 1299 311 1276 310 1290 b 242 1317 285 1313 263 1317 b 164 1292 210 1317 182 1307 b 199 1250 183 1289 199 1274 b 158 1210 199 1225 179 1210 b 117 1251 136 1210 117 1225 b 242 1343 117 1308 176 1343 b 346 1321 282 1343 317 1338 b 386 1250 371 1306 386 1279 "},"ỉ":{"ha":386,"x_min":0,"x_max":0,"o":"m 343 0 b 199 4 296 1 247 4 l 46 0 l 46 43 b 154 106 139 43 154 43 l 154 479 b 51 556 154 547 142 556 l 51 599 l 246 614 l 246 104 b 343 43 246 50 251 43 l 343 0 m 328 892 b 286 832 328 865 311 843 b 197 735 231 804 197 774 l 197 708 b 183 694 197 700 192 694 b 169 708 176 694 169 700 l 169 735 b 236 854 169 781 197 822 b 253 892 247 863 253 876 b 242 940 253 918 251 932 b 183 958 226 954 204 958 b 106 933 151 958 124 949 b 140 892 125 931 140 915 b 100 851 140 867 121 851 b 58 893 78 851 58 867 b 183 985 58 950 118 985 b 288 963 224 985 258 979 b 328 892 313 947 328 921 "},"Ĳ":{"ha":1165,"x_min":0,"x_max":0,"o":"m 463 0 b 250 4 414 4 304 4 b 39 0 197 4 88 4 l 39 43 l 75 43 b 189 108 185 43 189 58 l 189 840 b 75 906 189 890 185 906 l 39 906 l 39 949 b 251 944 88 944 197 944 b 463 949 304 944 414 944 l 463 906 l 426 906 b 313 840 317 906 313 890 l 313 108 b 426 43 313 58 317 43 l 463 43 l 463 0 m 1097 906 b 990 849 1010 906 990 906 l 990 232 b 989 171 990 185 990 182 b 731 -31 974 67 872 -31 b 508 156 607 -31 508 53 b 586 236 508 217 556 236 b 664 158 625 236 664 208 b 575 81 664 122 647 81 b 728 0 625 0 719 0 b 871 206 801 0 871 78 l 871 839 b 735 906 871 888 871 906 l 685 906 l 685 949 b 918 944 738 944 860 944 l 1097 949 l 1097 906 "},"ĳ":{"ha":772,"x_min":0,"x_max":0,"o":"m 253 839 b 178 765 253 804 225 765 b 104 839 136 765 104 801 b 179 913 104 874 132 913 b 253 839 221 913 253 876 m 639 -69 b 449 -285 639 -196 553 -285 b 292 -174 369 -285 292 -246 b 356 -110 292 -137 317 -110 b 419 -174 394 -110 419 -137 b 371 -236 419 -211 392 -231 b 446 -254 407 -254 439 -254 b 547 -72 535 -254 547 -135 l 547 478 b 428 556 547 546 535 556 l 428 599 l 639 614 l 639 -69 m 343 0 b 199 4 296 1 247 4 l 46 0 l 46 43 b 154 106 139 43 154 43 l 154 479 b 51 556 154 547 142 556 l 51 599 l 246 614 l 246 104 b 343 43 246 50 251 43 l 343 0 m 640 839 b 565 765 640 804 613 765 b 492 839 524 765 492 801 b 567 913 492 874 519 913 b 640 839 608 913 640 876 "},"Ī":{"ha":501,"x_min":0,"x_max":0,"o":"m 463 0 b 250 4 414 4 304 4 b 39 0 197 4 88 4 l 39 43 l 75 43 b 189 108 185 43 189 58 l 189 840 b 75 906 189 890 185 906 l 39 906 l 39 949 b 251 944 88 944 197 944 b 463 949 304 944 414 944 l 463 906 l 426 906 b 313 840 317 906 313 890 l 313 108 b 426 43 313 58 317 43 l 463 43 l 463 0 m 1 1050 l 1 1093 l 503 1093 l 503 1050 "},"ī":{"ha":386,"x_min":0,"x_max":0,"o":"m 343 0 b 199 4 296 1 247 4 l 46 0 l 46 43 b 154 106 139 43 154 43 l 154 479 b 51 556 154 547 142 556 l 51 599 l 246 614 l 246 104 b 343 43 246 50 251 43 l 343 0 m -57 818 l -57 861 l 444 861 l 444 818 "},"∞":{"ha":1389,"x_min":0,"x_max":0,"o":"m 560 356 b 318 539 494 440 418 539 b 122 300 200 539 122 425 b 321 38 122 165 199 38 b 628 267 458 38 557 144 m 1267 300 b 1068 561 1267 433 1190 561 b 761 332 931 561 832 454 l 829 243 b 1071 60 894 158 971 60 b 1267 300 1189 60 1267 174 m 1325 300 b 1039 -35 1325 124 1207 -35 b 714 156 907 -35 796 50 l 683 196 b 346 -31 603 71 492 -31 b 64 300 181 -31 64 125 b 350 633 64 475 182 633 b 675 443 482 633 593 549 l 706 403 b 1043 629 786 528 897 629 b 1325 300 1208 629 1325 474 "},"‽":{"ha":656,"x_min":0,"x_max":0,"o":"m 401 74 b 328 0 401 33 368 0 b 254 74 288 0 254 33 b 328 147 254 114 288 147 b 401 74 368 147 401 114 m 558 792 b 488 644 558 706 513 667 b 344 315 344 522 344 372 l 344 293 b 328 260 344 268 344 260 b 310 276 324 260 311 260 l 310 310 l 311 367 l 271 944 b 111 854 211 935 143 908 b 188 792 161 860 188 825 b 124 728 188 756 163 728 b 60 794 92 728 60 747 b 269 975 60 890 150 958 l 269 979 b 328 1050 269 1025 299 1050 b 388 979 357 1050 388 1025 l 386 975 b 558 792 524 954 558 861 m 443 801 b 385 939 443 856 443 917 l 360 585 b 407 667 372 613 388 639 b 443 801 428 696 443 717 "},"Į":{"ha":501,"x_min":0,"x_max":0,"o":"m 463 -160 b 299 -293 440 -239 368 -293 b 144 -168 210 -293 144 -232 b 258 4 144 -104 199 -39 l 250 4 b 39 0 197 4 88 4 l 39 43 l 75 43 b 189 108 185 43 189 58 l 189 840 b 75 906 189 890 185 906 l 39 906 l 39 949 b 251 944 88 944 197 944 b 463 949 304 944 414 944 l 463 906 l 426 906 b 313 840 317 906 313 890 l 313 108 b 426 43 313 58 317 43 l 463 43 l 463 0 b 321 4 431 3 372 4 b 243 -57 292 -11 265 -32 b 211 -132 224 -79 211 -104 b 332 -228 211 -196 282 -228 b 439 -150 376 -228 415 -200 b 463 -160 446 -136 467 -143 "},"į":{"ha":386,"x_min":0,"x_max":0,"o":"m 251 856 b 178 782 251 811 217 782 b 104 856 135 782 104 818 b 178 929 104 892 135 929 b 251 856 217 929 251 900 m 351 -160 b 188 -293 329 -239 257 -293 b 33 -168 99 -293 33 -232 b 146 3 33 -106 88 -40 l 46 0 l 46 43 b 154 106 139 43 154 43 l 154 479 b 51 556 154 547 142 556 l 51 599 l 246 614 l 246 104 b 343 43 246 50 251 43 l 343 0 l 211 4 b 133 -57 182 -11 156 -32 b 100 -132 114 -79 100 -104 b 221 -228 100 -196 171 -228 b 328 -150 265 -228 304 -200 b 351 -160 335 -136 356 -143 "},"Ι":{"ha":501,"x_min":0,"x_max":0,"o":"m 463 0 b 250 4 414 4 304 4 b 39 0 197 4 88 4 l 39 43 l 75 43 b 189 108 185 43 189 58 l 189 840 b 75 906 189 890 185 906 l 39 906 l 39 949 b 251 944 88 944 197 944 b 463 949 304 944 414 944 l 463 906 l 426 906 b 313 840 317 906 313 890 l 313 108 b 426 43 313 58 317 43 l 463 43 l 463 0 "},"Ĩ":{"ha":501,"x_min":0,"x_max":0,"o":"m 463 0 b 250 4 414 4 304 4 b 39 0 197 4 88 4 l 39 43 l 75 43 b 189 108 185 43 189 58 l 189 840 b 75 906 189 890 185 906 l 39 906 l 39 949 b 251 944 88 944 197 944 b 463 949 304 944 414 944 l 463 906 l 426 906 b 313 840 317 906 313 890 l 313 108 b 426 43 313 58 317 43 l 463 43 l 463 0 m 483 1131 b 333 1022 413 1053 386 1022 b 247 1054 310 1022 285 1032 b 157 1089 224 1068 189 1089 b 43 1022 96 1089 43 1022 l 21 1043 b 171 1151 92 1121 118 1151 b 257 1119 194 1151 219 1142 b 347 1085 281 1106 315 1085 b 461 1151 408 1085 461 1151 l 483 1131 "},"ĩ":{"ha":386,"x_min":0,"x_max":0,"o":"m 343 0 b 199 4 296 1 247 4 l 46 0 l 46 43 b 154 106 139 43 154 43 l 154 479 b 51 556 154 547 142 556 l 51 599 l 246 614 l 246 104 b 343 43 246 50 251 43 l 343 0 m 425 883 b 275 775 354 806 328 775 b 189 807 251 775 226 785 b 99 842 165 821 131 842 b -15 775 38 842 -15 775 l -37 796 b 113 904 33 874 60 904 b 199 872 136 904 161 894 b 289 838 222 858 257 838 b 403 904 350 838 403 904 l 425 883 "},"ǰ":{"ha":425,"x_min":0,"x_max":0,"o":"m 292 -69 b 101 -285 292 -196 206 -285 b -56 -174 22 -285 -56 -246 b 8 -110 -56 -137 -31 -110 b 72 -174 47 -110 72 -137 b 24 -236 72 -211 44 -231 b 99 -254 60 -254 92 -254 b 200 -72 188 -254 200 -135 l 200 478 b 81 556 200 546 188 556 l 81 599 l 292 614 l 292 -69 m 218 717 l 7 942 l 25 961 l 218 811 l 411 961 l 429 942 "},"Ĵ":{"ha":714,"x_min":0,"x_max":0,"o":"m 646 906 b 539 849 558 906 539 906 l 539 232 b 538 171 539 185 539 182 b 279 -31 522 67 421 -31 b 57 156 156 -31 57 53 b 135 236 57 217 104 236 b 213 158 174 236 213 208 b 124 81 213 122 196 81 b 276 0 174 0 268 0 b 419 206 350 0 419 78 l 419 839 b 283 906 419 888 419 906 l 233 906 l 233 949 b 467 944 286 944 408 944 l 646 949 l 646 906 m 633 1022 l 439 1114 l 244 1022 l 231 1044 l 440 1207 l 650 1044 "},"ĵ":{"ha":425,"x_min":0,"x_max":0,"o":"m 292 -69 b 101 -285 292 -196 206 -285 b -56 -174 22 -285 -56 -246 b 8 -110 -56 -137 -31 -110 b 72 -174 47 -110 72 -137 b 24 -236 72 -211 44 -231 b 99 -254 60 -254 92 -254 b 200 -72 188 -254 200 -135 l 200 478 b 81 556 200 546 188 556 l 81 599 l 292 614 l 292 -69 m 411 717 l 218 867 l 25 717 l 7 736 l 218 961 l 429 736 "},"Κ":{"ha":1081,"x_min":0,"x_max":0,"o":"m 863 4 b 664 0 810 4 713 4 l 664 43 b 746 85 692 43 746 43 b 725 132 746 101 733 119 l 474 504 l 313 351 l 313 108 b 422 43 313 58 315 43 l 456 43 l 456 0 b 250 4 407 4 303 4 b 46 0 197 4 94 4 l 46 43 l 79 43 b 189 108 186 43 189 58 l 189 840 b 79 906 189 890 186 906 l 46 906 l 46 949 b 251 944 94 944 199 944 b 456 949 304 944 407 944 l 456 906 l 422 906 b 313 840 315 906 313 890 l 313 399 l 747 814 b 772 860 758 824 772 838 b 708 906 772 872 764 904 l 708 949 b 885 944 756 944 835 944 b 1003 949 922 944 967 944 l 1003 906 b 806 822 890 904 817 833 l 556 582 l 876 110 b 1022 43 918 49 947 43 l 1022 0 "},"Ķ":{"ha":1081,"x_min":0,"x_max":0,"o":"m 863 4 b 664 0 810 4 713 4 l 664 43 b 746 85 692 43 746 43 b 725 132 746 101 733 119 l 474 504 l 313 351 l 313 108 b 422 43 313 58 315 43 l 456 43 l 456 0 b 250 4 407 4 303 4 b 46 0 197 4 94 4 l 46 43 l 79 43 b 189 108 186 43 189 58 l 189 840 b 79 906 189 890 186 906 l 46 906 l 46 949 b 251 944 94 944 199 944 b 456 949 304 944 407 944 l 456 906 l 422 906 b 313 840 315 906 313 890 l 313 399 l 747 814 b 772 860 758 824 772 838 b 708 906 772 872 764 904 l 708 949 b 885 944 756 944 835 944 b 1003 949 922 944 967 944 l 1003 906 b 806 822 890 904 817 833 l 556 582 l 876 110 b 1022 43 918 49 947 43 l 1022 0 m 601 -201 b 507 -403 601 -321 519 -403 b 496 -392 501 -403 496 -399 b 503 -381 496 -387 497 -386 b 576 -185 549 -331 578 -268 b 535 -201 565 -196 550 -201 b 479 -147 497 -201 479 -174 b 535 -92 479 -119 499 -92 b 601 -201 576 -92 601 -135 "},"ķ":{"ha":733,"x_min":0,"x_max":0,"o":"m 710 0 b 589 4 669 3 629 4 l 439 0 l 439 43 b 489 75 465 43 489 49 b 324 325 489 100 431 178 l 235 249 l 235 106 b 343 43 235 43 250 43 l 343 0 l 190 4 l 39 0 l 39 43 b 147 106 132 43 147 43 l 147 828 b 39 906 147 896 136 906 l 39 949 l 239 964 l 239 297 l 435 467 b 465 521 446 476 465 493 b 425 556 465 539 451 554 l 425 599 b 581 594 444 597 531 594 b 678 599 619 594 638 594 l 678 556 b 503 481 649 554 590 551 b 390 381 489 469 390 386 b 399 365 390 376 397 368 l 575 117 b 710 43 628 43 658 43 l 710 0 m 428 -201 b 333 -403 428 -321 346 -403 b 322 -392 328 -403 322 -399 b 329 -381 322 -387 324 -386 b 403 -185 375 -331 404 -268 b 361 -201 392 -196 376 -201 b 306 -147 324 -201 306 -174 b 361 -92 306 -119 325 -92 b 428 -201 403 -92 428 -135 "},"Ĺ":{"ha":868,"x_min":0,"x_max":0,"o":"m 769 0 l 46 0 l 46 43 l 79 43 b 189 108 186 43 189 58 l 189 840 b 79 906 189 890 186 906 l 46 906 l 46 949 b 257 944 94 944 203 944 b 490 949 314 944 440 944 l 490 906 l 444 906 b 313 839 313 906 313 886 l 313 99 b 381 43 313 53 315 43 l 494 43 b 774 358 739 43 758 217 l 808 358 m 447 1204 b 417 1167 444 1188 432 1174 l 181 1036 l 161 1065 l 363 1246 b 399 1263 368 1251 382 1263 b 447 1204 429 1263 453 1235 "},"ĺ":{"ha":386,"x_min":0,"x_max":0,"o":"m 200 4 l 46 0 l 46 43 b 154 106 139 43 154 43 l 154 828 b 46 906 154 896 143 906 l 46 949 l 246 964 l 246 106 b 354 43 246 43 261 43 l 354 0 m 383 1219 b 353 1182 381 1203 368 1189 l 117 1051 l 97 1081 l 299 1261 b 335 1278 304 1267 318 1278 b 383 1219 365 1278 389 1250 "},"Λ":{"ha":964,"x_min":0,"x_max":0,"o":"m 747 4 b 547 0 694 4 596 4 l 547 43 b 665 85 583 43 665 43 b 658 110 665 85 665 90 l 439 793 l 231 146 b 224 115 224 126 224 122 b 331 43 224 82 256 44 l 331 0 l 174 4 l 44 0 l 44 43 b 183 139 142 43 169 97 l 450 965 b 482 994 457 989 460 994 b 514 965 497 994 506 992 l 792 103 b 918 43 808 51 813 43 l 918 0 "},"Ľ":{"ha":868,"x_min":0,"x_max":0,"o":"m 769 0 l 46 0 l 46 43 l 79 43 b 189 108 186 43 189 58 l 189 840 b 79 906 189 890 186 906 l 46 906 l 46 949 b 257 944 94 944 203 944 b 490 949 314 944 440 944 l 490 906 l 444 906 b 313 839 313 906 313 886 l 313 99 b 381 43 313 53 315 43 l 494 43 b 774 358 739 43 758 217 l 808 358 m 690 839 b 596 638 690 719 608 638 b 585 649 590 638 585 642 b 592 660 585 653 586 654 b 665 856 638 710 667 772 b 624 839 654 844 639 839 b 568 893 586 839 568 867 b 624 949 568 921 588 949 b 690 839 665 949 690 906 "},"ľ":{"ha":386,"x_min":0,"x_max":0,"o":"m 200 4 l 46 0 l 46 43 b 154 106 139 43 154 43 l 154 828 b 46 906 154 896 143 906 l 46 949 l 246 964 l 246 106 b 354 43 246 43 261 43 l 354 0 m 419 854 b 325 653 419 735 338 653 b 314 664 319 653 314 657 b 321 675 314 668 315 669 b 394 871 367 725 396 788 b 353 854 383 860 368 854 b 297 908 315 854 297 882 b 353 964 297 936 317 964 b 419 854 394 964 419 921 "},"Ļ":{"ha":868,"x_min":0,"x_max":0,"o":"m 769 0 l 46 0 l 46 43 l 79 43 b 189 108 186 43 189 58 l 189 840 b 79 906 189 890 186 906 l 46 906 l 46 949 b 257 944 94 944 203 944 b 490 949 314 944 440 944 l 490 906 l 444 906 b 313 839 313 906 313 886 l 313 99 b 381 43 313 53 315 43 l 494 43 b 774 358 739 43 758 217 l 808 358 m 496 -201 b 401 -403 496 -321 414 -403 b 390 -392 396 -403 390 -399 b 397 -381 390 -387 392 -386 b 471 -185 443 -331 472 -268 b 429 -201 460 -196 444 -201 b 374 -147 392 -201 374 -174 b 429 -92 374 -119 393 -92 b 496 -201 471 -92 496 -135 "},"ļ":{"ha":386,"x_min":0,"x_max":0,"o":"m 200 4 l 46 0 l 46 43 b 154 106 139 43 154 43 l 154 828 b 46 906 154 896 143 906 l 46 949 l 246 964 l 246 106 b 354 43 246 43 261 43 l 354 0 m 254 -201 b 160 -403 254 -321 172 -403 b 149 -392 154 -403 149 -399 b 156 -381 149 -387 150 -386 b 229 -185 201 -331 231 -268 b 188 -201 218 -196 203 -201 b 132 -147 150 -201 132 -174 b 188 -92 132 -119 151 -92 b 254 -201 229 -92 254 -135 "},"Ŀ":{"ha":868,"x_min":0,"x_max":0,"o":"m 769 0 l 46 0 l 46 43 l 79 43 b 189 108 186 43 189 58 l 189 840 b 79 906 189 890 186 906 l 46 906 l 46 949 b 257 944 94 944 203 944 b 490 949 314 944 440 944 l 490 906 l 444 906 b 313 839 313 906 313 886 l 313 99 b 381 43 313 53 315 43 l 494 43 b 774 358 739 43 758 217 l 808 358 m 758 567 b 683 493 758 532 731 493 b 610 567 642 493 610 529 b 685 640 610 601 638 640 b 758 567 726 640 758 604 "},"ŀ":{"ha":386,"x_min":0,"x_max":0,"o":"m 200 4 l 46 0 l 46 43 b 154 106 139 43 154 43 l 154 828 b 46 906 154 896 143 906 l 46 949 l 246 964 l 246 106 b 354 43 246 43 261 43 l 354 0 m 467 513 b 392 439 467 478 439 439 b 318 513 350 439 318 475 b 393 586 318 547 346 586 b 467 513 435 586 467 550 "},"Ḷ":{"ha":868,"x_min":0,"x_max":0,"o":"m 769 0 l 46 0 l 46 43 l 79 43 b 189 108 186 43 189 58 l 189 840 b 79 906 189 890 186 906 l 46 906 l 46 949 b 257 944 94 944 203 944 b 490 949 314 944 440 944 l 490 906 l 444 906 b 313 839 313 906 313 886 l 313 99 b 381 43 313 53 315 43 l 494 43 b 774 358 739 43 758 217 l 808 358 m 508 -204 b 433 -278 508 -239 481 -278 b 360 -204 392 -278 360 -242 b 435 -131 360 -169 388 -131 b 508 -204 476 -131 508 -167 "},"ḷ":{"ha":386,"x_min":0,"x_max":0,"o":"m 200 4 l 46 0 l 46 43 b 154 106 139 43 154 43 l 154 828 b 46 906 154 896 143 906 l 46 949 l 246 964 l 246 106 b 354 43 246 43 261 43 l 354 0 m 267 -204 b 192 -278 267 -239 239 -278 b 118 -204 150 -278 118 -242 b 193 -131 118 -169 146 -131 b 267 -204 235 -131 267 -167 "},"Ḹ":{"ha":868,"x_min":0,"x_max":0,"o":"m 769 0 l 46 0 l 46 43 l 79 43 b 189 108 186 43 189 58 l 189 840 b 79 906 189 890 186 906 l 46 906 l 46 949 b 257 944 94 944 203 944 b 490 949 314 944 440 944 l 490 906 l 444 906 b 313 839 313 906 313 886 l 313 99 b 381 43 313 53 315 43 l 494 43 b 774 358 739 43 758 217 l 808 358 m 508 -204 b 433 -278 508 -239 481 -278 b 360 -204 392 -278 360 -242 b 435 -131 360 -169 388 -131 b 508 -204 476 -131 508 -167 m 18 1050 l 18 1093 l 519 1093 l 519 1050 "},"ḹ":{"ha":386,"x_min":0,"x_max":0,"o":"m 200 4 l 46 0 l 46 43 b 154 106 139 43 154 43 l 154 828 b 46 906 154 896 143 906 l 46 949 l 246 964 l 246 106 b 354 43 246 43 261 43 l 354 0 m 267 -204 b 192 -278 267 -239 239 -278 b 118 -204 150 -278 118 -242 b 193 -131 118 -169 146 -131 b 267 -204 235 -131 267 -167 m -71 1065 l -71 1108 l 431 1108 l 431 1065 "},"̲":{"ha":0,"x_min":0,"x_max":0,"o":"m -597 -225 l -597 -182 l -96 -182 l -96 -225 "},"₤":{"ha":1042,"x_min":0,"x_max":0,"o":"m 956 200 b 810 -49 956 78 915 -49 b 514 115 690 -49 604 40 b 226 -31 497 10 358 -31 b 86 114 147 -31 86 35 b 286 260 86 207 185 260 b 419 218 336 260 379 243 b 390 399 414 278 401 339 l 165 399 l 165 440 l 382 440 l 372 510 l 165 510 l 165 551 l 368 551 b 365 599 367 567 365 582 b 624 949 365 776 461 949 b 851 738 747 949 851 857 b 788 674 851 703 822 674 b 724 738 753 674 724 703 b 788 801 724 772 753 801 b 803 800 793 801 799 800 b 624 913 775 867 704 913 b 463 599 494 913 463 749 b 465 551 463 582 464 567 l 686 551 l 686 510 l 468 510 l 478 440 l 686 440 l 686 399 l 485 399 b 515 144 499 314 515 231 b 753 24 588 85 660 24 b 919 200 847 24 919 104 l 956 200 m 421 183 b 286 224 381 207 336 224 b 122 114 204 224 122 188 b 226 6 122 56 168 6 b 422 160 328 6 422 67 "},"¬":{"ha":1081,"x_min":0,"x_max":0,"o":"m 1001 213 b 974 185 1001 197 989 185 b 946 213 958 185 946 197 l 946 454 l 106 454 b 78 482 90 454 78 467 b 106 510 78 497 90 510 l 974 510 b 1001 482 989 510 1001 497 l 1001 213 "},"ſ":{"ha":425,"x_min":0,"x_max":0,"o":"m 496 882 b 435 821 496 849 475 821 b 375 881 397 821 375 849 b 417 939 375 915 400 933 b 371 949 396 949 371 949 b 247 760 310 949 247 882 l 247 108 b 353 43 247 58 250 43 l 382 43 l 382 0 b 206 4 326 4 261 4 l 47 0 l 47 43 b 156 106 140 43 156 43 l 156 556 l 46 556 l 46 599 l 156 599 l 156 758 b 371 979 156 906 274 979 b 496 882 444 979 496 933 "},"Ł":{"ha":868,"x_min":0,"x_max":0,"o":"m 769 0 l 46 0 l 46 43 l 79 43 b 189 108 186 43 189 58 l 189 415 l 96 340 l 65 375 l 189 474 l 189 840 b 79 906 189 890 186 906 l 46 906 l 46 949 b 257 944 94 944 203 944 b 490 949 314 944 440 944 l 490 906 l 444 906 b 313 839 313 906 313 886 l 313 571 l 533 746 l 561 710 l 313 513 l 313 99 b 381 43 313 53 315 43 l 494 43 b 774 358 739 43 758 217 l 808 358 "},"ł":{"ha":467,"x_min":0,"x_max":0,"o":"m 285 497 l 285 106 b 393 43 285 43 300 43 l 393 0 l 239 4 l 85 0 l 85 43 b 193 106 178 43 193 43 l 193 431 l 89 353 l 67 381 l 193 475 l 193 828 b 85 906 193 896 182 906 l 85 949 l 285 964 l 285 544 l 375 611 l 397 582 "},"¯":{"ha":694,"x_min":0,"x_max":0,"o":"m 97 818 l 97 861 l 599 861 l 599 818 "},"̱":{"ha":0,"x_min":0,"x_max":0,"o":"m -597 -225 l -597 -182 l -96 -182 l -96 -225 "},"̄":{"ha":0,"x_min":0,"x_max":0,"o":"m -597 818 l -597 861 l -96 861 l -96 818 "},"⚭":{"ha":694,"x_min":0,"x_max":0,"o":"m 801 349 b 515 50 801 193 676 50 b 410 69 479 50 443 57 b 347 103 389 78 357 103 b 336 99 343 103 339 100 b 185 50 285 68 240 50 b -108 349 21 50 -108 188 b 163 647 -108 518 15 629 b 183 649 169 647 176 649 b 326 606 232 649 288 632 b 346 594 332 601 339 594 b 357 599 350 594 354 597 b 510 647 408 629 453 647 b 801 349 672 647 801 508 m 306 143 b 229 347 257 201 229 274 b 306 554 229 422 256 496 b 182 583 263 572 226 583 b -44 349 40 583 -44 474 b 183 114 -44 203 58 114 b 306 143 228 114 264 128 m 738 349 b 511 583 738 481 646 583 b 388 554 467 583 431 572 b 464 347 438 496 464 422 b 388 143 464 274 436 201 b 510 114 429 128 465 114 b 738 349 646 114 738 218 m 421 349 b 347 524 421 417 394 474 l 346 524 b 274 349 300 475 274 418 b 347 174 274 283 297 217 b 421 349 393 224 421 279 "},"Ṃ":{"ha":1274,"x_min":0,"x_max":0,"o":"m 1221 0 b 1022 4 1169 4 1076 4 b 822 0 968 4 874 4 l 822 43 l 856 43 b 965 108 963 43 965 58 l 965 906 l 964 906 l 622 26 b 597 0 617 11 613 0 b 569 31 583 0 576 13 l 235 894 l 233 894 l 233 146 b 376 43 233 108 233 43 l 376 0 l 214 4 l 51 0 l 51 43 b 194 146 194 43 194 108 l 194 840 b 85 906 194 890 192 906 l 51 906 l 51 949 l 286 949 b 335 918 318 949 322 949 l 636 140 l 940 922 b 986 949 950 947 950 949 l 1221 949 l 1221 906 l 1188 906 b 1078 840 1081 906 1078 890 l 1078 108 b 1188 43 1078 58 1081 43 l 1221 43 l 1221 0 m 710 -204 b 635 -278 710 -239 682 -278 b 561 -204 593 -278 561 -242 b 636 -131 561 -169 589 -131 b 710 -204 678 -131 710 -167 "},"ṃ":{"ha":1157,"x_min":0,"x_max":0,"o":"m 974 4 l 817 0 l 817 43 b 925 106 910 43 925 43 l 925 429 b 822 583 925 508 910 583 b 635 361 733 583 635 506 l 635 106 b 743 43 635 43 650 43 l 743 0 l 588 4 l 431 0 l 431 43 b 539 106 524 43 539 43 l 539 429 b 436 583 539 508 524 583 b 249 361 347 583 249 506 l 249 106 b 357 43 249 43 264 43 l 357 0 l 201 4 l 44 0 l 44 43 b 153 106 138 43 153 43 l 153 478 b 44 556 153 546 142 556 l 44 599 l 240 614 l 240 468 b 446 614 279 554 344 614 b 631 478 508 614 611 599 b 832 614 654 531 715 614 b 978 563 913 614 958 586 b 1021 350 1021 513 1021 469 l 1021 85 b 1129 43 1022 43 1057 43 l 1129 0 m 653 -204 b 578 -278 653 -239 625 -278 b 504 -204 536 -278 504 -242 b 579 -131 504 -169 532 -131 b 653 -204 621 -131 653 -167 "},"℧":{"ha":1003,"x_min":0,"x_max":0,"o":"m 907 725 b 882 828 900 760 893 796 b 790 860 875 849 871 860 l 679 860 b 803 624 697 782 742 715 b 925 319 868 525 925 429 b 501 -29 925 129 740 -29 b 79 319 267 -29 79 126 b 201 624 79 429 136 525 b 325 860 264 715 307 782 l 214 860 b 122 826 133 860 129 849 b 97 725 110 793 104 761 l 63 725 l 108 950 l 329 950 b 365 921 361 950 365 950 b 300 642 365 825 321 700 b 222 318 260 528 222 422 b 503 1 222 101 369 1 b 782 318 629 1 782 96 b 714 613 782 422 743 532 b 639 921 682 701 639 824 b 674 950 639 950 643 950 l 896 950 l 942 725 "},"−":{"ha":1081,"x_min":0,"x_max":0,"o":"m 1001 347 b 954 319 1001 319 975 319 l 125 319 b 78 347 104 319 78 319 b 124 375 78 375 104 375 l 956 375 b 1001 347 975 375 1001 375 "},"Μ":{"ha":1274,"x_min":0,"x_max":0,"o":"m 1221 0 b 1022 4 1169 4 1076 4 b 822 0 968 4 874 4 l 822 43 l 856 43 b 965 108 963 43 965 58 l 965 906 l 964 906 l 622 26 b 597 0 617 11 613 0 b 569 31 583 0 576 13 l 235 894 l 233 894 l 233 146 b 376 43 233 108 233 43 l 376 0 l 214 4 l 51 0 l 51 43 b 194 146 194 43 194 108 l 194 840 b 85 906 194 890 192 906 l 51 906 l 51 949 l 286 949 b 335 918 318 949 322 949 l 636 140 l 940 922 b 986 949 950 947 950 949 l 1221 949 l 1221 906 l 1188 906 b 1078 840 1081 906 1078 890 l 1078 108 b 1188 43 1078 58 1081 43 l 1221 43 l 1221 0 "},"µ":{"ha":772,"x_min":0,"x_max":0,"o":"m 540 -15 l 540 104 l 539 104 b 363 -15 500 22 439 -15 b 250 3 310 -15 271 -6 l 250 -161 b 358 -226 250 -226 263 -226 l 358 -269 l 201 -265 l 44 -269 l 44 -226 b 153 -161 140 -226 153 -226 l 153 474 b 44 554 153 544 143 554 l 44 597 l 250 613 l 250 154 b 369 15 250 82 254 15 b 536 232 472 15 536 110 l 536 474 b 428 554 536 544 526 554 l 428 597 l 633 613 l 633 124 b 742 43 633 53 643 43 l 742 0 "},"×":{"ha":1081,"x_min":0,"x_max":0,"o":"m 867 21 b 815 33 847 1 829 19 l 540 308 l 265 33 b 213 21 251 19 233 1 b 226 72 193 40 213 58 l 501 347 l 226 622 b 213 675 213 636 193 656 b 265 663 233 694 251 676 l 540 388 l 814 661 b 867 674 828 675 846 693 b 853 622 886 654 867 636 l 579 347 l 854 72 b 867 21 868 58 886 40 "},"♪":{"ha":849,"x_min":0,"x_max":0,"o":"m 772 203 b 744 169 772 186 763 169 l 742 169 b 715 225 713 172 717 204 b 639 478 715 311 672 401 l 538 690 l 538 286 l 536 188 b 538 165 536 181 538 172 b 308 -40 532 32 415 -40 b 76 168 192 -40 76 44 b 311 350 76 293 207 350 b 482 289 374 350 436 331 l 482 924 b 510 965 482 942 485 965 b 538 926 529 965 538 944 l 538 914 b 542 878 538 901 540 890 b 757 319 568 676 710 515 b 772 203 765 281 769 242 "},"Ń":{"ha":1042,"x_min":0,"x_max":0,"o":"m 994 906 b 851 803 851 906 851 840 l 851 36 b 832 0 851 10 851 0 b 808 18 822 0 821 1 l 242 851 b 228 868 236 860 235 861 l 228 146 b 371 43 228 108 228 43 l 371 0 l 208 4 l 46 0 l 46 43 b 189 146 189 43 189 108 l 189 871 b 156 903 189 897 188 899 b 86 906 135 904 107 906 l 46 906 l 46 949 l 282 949 b 322 931 308 949 310 947 l 813 210 l 813 803 b 669 906 813 840 813 906 l 669 949 l 832 944 l 994 949 l 994 906 m 711 1204 b 681 1167 708 1188 696 1174 l 444 1036 l 425 1065 l 626 1246 b 663 1263 632 1251 646 1263 b 711 1204 693 1263 717 1235 "},"ń":{"ha":772,"x_min":0,"x_max":0,"o":"m 588 4 l 431 0 l 431 43 b 539 106 524 43 539 43 l 539 429 b 436 583 539 508 524 583 b 249 361 347 583 249 506 l 249 106 b 357 43 249 43 264 43 l 357 0 l 201 4 l 44 0 l 44 43 b 153 106 138 43 153 43 l 153 478 b 44 556 153 546 142 556 l 44 599 l 240 614 l 240 468 b 446 614 279 554 344 614 b 592 563 526 614 572 586 b 635 350 635 513 635 469 l 635 85 b 743 43 636 43 671 43 l 743 0 m 558 919 b 535 878 558 903 547 888 l 324 708 l 300 733 l 467 946 b 508 969 472 954 488 969 b 558 919 533 969 558 944 "},"₦":{"ha":1042,"x_min":0,"x_max":0,"o":"m 994 906 b 851 803 851 906 851 840 l 851 551 l 967 551 b 988 531 978 551 988 542 b 967 510 988 518 978 510 l 851 510 l 851 440 l 967 440 b 988 419 978 440 988 431 b 967 399 988 407 978 399 l 851 399 l 851 36 b 832 0 851 10 851 0 b 808 18 822 0 821 1 l 550 399 l 228 399 l 228 146 b 371 43 228 108 228 43 l 371 0 l 208 4 l 46 0 l 46 43 b 189 146 189 43 189 108 l 189 399 l 74 399 b 53 419 63 399 53 407 b 74 440 53 431 63 440 l 189 440 l 189 510 l 74 510 b 53 531 63 510 53 518 b 74 551 53 542 63 551 l 189 551 l 189 871 b 156 903 189 897 188 899 b 86 906 135 904 107 906 l 46 906 l 46 949 l 282 949 b 322 931 308 949 310 947 l 581 551 l 813 551 l 813 803 b 669 906 813 840 813 906 l 669 949 l 832 944 l 994 949 l 994 906 m 242 851 b 228 868 236 860 235 861 l 228 551 l 446 551 m 475 510 l 228 510 l 228 440 l 522 440 m 813 510 l 608 510 l 656 440 l 813 440 m 813 399 l 685 399 l 813 210 "}," ":{"ha":694,"x_min":0,"x_max":0,"o":""},"Ň":{"ha":1042,"x_min":0,"x_max":0,"o":"m 994 906 b 851 803 851 906 851 840 l 851 36 b 832 0 851 10 851 0 b 808 18 822 0 821 1 l 242 851 b 228 868 236 860 235 861 l 228 146 b 371 43 228 108 228 43 l 371 0 l 208 4 l 46 0 l 46 43 b 189 146 189 43 189 108 l 189 871 b 156 903 189 897 188 899 b 86 906 135 904 107 906 l 46 906 l 46 949 l 282 949 b 322 931 308 949 310 947 l 813 210 l 813 803 b 669 906 813 840 813 906 l 669 949 l 832 944 l 994 949 l 994 906 m 521 1022 l 311 1185 l 328 1207 l 522 1115 l 717 1207 l 731 1185 "},"ň":{"ha":772,"x_min":0,"x_max":0,"o":"m 588 4 l 431 0 l 431 43 b 539 106 524 43 539 43 l 539 429 b 436 583 539 508 524 583 b 249 361 347 583 249 506 l 249 106 b 357 43 249 43 264 43 l 357 0 l 201 4 l 44 0 l 44 43 b 153 106 138 43 153 43 l 153 478 b 44 556 153 546 142 556 l 44 599 l 240 614 l 240 468 b 446 614 279 554 344 614 b 592 563 526 614 572 586 b 635 350 635 513 635 469 l 635 85 b 743 43 636 43 671 43 l 743 0 m 386 717 l 175 942 l 193 961 l 386 811 l 579 961 l 597 942 "},"Ņ":{"ha":1042,"x_min":0,"x_max":0,"o":"m 994 906 b 851 803 851 906 851 840 l 851 36 b 832 0 851 10 851 0 b 808 18 822 0 821 1 l 242 851 b 228 868 236 860 235 861 l 228 146 b 371 43 228 108 228 43 l 371 0 l 208 4 l 46 0 l 46 43 b 189 146 189 43 189 108 l 189 871 b 156 903 189 897 188 899 b 86 906 135 904 107 906 l 46 906 l 46 949 l 282 949 b 322 931 308 949 310 947 l 813 210 l 813 803 b 669 906 813 840 813 906 l 669 949 l 832 944 l 994 949 l 994 906 m 582 -201 b 488 -403 582 -321 500 -403 b 476 -392 482 -403 476 -399 b 483 -381 476 -387 478 -386 b 557 -185 529 -331 558 -268 b 515 -201 546 -196 531 -201 b 460 -147 478 -201 460 -174 b 515 -92 460 -119 479 -92 b 582 -201 557 -92 582 -135 "}}}
